<?xml version="1.0" encoding="UTF-8"?>
<!-- Created with Inkscape (http://www.inkscape.org/) -->
<svg width="48pt" height="48pt" version="1.1" viewBox="0 0 64 64" xml:space="preserve" xmlns="http://www.w3.org/2000/svg" xmlns:cc="http://creativecommons.org/ns#" xmlns:dc="http://purl.org/dc/elements/1.1/" xmlns:rdf="http://www.w3.org/1999/02/22-rdf-syntax-ns#"><metadata><rdf:RDF><cc:Work rdf:about=""><dc:format>image/svg+xml</dc:format><dc:type rdf:resource="http://purl.org/dc/dcmitype/StillImage"/><dc:title/></cc:Work></rdf:RDF></metadata><defs><clipPath id="clipPath18"><path d="m0 48h48v-48h-48z"/></clipPath></defs><g transform="matrix(1.3333 0 0 -1.3333 0 64)"><g transform="matrix(2.0124 0 0 2.0124 -24.297 -24.181)"><g clip-path="url(#clipPath18)"><g transform="translate(21.305 34.187)"><path d="m0 0-8.733-17.853c-0.975-1.993 0.476-4.318 2.695-4.318h17.466c2.219 0 3.67 2.325 2.695 4.318l-8.733 17.853c-1.098 2.242-4.293 2.242-5.39 0" fill="#fbd13b"/></g><g transform="translate(22.585 16.922)"><path d="m0 0c0-0.798 0.646-1.444 1.444-1.444 0.797 0 1.444 0.646 1.444 1.444 0 0.797-0.647 1.443-1.444 1.443-0.798 0-1.444-0.646-1.444-1.443"/></g><g transform="translate(23.936 19.81)"><path d="m0 0h0.186c0.425 0 0.773 0.348 0.773 0.773v6.539c0 0.426-0.348 0.773-0.773 0.773h-0.186c-0.425 0-0.773-0.347-0.773-0.773v-6.539c0-0.425 0.348-0.773 0.773-0.773"/></g></g></g></g></svg>
