<?xml version="1.0" encoding="UTF-8"?>
<!-- Created with Inkscape (http://www.inkscape.org/) -->
<svg width="48pt" height="48pt" version="1.1" viewBox="0 0 64 64" xml:space="preserve" xmlns="http://www.w3.org/2000/svg" xmlns:cc="http://creativecommons.org/ns#" xmlns:dc="http://purl.org/dc/elements/1.1/" xmlns:rdf="http://www.w3.org/1999/02/22-rdf-syntax-ns#"><metadata><rdf:RDF><cc:Work rdf:about=""><dc:format>image/svg+xml</dc:format><dc:type rdf:resource="http://purl.org/dc/dcmitype/StillImage"/><dc:title/></cc:Work></rdf:RDF></metadata><defs><clipPath id="clipPath18"><path d="m0 32h32v-32h-32z"/></clipPath></defs><g transform="matrix(1.3333 0 0 -1.3333 0 64)"><g fill="#fff" stroke-width=".75"><rect transform="matrix(-.70711 .70711 .70711 .70711 0 0)" x="-19.124" y="24.425" width="27.797" height="18.169" opacity=".98"/><ellipse transform="scale(1,-1)" cx="9.2881" cy="-36.814" rx="8.4373" ry="9.0126" opacity=".98"/></g><g transform="matrix(2.4 0 0 2.4 -14.4 -14.4)"><g clip-path="url(#clipPath18)"><g transform="translate(18.671 8.4238)"><path d="m0 0-7.415 7.415 1.203 1.203 7.414-7.415zm-11.421 12.993c0 1.611 1.306 2.917 2.917 2.917 1.61 0 2.917-1.306 2.917-2.917s-1.307-2.917-2.917-2.917c-1.611 0-2.917 1.306-2.917 2.917m8.542-1.458 3.958-3.959-1.203-1.203-3.958 3.959zm-2.721 6.041h-7.071v-7.071l12.929-12.929h0.166l6.905 6.905v0.166z"/></g></g></g></g></svg>
