<?xml version="1.0" encoding="UTF-8"?>
<!-- Created with Inkscape (http://www.inkscape.org/) -->
<svg width="48pt" height="48pt" version="1.1" viewBox="0 0 64 64" xml:space="preserve" xmlns="http://www.w3.org/2000/svg" xmlns:cc="http://creativecommons.org/ns#" xmlns:dc="http://purl.org/dc/elements/1.1/" xmlns:rdf="http://www.w3.org/1999/02/22-rdf-syntax-ns#"><metadata><rdf:RDF><cc:Work rdf:about=""><dc:format>image/svg+xml</dc:format><dc:type rdf:resource="http://purl.org/dc/dcmitype/StillImage"/><dc:title/></cc:Work></rdf:RDF></metadata><defs><clipPath id="clipPath18"><path d="m0 24h24v-24h-24z"/></clipPath></defs><g transform="matrix(1.3333 0 0 -1.3333 0 64)"><g transform="matrix(2.4 0 0 2.4 -4.8001 -4.7995)"><g clip-path="url(#clipPath18)"><g transform="translate(7.7173,4.2598)"><path d="m0 0c0-0.624 0.253-1.188 0.662-1.598 0.409-0.409 0.974-0.662 1.598-0.662s1.189 0.253 1.598 0.662c0.409 0.41 0.662 0.974 0.662 1.598 0 0.625-0.253 1.189-0.662 1.599-0.409 0.409-0.974 0.662-1.598 0.662s-1.189-0.253-1.598-0.662c-0.409-0.41-0.662-0.974-0.662-1.599" fill="#88d11a"/></g><g transform="translate(16.87 19.74)"><path d="m0 0c0-1.248 1.013-2.26 2.261-2.26s2.26 1.012 2.26 2.26c0 1.249-1.012 2.26-2.26 2.26s-2.261-1.011-2.261-2.26" fill="#88d11a"/></g><g transform="translate(2.6089 10.826)"><path d="m0 0c0-1.248 1.012-2.26 2.26-2.26 1.249 0 2.261 1.012 2.261 2.26 0 1.249-1.012 2.26-2.261 2.26-1.248 0-2.26-1.011-2.26-2.26" fill="#88d11a"/></g><g transform="translate(4.8691 10.826)"><path d="m0 0 5.107-6.566" fill="#88d11a"/></g><g transform="translate(8.1924,2.8721)"><path d="m0 0-5.107 6.566 3.568 2.775 5.107-6.566z" fill="#88d11a"/></g><g transform="translate(9.9771,4.2598)"><path d="m0 0 9.154 15.48" fill="#88d11a"/></g><g transform="translate(11.923 3.1094)"><path d="m0 0-3.891 2.302 9.154 15.479 3.89-2.301z" fill="#88d11a"/></g></g></g></g></svg>
