<?xml version="1.0" encoding="UTF-8"?>
<!-- Created with Inkscape (http://www.inkscape.org/) -->
<svg width="48pt" height="48pt" version="1.1" viewBox="0 0 64 64" xml:space="preserve" xmlns="http://www.w3.org/2000/svg" xmlns:cc="http://creativecommons.org/ns#" xmlns:dc="http://purl.org/dc/elements/1.1/" xmlns:rdf="http://www.w3.org/1999/02/22-rdf-syntax-ns#"><metadata><rdf:RDF><cc:Work rdf:about=""><dc:format>image/svg+xml</dc:format><dc:type rdf:resource="http://purl.org/dc/dcmitype/StillImage"/><dc:title/></cc:Work></rdf:RDF></metadata><defs><clipPath id="clipPath18"><path d="m14 14.238h19v19h-19z"/></clipPath><clipPath id="clipPath46"><path d="m0 48h48v-48h-48z"/></clipPath></defs><g transform="matrix(1.3333 0 0 -1.3333 0 64)"><g transform="matrix(2.5263 0 0 2.5263 -35.368 -35.97)"><g clip-path="url(#clipPath18)"><g transform="translate(30.855 23.738)"><path d="m0 0c0-4.061-3.294-7.355-7.355-7.355-4.062 0-7.355 3.294-7.355 7.355 0 4.062 3.293 7.355 7.355 7.355 4.061 0 7.355-3.293 7.355-7.355z" fill="none" stroke="#000" stroke-miterlimit="10" stroke-width="2.85"/></g><g transform="translate(28.098 17.302)"><path d="M 0,0 3.064,-3.064 4.902,-1.225 1.839,1.839 C 1.33,1.129 0.71,0.508 0,0"/></g><g transform="translate(18.902 30.175)"><path d="m0 0-3.064 3.064-1.838-1.839 3.063-3.064c0.508 0.71 1.129 1.331 1.839 1.839"/></g><g transform="translate(29.937 28.336)"><path d="M 0,0 3.064,3.064 1.225,4.902 -1.839,1.839 C -1.129,1.331 -0.508,0.71 0,0"/></g><g transform="translate(17.063 19.14)"><path d="m 0,0 -3.064,-3.064 1.839,-1.838 3.064,3.063 C 1.129,-1.33 0.508,-0.71 0,0"/></g></g></g><g transform="matrix(2.234 0 0 2.234 -39.189 -38.657)"><g clip-path="url(#clipPath46)"><g transform="translate(28.286 29.548)"><path d="m0 0c-0.827 0-1.5-0.673-1.5-1.5s0.673-1.5 1.5-1.5 1.5 0.673 1.5 1.5-0.673 1.5-1.5 1.5m-0.596-7.715c-0.212 0-0.4 0.133-0.47 0.332l-0.364 1.02c-0.345 0.102-0.679 0.24-0.998 0.414l-0.977-0.465c-0.069-0.032-0.142-0.048-0.215-0.048-0.13 0-0.258 0.05-0.354 0.147l-0.841 0.841c-0.15 0.15-0.189 0.377-0.099 0.569l0.465 0.978c-0.174 0.318-0.312 0.652-0.414 0.998l-1.019 0.362c-0.2 0.071-0.333 0.26-0.333 0.471v1.191c0 0.212 0.133 0.401 0.333 0.471l1.019 0.363c0.102 0.346 0.24 0.68 0.414 0.998l-0.465 0.978c-0.09 0.191-0.051 0.419 0.099 0.568l0.841 0.842c0.096 0.096 0.224 0.146 0.354 0.146 0.073 0 0.146-0.015 0.215-0.048l0.977-0.465c0.319 0.174 0.653 0.313 0.998 0.414l0.364 1.019c0.07 0.2 0.258 0.333 0.47 0.333h1.191c0.212 0 0.4-0.133 0.47-0.333l0.364-1.019c0.345-0.101 0.679-0.24 0.998-0.414l0.977 0.465c0.069 0.033 0.142 0.048 0.215 0.048 0.13 0 0.258-0.05 0.354-0.146l0.841-0.842c0.15-0.149 0.189-0.377 0.098-0.568l-0.465-0.978c0.175-0.318 0.314-0.652 0.415-0.998l1.02-0.363c0.199-0.07 0.332-0.259 0.332-0.471v-1.191c0-0.211-0.133-0.4-0.332-0.471l-1.02-0.362c-0.101-0.347-0.24-0.681-0.415-0.999l0.465-0.977c0.091-0.192 0.052-0.419-0.098-0.569l-0.841-0.841c-0.096-0.096-0.224-0.147-0.354-0.147-0.073 0-0.146 0.016-0.215 0.048l-0.977 0.465c-0.319-0.174-0.653-0.312-0.998-0.414l-0.364-1.02c-0.07-0.199-0.258-0.332-0.47-0.332z"/></g><g transform="translate(28.286 27.048)"><path d="m0 0c-0.552 0-1 0.448-1 1 0 0.551 0.448 1 1 1 0.551 0 1-0.449 1-1 0-0.552-0.449-1-1-1m0.595 7.714h-1.191c-0.423 0-0.8-0.266-0.942-0.665l-0.279-0.786c-0.211-0.073-0.418-0.159-0.62-0.257l-0.753 0.358c-0.138 0.066-0.285 0.097-0.43 0.097-0.259 0-0.515-0.101-0.707-0.293l-0.842-0.841c-0.299-0.3-0.378-0.755-0.196-1.137l0.358-0.754c-0.098-0.201-0.183-0.408-0.257-0.619l-0.786-0.28c-0.398-0.141-0.665-0.519-0.665-0.942v-1.191c0-0.423 0.267-0.8 0.665-0.942l0.786-0.279c0.074-0.211 0.159-0.418 0.257-0.62l-0.358-0.753c-0.182-0.383-0.103-0.838 0.196-1.137l0.842-0.842c0.192-0.191 0.448-0.293 0.707-0.293 0.145 0 0.292 0.032 0.43 0.097l0.753 0.359c0.202-0.098 0.409-0.184 0.62-0.258l0.279-0.786c0.142-0.398 0.519-0.665 0.942-0.665h1.191c0.423 0 0.801 0.267 0.942 0.665l0.279 0.786c0.212 0.074 0.418 0.16 0.62 0.258l0.754-0.359c0.137-0.065 0.284-0.097 0.429-0.097 0.26 0 0.516 0.102 0.707 0.293l0.842 0.842c0.3 0.299 0.378 0.754 0.196 1.137l-0.358 0.753c0.098 0.202 0.183 0.408 0.257 0.62l0.786 0.279c0.398 0.142 0.665 0.519 0.665 0.942v1.191c0 0.423-0.267 0.801-0.665 0.942l-0.786 0.28c-0.074 0.211-0.159 0.418-0.257 0.619l0.358 0.754c0.182 0.382 0.104 0.837-0.196 1.137l-0.842 0.841c-0.191 0.192-0.447 0.293-0.707 0.293-0.145 0-0.292-0.031-0.429-0.097l-0.754-0.358c-0.202 0.098-0.408 0.184-0.62 0.257l-0.279 0.786c-0.141 0.399-0.519 0.665-0.942 0.665m-0.595-8.714c1.104 0 2 0.895 2 2 0 1.104-0.896 2-2 2s-2-0.896-2-2c0-1.105 0.896-2 2-2m0.595 7.714 0.451-1.268c0.487-0.114 0.943-0.306 1.357-0.563l1.216 0.578 0.842-0.841-0.578-1.217c0.257-0.413 0.449-0.87 0.563-1.357l1.268-0.451v-1.191l-1.268-0.45c-0.114-0.488-0.306-0.944-0.563-1.358l0.578-1.216-0.842-0.842-1.216 0.578c-0.414-0.256-0.87-0.449-1.357-0.563l-0.451-1.268h-1.191l-0.451 1.268c-0.487 0.114-0.943 0.307-1.357 0.563l-1.216-0.578-0.842 0.842 0.578 1.216c-0.256 0.414-0.449 0.87-0.563 1.358l-1.268 0.45v1.191l1.268 0.451c0.114 0.487 0.307 0.944 0.563 1.357l-0.578 1.217 0.842 0.841 1.216-0.578c0.414 0.257 0.87 0.449 1.357 0.563l0.451 1.268h1.191" fill="#fff"/></g><g transform="translate(28 28.238)"><path d="m0 0v-1 2z" fill="#fff"/></g><g transform="translate(29.5 28.238)"><path d="m0 0c0-0.829-0.672-1.5-1.5-1.5s-1.5 0.671-1.5 1.5c0 0.828 0.672 1.5 1.5 1.5s1.5-0.672 1.5-1.5" fill="#fff"/></g></g></g></g></svg>
