<?xml version="1.0" encoding="UTF-8"?>
<!-- Created with Inkscape (http://www.inkscape.org/) -->
<svg width="48pt" height="48pt" version="1.1" viewBox="0 0 64 64" xml:space="preserve" xmlns="http://www.w3.org/2000/svg" xmlns:cc="http://creativecommons.org/ns#" xmlns:dc="http://purl.org/dc/elements/1.1/" xmlns:rdf="http://www.w3.org/1999/02/22-rdf-syntax-ns#"><metadata><rdf:RDF><cc:Work rdf:about=""><dc:format>image/svg+xml</dc:format><dc:type rdf:resource="http://purl.org/dc/dcmitype/StillImage"/><dc:title/></cc:Work></rdf:RDF></metadata><defs><clipPath id="clipPath18"><path d="m0 32h32v-32h-32z"/></clipPath></defs><g transform="matrix(1.3333 0 0 -1.3333 0 64)"><g transform="matrix(2.3999 0 0 2.3999 -14.398 -14.398)"><g clip-path="url(#clipPath18)"><g transform="translate(23.742 16)"><path d="m0 0c0-4.275-3.467-7.742-7.742-7.742-4.276 0-7.742 3.467-7.742 7.742 0 4.276 3.466 7.742 7.742 7.742 4.275 0 7.742-3.466 7.742-7.742z" fill="none" stroke="#000" stroke-miterlimit="10" stroke-width="3"/></g><g transform="translate(20.84 9.2246)"><path d="M 0,0 3.225,-3.225 5.16,-1.289 1.936,1.936 C 1.4,1.188 0.747,0.535 0,0"/></g><g transform="translate(11.16 22.775)"><path d="m0 0-3.225 3.225-1.935-1.936 3.224-3.225c0.535 0.748 1.189 1.401 1.936 1.936"/></g><g transform="translate(22.775 20.84)"><path d="M 0,0 3.225,3.225 1.289,5.16 -1.936,1.936 C -1.188,1.401 -0.535,0.747 0,0"/></g><g transform="translate(9.2246 11.16)"><path d="m 0,0 -3.225,-3.225 1.936,-1.935 3.225,3.224 C 1.188,-1.4 0.535,-0.747 0,0"/></g></g></g></g></svg>
