<?xml version="1.0" encoding="UTF-8"?>
<!-- Created with Inkscape (http://www.inkscape.org/) -->
<svg width="48pt" height="48pt" version="1.1" viewBox="0 0 64 64" xml:space="preserve" xmlns="http://www.w3.org/2000/svg" xmlns:cc="http://creativecommons.org/ns#" xmlns:dc="http://purl.org/dc/elements/1.1/" xmlns:rdf="http://www.w3.org/1999/02/22-rdf-syntax-ns#"><metadata><rdf:RDF><cc:Work rdf:about=""><dc:format>image/svg+xml</dc:format><dc:type rdf:resource="http://purl.org/dc/dcmitype/StillImage"/><dc:title/></cc:Work></rdf:RDF></metadata><defs><clipPath id="clipPath18"><path d="m0 32h32v-32h-32z"/></clipPath></defs><g transform="matrix(1.3333 0 0 -1.3333 0 64)"><g transform="matrix(2.2794 0 0 2.2794 -12.471 -12.471)"><g clip-path="url(#clipPath18)"><g transform="translate(22.579 23.35)"><path d="m0 0c0.665 0 1.205-0.541 1.205-1.205v-1.687h0.723v-1.445h-0.723v-3.549l1.446-0.742v7.423c0 1.462-1.189 2.651-2.651 2.651h-0.791v-1.446z"/></g><path d="m20.479 24.795h-10.258v-1.446h10.258z"/><g transform="translate(23.784 8.6504)"><path d="m0 0c0-0.664-0.54-1.205-1.205-1.205h-14.458c-0.664 0-1.204 0.541-1.204 1.205v10.362h-0.723v1.446h0.723v1.686c0 0.665 0.54 1.205 1.204 1.205h0.792v1.446h-0.792c-1.461 0-2.65-1.189-2.65-2.651v-13.494c0-1.462 1.189-2.65 2.65-2.65h14.458c1.462 0 2.651 1.188 2.651 2.65v3.005l-1.446-0.743z"/></g><g transform="translate(10.222 25.434)"><path d="m0 0c0 0.312-0.255 0.566-0.566 0.566h-0.176c-0.311 0-0.566-0.254-0.566-0.566v-0.638h1.308z"/></g><g transform="translate(9.48 21.748)"><path d="m0 0h0.175c0.312 0 0.567 0.255 0.567 0.566v1.035h-1.308v-1.035c0-0.311 0.254-0.566 0.566-0.566"/></g><path d="m10.222 24.795h-1.308v-1.446h1.308z"/><g transform="translate(21.788 25.434)"><path d="m0 0c0 0.312-0.255 0.566-0.566 0.566h-0.176c-0.312 0-0.567-0.254-0.567-0.566v-0.638h1.309z"/></g><g transform="translate(21.046 21.748)"><path d="m0 0h0.176c0.311 0 0.566 0.255 0.566 0.566v1.035h-1.308v-1.035c0-0.311 0.254-0.566 0.566-0.566"/></g><path d="m21.788 24.795h-1.309v-1.446h1.309z"/><path d="m18.122 17.687h-1.687v-1.687h1.687z"/><g transform="translate(21.495 17.686)"><path d="m0 0h-1.687v-0.182l1.687-0.865z"/></g><g><path d="m14.749 17.687h-1.687v-1.687h1.687z"/><path d="m9.206 9.253h1.687v1.687h-1.687z"/><path d="m13.062 9.253h1.687v1.687h-1.687z"/><path d="m16.435 9.253h1.687v1.687h-1.687z"/><path d="m23.784 20.458h-16.867v-1.446h16.867z"/><path d="m24.507 20.458h-0.723v-1.446h0.723z"/><path d="m6.194 19.012h0.723v1.446h-0.723z"/><path d="m19.809 14.313h1.687v-1.687h-1.687zm1.243 1.687h-1.243v0.638l-0.538 0.276v-2.836h-1.149v-1.451h-1.687v1.451h-1.686v-1.451h-1.687v1.451h-2.169v-1.451h-1.278v-0.328h9.656v-2.836l4.513 2.316v2.819z"/></g><g transform="translate(26.529 13.188)"><path d="m0 0-1.299 0.667v-1.334z"/></g><g transform="translate(23.784 11.779)"><path d="m0 0 1.446 0.742v1.334l-1.446 0.742z"/></g><path d="m9.615 12.627h1.278v1.451h-1.278z"/><path d="m19.809 12.627h1.687v1.687h-1.687z"/><g transform="translate(19.809 16)"><path d="m0 0h1.243l-1.243 0.638z"/></g><path d="m13.062 12.627h1.687v1.451h-1.687z"/><path d="m16.435 12.627h1.687v1.451h-1.687z"/></g></g></g></svg>
