<?xml version="1.0" encoding="UTF-8"?>
<!-- Created with Inkscape (http://www.inkscape.org/) -->
<svg width="48pt" height="48pt" version="1.1" viewBox="0 0 64 64" xml:space="preserve" xmlns="http://www.w3.org/2000/svg" xmlns:cc="http://creativecommons.org/ns#" xmlns:dc="http://purl.org/dc/elements/1.1/" xmlns:rdf="http://www.w3.org/1999/02/22-rdf-syntax-ns#"><metadata><rdf:RDF><cc:Work rdf:about=""><dc:format>image/svg+xml</dc:format><dc:type rdf:resource="http://purl.org/dc/dcmitype/StillImage"/><dc:title/></cc:Work></rdf:RDF></metadata><defs><clipPath id="clipPath18"><path d="m0 32h32v-32h-32z"/></clipPath></defs><g transform="matrix(1.3333 0 0 -1.3333 0 64)"><g transform="matrix(2.1675 0 0 2.1675 -9.8652 -11.065)"><g clip-path="url(#clipPath18)"><g transform="translate(20.889 23.56)"><path d="m0 0c0.702 0 1.272-0.571 1.272-1.273v-1.37h0.764v-1.527h-0.764v-1.249c0.544-0.158 1.055-0.388 1.528-0.678v4.824c0 1.544-1.256 2.8-2.8 2.8h-0.579v-1.527z"/></g><path d="m19.052 25.087h-9.864v-1.527h9.864z"/><g transform="translate(15.332 8.4053)"><path d="m0 0h-7.98c-0.702 0-1.272 0.57-1.272 1.272v9.713h-0.764v1.527h0.764v1.37c0 0.702 0.57 1.273 1.272 1.273h0.579v1.527h-0.579c-1.543 0-2.8-1.255-2.8-2.8v-12.61c0-1.543 1.257-2.799 2.8-2.799h9.562c-0.614 0.411-1.147 0.93-1.582 1.527"/></g><g transform="translate(9.188 25.579)"><path d="m0 0c0 0.329-0.27 0.599-0.599 0.599h-0.06c-0.329 0-0.599-0.27-0.599-0.599v-0.492h1.258z"/></g><g transform="translate(8.5293 22.09)"><path d="m0 0h0.06c0.329 0 0.599 0.27 0.599 0.599v0.872h-1.258v-0.872c0-0.329 0.269-0.599 0.599-0.599"/></g><path d="m9.188 25.087h-1.258v-1.527h1.258z"/><g transform="translate(20.31 25.579)"><path d="m0 0c0 0.329-0.27 0.599-0.599 0.599h-0.059c-0.33 0-0.6-0.27-0.6-0.599v-0.492h1.258z"/></g><g transform="translate(19.651 22.09)"><path d="m0 0h0.06c0.329 0 0.598 0.27 0.598 0.599v0.872h-1.258v-0.872c0-0.329 0.27-0.599 0.6-0.599"/></g><path d="m20.31 25.087h-1.258v-1.527h1.258z"/><path d="m8.212 13.318h1.622v1.622h-1.622z"/><g transform="translate(16.785 18.184)"><path d="m0 0h-1.622v-1.622h0.81c0.25 0.248 0.523 0.473 0.812 0.677z"/></g><g><path d="m11.919 16.562h1.622v1.622h-1.622z"/><path d="m11.919 13.318h1.622v1.622h-1.622z"/><path d="m8.212 10.074h1.622v1.622h-1.622z"/><path d="m11.919 10.074h1.622v1.622h-1.622z"/><path d="m22.161 20.917h-16.082v-1.527h16.082z"/><path d="m22.925 20.917h-0.764v-1.527h0.764z"/><path d="m5.315 19.39h0.764v1.527h-0.764z"/></g><g transform="translate(20.742 15.122)"><path d="m0 0c0 0.142-0.057 0.271-0.15 0.364s-0.222 0.15-0.364 0.15c-0.141 0-0.27-0.057-0.363-0.15-0.094-0.093-0.15-0.222-0.15-0.364v-0.181h0.313v-1.622h-0.313v-1.375c0-0.284 0.229-0.514 0.513-0.514h1.933v1.028h-1.419z"/></g><g transform="translate(22.691 11.43)"><path d="m0 0c0.284 0 0.515 0.229 0.515 0.514 0 0.284-0.231 0.514-0.515 0.514h-0.53v-1.028z"/></g><path d="m20.028 14.94h-0.313v-1.622h0.313z"/><g transform="translate(20.592 15.485)"><path d="m0 0c-0.093 0.093-0.222 0.15-0.363 0.15-0.142 0-0.271-0.057-0.364-0.15 0.093 0.093 0.222 0.15 0.364 0.15 0.141 0 0.27-0.057 0.363-0.15" fill="#fff"/></g><g transform="translate(26.697 14.988)"><path d="m0 0-0.574-0.268c0.189-0.414 0.34-0.848 0.436-1.304z"/></g><g transform="translate(17.478 6.8779)"><path d="m0 0c1.558-0.838 3.475-0.963 5.197-0.16l-0.283 0.606c-0.435-0.279-0.949-0.446-1.504-0.446z"/></g><g transform="translate(17.829 15.955)"><path d="m0 0c0.125 0.357 0.318 0.681 0.577 0.946v0.568c-0.212-0.07-0.422-0.15-0.629-0.246-0.356-0.166-0.687-0.365-0.992-0.59v-0.071h-0.089c-0.588-0.452-1.075-1.003-1.443-1.621h1.385c0.329 0.398 0.73 0.737 1.191 1.014"/></g><g transform="translate(15.991 9.9951)"><path d="m0 0c-0.012 0.025-0.016 0.054-0.028 0.079h-0.8v1.622h0.407c-0.032 0.554 0.044 1.1 0.202 1.622h-0.609v1.453c-0.864-1.566-1.001-3.507-0.189-5.251 0.19-0.406 0.425-0.776 0.69-1.115h1.562c-0.507 0.424-0.938 0.952-1.235 1.59"/></g><g transform="translate(20.028 17.652)"><path d="m0 0c0.067 5e-3 0.132 0.02 0.2 0.02 0.777 0 1.465-0.356 1.933-0.905v0.661c-0.679 0.241-1.403 0.357-2.133 0.333z"/></g><g transform="translate(25.48 14.425)"><path d="m0 0-3e-3 -1e-3c-0.42 0.898-1.043 1.638-1.788 2.191v-1.538c0.301-0.336 0.573-0.703 0.773-1.131l-0.133-0.062c0.543-0.459 0.895-1.133 0.909-1.895l1.128-0.79 0.194 2.217c-0.097 0.456-0.247 0.891-0.436 1.305l-0.642-0.3z"/></g><g transform="translate(22.619 15.981)"><path d="m0 0c0.399-0.237 0.752-0.551 1.069-0.904v1.538c-0.467 0.347-0.983 0.62-1.527 0.813v-0.661c0.197-0.231 0.354-0.495 0.458-0.786"/></g><g transform="translate(17.226 8.4053)"><path d="m0 0h-1.562c0.5-0.641 1.121-1.154 1.815-1.527h3.41c0.555 0 1.068 0.167 1.504 0.446l-0.191 0.41c-1.699-0.792-3.627-0.461-4.976 0.671"/></g><g transform="translate(16.785 16.632)"><path d="m0 0c-0.03-0.022-0.058-0.047-0.088-0.07h0.088z"/></g><g transform="translate(18.406 17.469)"><path d="m 0,0 v -0.568 c 0.419,0.429 0.989,0.701 1.622,0.751 V 0.292 C 1.08,0.274 0.534,0.177 0,0"/></g><g transform="translate(15.163 11.696)"><path d="m0 0v-1.622h0.8c-0.234 0.528-0.362 1.076-0.393 1.622z"/></g><g transform="translate(15.253 14.94)"><path d="m0 0c-0.033-0.055-0.06-0.113-0.09-0.169v-1.453h0.609c0.179 0.591 0.469 1.141 0.866 1.622z"/></g><g transform="translate(20.228 17.672)"><path d="m0 0c-0.068 0-0.133-0.015-0.2-0.02v-1.015c0.741 0.031 1.467-0.134 2.133-0.438v0.568c-0.468 0.549-1.157 0.905-1.933 0.905"/></g><g transform="translate(18.406 16.901)"><path d="m0 0c-0.259-0.265-0.452-0.589-0.577-0.946 0.14 0.084 0.27 0.18 0.422 0.251 0.398 0.186 0.81 0.289 1.224 0.356h-1.069z"/></g><g transform="translate(24.328 13.884)"><path d="m0 0-0.64-0.299v-0.512l1.549-1.084c-0.013 0.762-0.366 1.436-0.909 1.895"/></g><g transform="translate(23.688 13.073)"><path d="m0 0v0.512l-0.438-0.204z"/></g><g transform="translate(22.161 16.199)"><path d="m0 0c0.154-0.07 0.312-0.131 0.458-0.218-0.104 0.291-0.261 0.554-0.458 0.785z"/></g><g transform="translate(18.406 16.901)"><path d="m0 0v-0.339h1.069c0.185 0.03 0.368 0.068 0.553 0.075v1.015c-0.633-0.05-1.203-0.322-1.622-0.751"/></g></g></g></g></svg>
