<?xml version="1.0" encoding="UTF-8"?>
<!-- Created with Inkscape (http://www.inkscape.org/) -->
<svg width="48pt" height="48pt" version="1.1" viewBox="0 0 64 64" xml:space="preserve" xmlns="http://www.w3.org/2000/svg" xmlns:cc="http://creativecommons.org/ns#" xmlns:dc="http://purl.org/dc/elements/1.1/" xmlns:rdf="http://www.w3.org/1999/02/22-rdf-syntax-ns#"><metadata><rdf:RDF><cc:Work rdf:about=""><dc:format>image/svg+xml</dc:format><dc:type rdf:resource="http://purl.org/dc/dcmitype/StillImage"/><dc:title/></cc:Work></rdf:RDF></metadata><defs><clipPath id="clipPath18"><path d="m0 32h32v-32h-32z"/></clipPath></defs><g transform="matrix(1.3333 0 0 -1.3333 0 64)"><g transform="matrix(2.3132 0 0 2.3132 -13.011 -12.144)"><g clip-path="url(#clipPath18)"><g transform="translate(23.5,6)"><path d="m0 0h-15c-1.1 0-2 0.9-2 2v14c0 1.1 0.9 2 2 2h15c1.1 0 2-0.9 2-2v-14c0-1.1-0.9-2-2-2z" fill="none" stroke="#000" stroke-miterlimit="10" stroke-width="1.5"/></g><g transform="translate(10 21.589)"><path d="m0 0c-0.373 0-0.679 0.305-0.679 0.679v3.053c0 0.373 0.306 0.679 0.679 0.679s0.679-0.306 0.679-0.679v-3.053c0-0.374-0.306-0.679-0.679-0.679"/></g><g transform="translate(22 21.589)"><path d="m0 0c-0.373 0-0.679 0.305-0.679 0.679v3.053c0 0.373 0.306 0.679 0.679 0.679s0.679-0.306 0.679-0.679v-3.053c0-0.374-0.306-0.679-0.679-0.679"/></g><g><path d="m11.375 12.125h-1.75v1.75h1.75z"/><path d="m18.875 15.625h-1.75v1.75h1.75z"/><path d="m22.375 12.125h-1.75v1.75h1.75z"/><path d="m22.375 15.625h-1.75v1.75h1.75z"/><path d="m15.375 15.625h-1.75v1.75h1.75z"/><path d="m15.375 12.125h-1.75v1.75h1.75z"/><path d="m11.375 8.625h-1.75v1.75h1.75z"/><path d="m15.375 8.625h-1.75v1.75h1.75z"/><path d="m18.875 8.625h-1.75v1.75h1.75z"/><path d="m18.875 12.125h-1.75v1.75h1.75z"/></g><g transform="translate(6.5,19.5)"><path d="m0 0h19" fill="none" stroke="#000" stroke-miterlimit="10" stroke-width="1.5"/></g></g></g></g></svg>
