<?xml version="1.0" encoding="UTF-8"?>
<!-- Created with Inkscape (http://www.inkscape.org/) -->
<svg width="48pt" height="48pt" version="1.1" viewBox="0 0 64 64" xml:space="preserve" xmlns="http://www.w3.org/2000/svg" xmlns:cc="http://creativecommons.org/ns#" xmlns:dc="http://purl.org/dc/elements/1.1/" xmlns:rdf="http://www.w3.org/1999/02/22-rdf-syntax-ns#"><metadata><rdf:RDF><cc:Work rdf:about=""><dc:format>image/svg+xml</dc:format><dc:type rdf:resource="http://purl.org/dc/dcmitype/StillImage"/><dc:title/></cc:Work></rdf:RDF></metadata><defs><clipPath id="clipPath18"><path d="m0 48h48v-48h-48z"/></clipPath></defs><g transform="matrix(1.3333 0 0 -1.3333 0 64)"><g transform="matrix(2.5263 0 0 2.5263 -36.632 -36.631)"><g clip-path="url(#clipPath18)"><g transform="translate(24 20.675)"><path d="m0 0c-1.836 0-3.325 1.489-3.325 3.325 0 1.837 1.489 3.325 3.325 3.325s3.325-1.488 3.325-3.325c0-1.836-1.489-3.325-3.325-3.325m9.5 2.335v1.98l-2.107 0.749c-0.191 0.811-0.51 1.569-0.937 2.257l0.961 2.022-1.399 1.4-2.022-0.962c-0.687 0.427-1.446 0.746-2.257 0.936l-0.749 2.108h-1.98l-0.749-2.108c-0.811-0.19-1.569-0.509-2.257-0.936l-2.022 0.962-1.399-1.4 0.961-2.022c-0.426-0.688-0.746-1.446-0.936-2.257l-2.108-0.749v-1.98l2.108-0.749c0.19-0.811 0.51-1.569 0.936-2.257l-0.961-2.021 1.399-1.4 2.022 0.961c0.688-0.427 1.446-0.746 2.257-0.936l0.749-2.108h1.98l0.749 2.108c0.811 0.19 1.57 0.509 2.257 0.936l2.022-0.961 1.399 1.4-0.961 2.021c0.427 0.688 0.746 1.446 0.937 2.257z" fill="#fff"/></g></g></g></g></svg>
