<?xml version="1.0" encoding="UTF-8"?>
<!-- Created with Inkscape (http://www.inkscape.org/) -->
<svg width="48pt" height="48pt" version="1.1" viewBox="0 0 64 64" xml:space="preserve" xmlns="http://www.w3.org/2000/svg" xmlns:cc="http://creativecommons.org/ns#" xmlns:dc="http://purl.org/dc/elements/1.1/" xmlns:rdf="http://www.w3.org/1999/02/22-rdf-syntax-ns#"><metadata><rdf:RDF><cc:Work rdf:about=""><dc:format>image/svg+xml</dc:format><dc:type rdf:resource="http://purl.org/dc/dcmitype/StillImage"/><dc:title/></cc:Work></rdf:RDF></metadata><defs><clipPath id="clipPath18"><path d="m0 48h48v-48h-48z"/></clipPath><clipPath id="clipPath144"><path d="m11.574 30.823h11.6v5.686h-11.6z"/></clipPath><clipPath id="clipPath232"><path d="m0 48h48v-48h-48z"/></clipPath><clipPath id="clipPath248"><path d="m24.832 14.98h10.172v10.173h-10.172z"/></clipPath><clipPath id="clipPath276"><path d="m0 48h48v-48h-48z"/></clipPath><radialGradient cx="29.5" cy="9" r="15.5" fr="0" gradientTransform="matrix(1 0 0 .12503 0 7.8747)" gradientUnits="userSpaceOnUse"><stop stop-color="#231f20" offset="0"/><stop stop-color="#231f20" offset=".29354"/><stop stop-color="#fff" offset="1"/></radialGradient></defs><g transform="matrix(1.3333 0 0 -1.3333 0 64)"><g transform="matrix(1.2004 0 0 1.2004 -8.4204 -3.647)"><g clip-path="url(#clipPath18)"><g transform="translate(27.234 14.333)"><path d="m0 0c0-2.669-4.415-4.833-9.86-4.833-5.446 0-9.86 2.164-9.86 4.833 0 2.67 4.414 4.834 9.86 4.834 5.445 0 9.86-2.164 9.86-4.834" fill="#fff"/></g><path d="m27.234 34.054h-19.72v-19.721h19.72z" fill="#fff"/><g transform="translate(7.5146,14.333)"><path d="m0 0c0-2.672 4.41-4.833 9.86-4.833" fill="none" stroke="#000" stroke-miterlimit="10"/></g><g transform="translate(27.234 14.333)"><path d="m0 0c0-2.672-4.41-4.833-9.86-4.833" fill="none" stroke="#000" stroke-miterlimit="10"/></g><g transform="translate(7.5146 17.556)"><path d="m0 0c0-2.672 4.41-4.834 9.86-4.834" fill="none" stroke="#000" stroke-miterlimit="10"/></g><g transform="translate(27.234 17.556)"><path d="m0 0c0-2.672-4.41-4.834-9.86-4.834" fill="none" stroke="#000" stroke-miterlimit="10"/></g><g transform="translate(7.5146,14.333)"><path d="m0 0v3.223" fill="none" stroke="#000" stroke-miterlimit="10"/></g><g transform="translate(27.234 14.333)"><path d="m0 0v3.223" fill="none" stroke="#000" stroke-miterlimit="10"/></g><g transform="translate(7.5146 20.777)"><path d="m0 0c0-2.671 4.41-4.833 9.86-4.833" fill="none" stroke="#000" stroke-miterlimit="10"/></g><g transform="translate(27.234 20.777)"><path d="m0 0c0-2.671-4.41-4.833-9.86-4.833" fill="none" stroke="#000" stroke-miterlimit="10"/></g><g transform="translate(7.5146 17.556)"><path d="m0 0v3.222" fill="none" stroke="#000" stroke-miterlimit="10"/></g><g transform="translate(27.234 17.556)"><path d="m0 0v3.222" fill="none" stroke="#000" stroke-miterlimit="10"/></g><g transform="translate(7.5146 24)"><path d="m0 0c0-2.671 4.41-4.833 9.86-4.833" fill="none" stroke="#000" stroke-miterlimit="10"/></g><g transform="translate(27.234 24)"><path d="m0 0c0-2.671-4.41-4.833-9.86-4.833" fill="none" stroke="#000" stroke-miterlimit="10"/></g><g transform="translate(7.5146 20.777)"><path d="m0 0v3.222" fill="none" stroke="#000" stroke-miterlimit="10"/></g><g transform="translate(27.234 20.777)"><path d="m0 0v3.222" fill="none" stroke="#000" stroke-miterlimit="10"/></g><g transform="translate(7.5146 27.222)"><path d="m0 0c0-2.672 4.41-4.833 9.86-4.833" fill="none" stroke="#000" stroke-miterlimit="10"/></g><g transform="translate(27.234 27.222)"><path d="m0 0c0-2.672-4.41-4.833-9.86-4.833" fill="none" stroke="#000" stroke-miterlimit="10"/></g><g transform="translate(7.5146 24)"><path d="m0 0v3.223" fill="none" stroke="#000" stroke-miterlimit="10"/></g><g transform="translate(27.234 24)"><path d="m0 0v3.223" fill="none" stroke="#000" stroke-miterlimit="10"/></g><g transform="translate(7.5146 30.444)"><path d="m0 0c0-2.672 4.41-4.833 9.86-4.833" fill="none" stroke="#000" stroke-miterlimit="10"/></g><g transform="translate(27.234 30.444)"><path d="m0 0c0-2.672-4.41-4.833-9.86-4.833" fill="none" stroke="#000" stroke-miterlimit="10"/></g><g transform="translate(7.5146 27.222)"><path d="m0 0v3.222" fill="none" stroke="#000" stroke-miterlimit="10"/></g><g transform="translate(27.234 27.222)"><path d="m0 0v3.222" fill="none" stroke="#000" stroke-miterlimit="10"/></g><g transform="translate(7.5146 33.666)"><path d="m0 0c0-2.672 4.41-4.833 9.86-4.833" fill="none" stroke="#000" stroke-miterlimit="10" stroke-width=".25"/></g><g transform="translate(27.234 33.666)"><path d="m0 0c0-2.672-4.41-4.833-9.86-4.833" fill="none" stroke="#000" stroke-miterlimit="10" stroke-width=".25"/></g><g transform="translate(7.5146 30.444)"><path d="m0 0v3.222" fill="none" stroke="#000" stroke-miterlimit="10"/></g><g transform="translate(27.234 30.444)"><path d="m0 0v3.222" fill="none" stroke="#000" stroke-miterlimit="10"/></g><g transform="translate(27.234 33.666)"><path d="m0 0c0-2.669-4.415-4.833-9.86-4.833-5.446 0-9.86 2.164-9.86 4.833s4.414 4.833 9.86 4.833c5.445 0 9.86-2.164 9.86-4.833" fill="#fff"/></g><g transform="translate(27.234 33.666)"><path d="m0 0c0-2.669-4.415-4.833-9.86-4.833-5.446 0-9.86 2.164-9.86 4.833s4.414 4.833 9.86 4.833c5.445 0 9.86-2.164 9.86-4.833z" fill="none" stroke="#000" stroke-miterlimit="10"/></g></g></g><g transform="matrix(1.2004 0 0 1.2004 -8.4204 -3.647)"><g clip-path="url(#clipPath144)"><g transform="scale(.58 -.2843)"><g transform="translate(37.698 -118.42)"><path d="m0 0c0 4.275-3.467 7.742-7.742 7.742-4.276 0-7.742-3.467-7.742-7.742 0-4.276 3.466-7.742 7.742-7.742 4.275 0 7.742 3.466 7.742 7.742z" fill="none" stroke="#000" stroke-miterlimit="10" stroke-width="3"/></g></g><g transform="scale(.58 -.2843)"><g transform="translate(34.795 -111.64)"><path d="M 0,0 3.225,3.225 5.16,1.289 1.936,-1.936 C 1.4,-1.188 0.747,-0.535 0,0"/></g></g><g transform="scale(.58 -.2843)"><g transform="translate(25.116 -125.19)"><path d="m0 0-3.225-3.225-1.935 1.936 3.224 3.225c0.535-0.748 1.189-1.401 1.936-1.936"/></g></g><g transform="scale(.58 -.2843)"><g transform="translate(36.731 -123.26)"><path d="m0 0 3.225-3.225-1.936-1.935-3.225 3.224c0.748 0.535 1.401 1.189 1.936 1.936"/></g></g><g transform="scale(.58 -.2843)"><g transform="translate(23.18 -113.58)"><path d="M 0,0 -3.225,3.225 -1.289,5.16 1.936,1.936 C 1.188,1.4 0.535,0.747 0,0"/></g></g></g></g><g transform="matrix(1.2004 0 0 1.2004 -8.4204 -3.647)"><g clip-path="url(#clipPath232)"><g transform="translate(19.351 20.066)"><path d="m0 0c0-5.836 4.731-10.566 10.567-10.566s10.566 4.73 10.566 10.566-4.73 10.567-10.566 10.567-10.567-4.731-10.567-10.567" fill="#fff"/></g><g transform="translate(19.478 20.066)"><path d="m0 0c0-5.766 4.674-10.439 10.44-10.439s10.439 4.673 10.439 10.439-4.673 10.44-10.439 10.44-10.44-4.674-10.44-10.44z" fill="none" stroke="#000" stroke-miterlimit="10"/></g></g></g><g transform="matrix(1.2004 0 0 1.2004 -8.4204 -3.647)"><g clip-path="url(#clipPath248)"><g transform="translate(33.856 20.067)"><path d="m0 0c0-2.174-1.763-3.938-3.938-3.938s-3.937 1.764-3.937 3.938c0 2.175 1.762 3.938 3.937 3.938s3.938-1.763 3.938-3.938z" fill="none" stroke="#000" stroke-miterlimit="10" stroke-width="1.526"/></g><g transform="translate(32.379 16.62)"><path d="M 0,0 1.64,-1.64 2.624,-0.656 0.985,0.985 C 0.712,0.604 0.38,0.272 0,0"/></g><g transform="translate(27.456 23.513)"><path d="m0 0-1.64 1.64-0.984-0.984 1.639-1.641c0.272 0.381 0.605 0.713 0.985 0.985"/></g><g transform="translate(33.364 22.528)"><path d="M 0,0 1.64,1.64 0.656,2.624 -0.985,0.985 C -0.604,0.713 -0.272,0.38 0,0"/></g><g transform="translate(26.472 17.605)"><path d="m 0,0 -1.64,-1.64 0.984,-0.984 1.641,1.639 C 0.604,-0.712 0.272,-0.38 0,0"/></g></g></g><g transform="matrix(1.2004 0 0 1.2004 -8.4204 -3.647)"><g clip-path="url(#clipPath276)"><g transform="translate(40.788 34.812)"><path d="m0 0v-23.625c0-1.203-0.984-2.187-2.188-2.187-1.203 0-2.187 0.984-2.187 2.187v23.625c0 1.203 0.984 2.188 2.187 2.188 1.204 0 2.188-0.985 2.188-2.188" fill="#00ce00"/></g><g transform="translate(40.022 36.484)"><path d="m0 0 6.541-6.541c0.583-0.583 0.583-1.538 0-2.121l-0.973-0.972c-0.583-0.583-1.537-0.583-2.121 0l-6.541 6.541c-0.583 0.583-0.583 1.537 0 2.121l0.973 0.972c0.583 0.583 1.538 0.583 2.121 0" fill="#00ce00"/></g><g transform="translate(30.638 29.944)"><path d="m0 0 6.541 6.541c0.583 0.583 1.538 0.583 2.121 0l0.973-0.973c0.583-0.583 0.583-1.538 0-2.121l-6.541-6.541c-0.583-0.583-1.538-0.583-2.121 0l-0.973 0.973c-0.583 0.583-0.583 1.538 0 2.121" fill="#00ce00"/></g></g></g></g></svg>
