<?xml version="1.0" encoding="UTF-8"?>
<!-- Created with Inkscape (http://www.inkscape.org/) -->
<svg width="48pt" height="48pt" version="1.1" viewBox="0 0 64 64" xml:space="preserve" xmlns="http://www.w3.org/2000/svg" xmlns:cc="http://creativecommons.org/ns#" xmlns:dc="http://purl.org/dc/elements/1.1/" xmlns:rdf="http://www.w3.org/1999/02/22-rdf-syntax-ns#"><metadata><rdf:RDF><cc:Work rdf:about=""><dc:format>image/svg+xml</dc:format><dc:type rdf:resource="http://purl.org/dc/dcmitype/StillImage"/><dc:title/></cc:Work></rdf:RDF></metadata><defs><clipPath id="clipPath18"><path d="m0 48h48v-48h-48z"/></clipPath></defs><g transform="matrix(1.3333 0 0 -1.3333 0 64)"><g transform="matrix(1.5 0 0 1.5 -12 -11.999)" fill="#fff"><g clip-path="url(#clipPath18)" fill="#fff"><g transform="translate(38 33.636)"><path d="m0 0h-28c-1.1 0-2 0.9-2 2s0.9 2 2 2h28c1.1 0 2-0.9 2-2s-0.9-2-2-2" fill="#fff"/></g><g transform="translate(18.727 22)"><path d="m0 0h19.273c1.1 0 2 0.9 2 2s-0.9 2-2 2h-19.273c-1.1 0-2-0.9-2-2s0.9-2 2-2" fill="#fff"/></g><g transform="translate(18.727 10.363)"><path d="m0 0h13.455c1.1 0 2 0.9 2 2 0 1.101-0.9 2-2 2h-13.455c-1.1 0-2-0.899-2-2 0-1.1 0.9-2 2-2" fill="#fff"/></g><path d="m12 22h-4v4h4z"/><path d="m12 10.363h-4v4h4z"/><g transform="translate(40 12.363)"><path d="m0 0-2.327 2v-4z" fill="#fff"/></g></g></g></g></svg>
