<?xml version="1.0" encoding="UTF-8"?>
<!-- Created with Inkscape (http://www.inkscape.org/) -->
<svg width="48pt" height="48pt" version="1.1" viewBox="0 0 64 64" xml:space="preserve" xmlns="http://www.w3.org/2000/svg" xmlns:cc="http://creativecommons.org/ns#" xmlns:dc="http://purl.org/dc/elements/1.1/" xmlns:rdf="http://www.w3.org/1999/02/22-rdf-syntax-ns#"><metadata><rdf:RDF><cc:Work rdf:about=""><dc:format>image/svg+xml</dc:format><dc:type rdf:resource="http://purl.org/dc/dcmitype/StillImage"/><dc:title/></cc:Work></rdf:RDF></metadata><defs><clipPath id="clipPath22"><path d="m0 32h32v-32h-32z"/></clipPath></defs><g transform="matrix(1.3333 0 0 -1.3333 0 64)"><g transform="matrix(2.3999 0 0 2.3999 35.25 38.391)"><path d="m0 0-7.119-12.857-2.795 1.547 7.119 12.858z"/></g><g transform="matrix(2.3999 0 0 2.3999 -14.399 -14.4)"><g clip-path="url(#clipPath22)"><g transform="translate(21.954 24.285)"><path d="m0 0-0.771-1.393-2.794 1.548 0.77 1.393c0.087 0.157 0.285 0.214 0.442 0.127l2.226-1.233c0.157-0.087 0.214-0.285 0.127-0.442"/></g><g transform="translate(10.005 6)"><path d="m0 0 3.254 2.58-2.795 1.548z"/></g></g></g></g></svg>
