<?xml version="1.0" encoding="UTF-8" standalone="no"?>
<!-- Created with Inkscape (http://www.inkscape.org/) -->

<svg
   xmlns:dc="http://purl.org/dc/elements/1.1/"
   xmlns:cc="http://creativecommons.org/ns#"
   xmlns:rdf="http://www.w3.org/1999/02/22-rdf-syntax-ns#"
   xmlns:svg="http://www.w3.org/2000/svg"
   xmlns="http://www.w3.org/2000/svg"
   xmlns:sodipodi="http://sodipodi.sourceforge.net/DTD/sodipodi-0.dtd"
   xmlns:inkscape="http://www.inkscape.org/namespaces/inkscape"
   version="1.1"
   id="svg2"
   xml:space="preserve"
   width="48pt"
   height="48pt"
   viewBox="0 0 64.000006 64.000005"
   sodipodi:docname="Power.svg"
   inkscape:export-filename="/home/damir/Projects/BudgetManager/Icons/PowerIcon32_mdpi.png"
   inkscape:export-xdpi="108"
   inkscape:export-ydpi="108"
   inkscape:version="0.92.2 5c3e80d, 2017-08-06"><metadata
     id="metadata8"><rdf:RDF><cc:Work
         rdf:about=""><dc:format>image/svg+xml</dc:format><dc:type
           rdf:resource="http://purl.org/dc/dcmitype/StillImage" /><dc:title /></cc:Work></rdf:RDF></metadata><defs
     id="defs6"><clipPath
       clipPathUnits="userSpaceOnUse"
       id="clipPath18"><path
         d="M 0,48 H 48 V 0 H 0 Z"
         id="path16"
         inkscape:connector-curvature="0" /></clipPath></defs><sodipodi:namedview
     pagecolor="#ffffff"
     bordercolor="#666666"
     borderopacity="1"
     objecttolerance="10"
     gridtolerance="10"
     guidetolerance="10"
     inkscape:pageopacity="0"
     inkscape:pageshadow="2"
     inkscape:window-width="1920"
     inkscape:window-height="1016"
     id="namedview4"
     showgrid="false"
     units="pt"
     inkscape:zoom="8"
     inkscape:cx="15.858764"
     inkscape:cy="29.662219"
     inkscape:window-x="0"
     inkscape:window-y="27"
     inkscape:window-maximized="1"
     inkscape:current-layer="g10" /><g
     id="g10"
     inkscape:groupmode="layer"
     inkscape:label="PowerIcon"
     transform="matrix(1.3333333,0,0,-1.3333333,0,64.000005)"><g
       id="g12"
       transform="matrix(2.3999278,0,0,2.3999278,-33.598121,-33.59826)"><g
         id="g14"
         clip-path="url(#clipPath18)"><g
           id="g20"
           transform="translate(29.6924,29.7827)"><path
             d="m 0,0 -1.789,-2.132 c 1.309,-1.109 2.141,-2.762 2.141,-4.612 0,-3.338 -2.706,-6.044 -6.044,-6.044 -3.339,0 -6.045,2.706 -6.045,6.044 0,1.85 0.833,3.503 2.142,4.612 l -2.029,2.418 c -0.418,-0.34 -0.801,-0.718 -1.147,-1.13 -3.123,-3.721 -2.497,-9.465 1.387,-12.723 3.883,-3.259 9.648,-2.878 12.77,0.844 C 4.509,-9.001 3.883,-3.258 0,0"
             style="fill:#000000;fill-opacity:1;fill-rule:nonzero;stroke:none"
             id="path22"
             inkscape:connector-curvature="0" /></g><g
           id="g24"
           transform="translate(24,25.7793)"><path
             d="m 0,0 v 0 c -1.027,0 -1.868,0.841 -1.868,1.869 v 4.484 c 0,1.027 0.841,1.868 1.868,1.868 1.027,0 1.868,-0.841 1.868,-1.868 V 1.869 C 1.868,0.841 1.027,0 0,0"
             style="fill:#000000;fill-opacity:1;fill-rule:nonzero;stroke:none"
             id="path26"
             inkscape:connector-curvature="0" /></g></g></g></g></svg>