<?xml version="1.0" encoding="UTF-8"?>
<!-- Created with Inkscape (http://www.inkscape.org/) -->
<svg width="48pt" height="48pt" version="1.1" viewBox="0 0 64 64" xml:space="preserve" xmlns="http://www.w3.org/2000/svg" xmlns:cc="http://creativecommons.org/ns#" xmlns:dc="http://purl.org/dc/elements/1.1/" xmlns:rdf="http://www.w3.org/1999/02/22-rdf-syntax-ns#"><metadata><rdf:RDF><cc:Work rdf:about=""><dc:format>image/svg+xml</dc:format><dc:type rdf:resource="http://purl.org/dc/dcmitype/StillImage"/><dc:title/></cc:Work></rdf:RDF></metadata><defs><clipPath id="clipPath18"><path d="m0 48h48v-48h-48z"/></clipPath></defs><g transform="matrix(1.3333 0 0 -1.3333 0 64)"><g transform="matrix(2.3999 0 0 2.3999 -33.598 -33.345)"><g clip-path="url(#clipPath18)"><g transform="translate(22.359 15.245)"><path d="m0 0c0-0.746 0.605-1.351 1.351-1.351s1.351 0.605 1.351 1.351-0.605 1.351-1.351 1.351-1.351-0.605-1.351-1.351"/></g><g transform="translate(23.71 18.148)"><path d="m0 0c-0.498 0-0.901 0.402-0.901 0.9v5.805c0 0.497 0.403 0.9 0.901 0.9 0.497 0 0.9-0.403 0.9-0.9v-5.805c0-0.498-0.403-0.9-0.9-0.9"/></g><g transform="translate(24 23.967)"><path d="m0 0c-0.497 0-0.9 0.403-0.9 0.901 0 0.497 0.403 0.9 0.9 0.9 1.744 0 3.162 1.419 3.162 3.163 0 0.497 0.402 0.9 0.9 0.9 0.499 0 0.901-0.403 0.901-0.9 0-2.737-2.227-4.964-4.963-4.964"/></g><g transform="translate(28.963 28.931)"><path d="m0 0h-1.801c0 1.744-1.418 3.163-3.162 3.163v1.8c2.736 0 4.963-2.226 4.963-4.963"/></g><g transform="translate(19.937 28.031)"><path d="m0 0c-0.498 0-0.9 0.403-0.9 0.9 0 2.737 2.226 4.964 4.963 4.964 0.497 0 0.9-0.404 0.9-0.901s-0.403-0.9-0.9-0.9c-1.744 0-3.163-1.419-3.163-3.163 0-0.497-0.403-0.9-0.9-0.9"/></g></g></g></g></svg>
