<?xml version="1.0" encoding="UTF-8"?>
<!-- Created with Inkscape (http://www.inkscape.org/) -->
<svg width="48pt" height="48pt" version="1.1" viewBox="0 0 64 64" xml:space="preserve" xmlns="http://www.w3.org/2000/svg" xmlns:cc="http://creativecommons.org/ns#" xmlns:dc="http://purl.org/dc/elements/1.1/" xmlns:rdf="http://www.w3.org/1999/02/22-rdf-syntax-ns#"><metadata><rdf:RDF><cc:Work rdf:about=""><dc:format>image/svg+xml</dc:format><dc:type rdf:resource="http://purl.org/dc/dcmitype/StillImage"/><dc:title/></cc:Work></rdf:RDF></metadata><defs><clipPath id="clipPath18"><path d="m0 48h48v-48h-48z"/></clipPath><clipPath id="clipPath198"><path d="m23.78 15.879h10.216v10.217h-10.216z"/></clipPath><clipPath id="clipPath182"><path d="m0 48h48v-48h-48z"/></clipPath><clipPath id="clipPath144"><path d="m12.577 31.79h11.65v5.71h-11.65z"/></clipPath><clipPath id="clipPath18-2"><path d="m0 48h48v-48h-48z"/></clipPath></defs><g transform="matrix(1.3333 0 0 -1.3333 0 64)"><g transform="matrix(1.3688 0 0 1.3688 -8.8503 -6.8832)"><g clip-path="url(#clipPath18)"><g transform="translate(24 37.029)"><path d="m0 0v-4.115c1.641 0 3.204-0.332 4.626-0.933 1.423-0.602 2.703-1.473 3.778-2.548s1.947-2.356 2.548-3.778 0.934-2.985 0.934-4.626-0.333-3.205-0.934-4.626c-0.601-1.422-1.473-2.704-2.548-3.779s-2.355-1.945-3.778-2.547c-1.422-0.601-2.985-0.934-4.626-0.934s-3.205 0.333-4.626 0.934c-1.422 0.602-2.703 1.472-3.778 2.547-1.076 1.075-1.946 2.357-2.548 3.779-0.601 1.421-0.934 2.985-0.934 4.626h-4.114c0-2.209 0.448-4.314 1.257-6.228 0.81-1.914 1.982-3.639 3.43-5.086 1.447-1.447 3.171-2.619 5.085-3.429 1.915-0.809 4.019-1.257 6.228-1.257s4.313 0.448 6.228 1.257c1.915 0.81 3.638 1.982 5.085 3.429 1.449 1.447 2.62 3.172 3.429 5.086 0.811 1.914 1.258 4.019 1.258 6.228s-0.447 4.313-1.258 6.228c-0.809 1.914-1.98 3.638-3.429 5.085-1.447 1.448-3.17 2.62-5.085 3.429-1.915 0.81-4.019 1.258-6.228 1.258" fill="#ff8f00"/></g><g transform="translate(10.809 36.025)"><path d="m0 0c-1.545-0.58-1.545-1.527 0-2.107l10.382-3.893c1.545-0.58 2.809 0.296 2.809 1.946v6c0 1.651-1.264 2.527-2.809 1.947z" fill="#ff8f00"/></g><g transform="translate(8,21)"><path d="m0 0h4-2z" fill="#ff8f00"/></g><g transform="translate(8 21.03)"><path d="m0 0c0-1.135 0.92-2.056 2.055-2.056s2.055 0.921 2.055 2.056-0.92 2.055-2.055 2.055-2.055-0.92-2.055-2.055" fill="#ff8f00"/></g></g></g><g transform="matrix(.94122 0 0 .94122 10.471 -9.295)"><g clip-path="url(#clipPath18-2)"><g transform="translate(28.305 15.23)"><path d="m0 0c0-2.681-4.434-4.854-9.902-4.854-5.469 0-9.903 2.173-9.903 4.854s4.434 4.854 9.903 4.854c5.468 0 9.902-2.173 9.902-4.854" fill="#fff"/></g><path d="m28.305 35.035h-19.805v-19.805h19.805z" fill="#fff"/><g transform="translate(8.5 15.23)"><path d="m0 0c0-2.684 4.429-4.854 9.902-4.854" fill="none" stroke="#000" stroke-miterlimit="10"/></g><g transform="translate(28.305 15.23)"><path d="m0 0c0-2.684-4.429-4.854-9.902-4.854" fill="none" stroke="#000" stroke-miterlimit="10"/></g><g transform="translate(8.5 18.465)"><path d="m0 0c0-2.683 4.429-4.854 9.902-4.854" fill="none" stroke="#000" stroke-miterlimit="10"/></g><g transform="translate(28.305 18.465)"><path d="m0 0c0-2.683-4.429-4.854-9.902-4.854" fill="none" stroke="#000" stroke-miterlimit="10"/></g><g transform="translate(8.5 15.23)"><path d="m0 0v3.235" fill="none" stroke="#000" stroke-miterlimit="10"/></g><g transform="translate(28.305 15.23)"><path d="m0 0v3.235" fill="none" stroke="#000" stroke-miterlimit="10"/></g><g transform="translate(8.5 21.701)"><path d="m0 0c0-2.683 4.429-4.854 9.902-4.854" fill="none" stroke="#000" stroke-miterlimit="10"/></g><g transform="translate(28.305 21.701)"><path d="m0 0c0-2.683-4.429-4.854-9.902-4.854" fill="none" stroke="#000" stroke-miterlimit="10"/></g><g transform="translate(8.5 18.465)"><path d="m0 0v3.236" fill="none" stroke="#000" stroke-miterlimit="10"/></g><g transform="translate(28.305 18.465)"><path d="m0 0v3.236" fill="none" stroke="#000" stroke-miterlimit="10"/></g><g transform="translate(8.5 24.938)"><path d="m0 0c0-2.684 4.429-4.854 9.902-4.854" fill="none" stroke="#000" stroke-miterlimit="10"/></g><g transform="translate(28.305 24.938)"><path d="m0 0c0-2.684-4.429-4.854-9.902-4.854" fill="none" stroke="#000" stroke-miterlimit="10"/></g><g transform="translate(8.5 21.701)"><path d="m0 0v3.236" fill="none" stroke="#000" stroke-miterlimit="10"/></g><g transform="translate(28.305 21.701)"><path d="m0 0v3.236" fill="none" stroke="#000" stroke-miterlimit="10"/></g><g transform="translate(8.5 28.173)"><path d="m0 0c0-2.683 4.429-4.854 9.902-4.854" fill="none" stroke="#000" stroke-miterlimit="10"/></g><g transform="translate(28.305 28.173)"><path d="m0 0c0-2.683-4.429-4.854-9.902-4.854" fill="none" stroke="#000" stroke-miterlimit="10"/></g><g transform="translate(8.5 24.938)"><path d="m0 0v3.236" fill="none" stroke="#000" stroke-miterlimit="10"/></g><g transform="translate(28.305 24.938)"><path d="m0 0v3.236" fill="none" stroke="#000" stroke-miterlimit="10"/></g><g transform="translate(8.5 31.41)"><path d="m0 0c0-2.683 4.429-4.854 9.902-4.854" fill="none" stroke="#000" stroke-miterlimit="10"/></g><g transform="translate(28.305 31.41)"><path d="m0 0c0-2.683-4.429-4.854-9.902-4.854" fill="none" stroke="#000" stroke-miterlimit="10"/></g><g transform="translate(8.5 28.173)"><path d="m0 0v3.236" fill="none" stroke="#000" stroke-miterlimit="10"/></g><g transform="translate(28.305 28.173)"><path d="m0 0v3.236" fill="none" stroke="#000" stroke-miterlimit="10"/></g><g transform="translate(8.5,34.646)"><path d="m0 0c0-2.683 4.429-4.854 9.902-4.854" fill="none" stroke="#000" stroke-miterlimit="10" stroke-width=".25"/></g><g transform="translate(28.305 34.646)"><path d="m0 0c0-2.683-4.429-4.854-9.902-4.854" fill="none" stroke="#000" stroke-miterlimit="10" stroke-width=".25"/></g><g transform="translate(8.5 31.41)"><path d="m0 0v3.236" fill="none" stroke="#000" stroke-miterlimit="10"/></g><g transform="translate(28.305 31.41)"><path d="m0 0v3.236" fill="none" stroke="#000" stroke-miterlimit="10"/></g><g transform="translate(28.305 34.646)"><path d="m0 0c0-2.681-4.433-4.854-9.902-4.854s-9.903 2.173-9.903 4.854 4.434 4.854 9.903 4.854 9.902-2.173 9.902-4.854" fill="#fff"/></g><g transform="translate(28.305 34.646)"><path d="m0 0c0-2.681-4.433-4.854-9.902-4.854s-9.903 2.173-9.903 4.854 4.434 4.854 9.903 4.854 9.902-2.173 9.902-4.854z" fill="none" stroke="#000" stroke-miterlimit="10"/></g></g></g><g transform="matrix(.94122 0 0 .94122 10.471 -9.295)"><g clip-path="url(#clipPath144)"><g transform="scale(.5825 -.28553)"><g transform="translate(39.334 -121.34)"><path d="m0 0c0 4.275-3.467 7.742-7.742 7.742-4.276 0-7.742-3.467-7.742-7.742 0-4.276 3.466-7.742 7.742-7.742 4.275 0 7.742 3.466 7.742 7.742z" fill="none" stroke="#000" stroke-miterlimit="10" stroke-width="3"/></g></g><g transform="scale(.5825 -.28553)"><g transform="translate(36.432 -114.56)"><path d="M 0,0 3.225,3.225 5.16,1.289 1.936,-1.936 C 1.4,-1.188 0.747,-0.535 0,0"/></g></g><g transform="scale(.5825 -.28553)"><g transform="translate(26.752 -128.11)"><path d="m0 0-3.225-3.225-1.935 1.936 3.224 3.225c0.535-0.748 1.189-1.401 1.936-1.936"/></g></g><g transform="scale(.5825 -.28553)"><g transform="translate(38.368 -126.18)"><path d="m0 0 3.225-3.225-1.936-1.935-3.225 3.224c0.748 0.535 1.401 1.189 1.936 1.936"/></g></g><g transform="scale(.5825 -.28553)"><g transform="translate(24.817 -116.5)"><path d="M 0,0 -3.225,3.225 -1.289,5.16 1.936,1.936 C 1.188,1.4 0.535,0.747 0,0"/></g></g></g></g><g transform="matrix(.94122 0 0 .94122 10.471 -9.295)"><g clip-path="url(#clipPath182)"><g transform="translate(18.275 20.987)"><path d="m0 0c0-5.861 4.751-10.612 10.613-10.612 5.861 0 10.612 4.751 10.612 10.612s-4.751 10.613-10.612 10.613c-5.862 0-10.613-4.752-10.613-10.613" fill="#fff"/></g><g transform="translate(18.402 20.987)"><path d="m0 0c0-5.791 4.694-10.485 10.485-10.485s10.486 4.694 10.486 10.485-4.695 10.485-10.486 10.485-10.485-4.694-10.485-10.485z" fill="none" stroke="#000" stroke-miterlimit="10"/></g></g></g><g transform="matrix(.94122 0 0 .94122 10.471 -9.295)"><g clip-path="url(#clipPath198)"><g transform="translate(32.843 20.987)"><path d="m0 0c0-2.184-1.771-3.955-3.955-3.955s-3.954 1.771-3.954 3.955 1.77 3.955 3.954 3.955 3.955-1.771 3.955-3.955z" fill="none" stroke="#000" stroke-miterlimit="10" stroke-width="1.532"/></g><g transform="translate(31.36 17.526)"><path d="M 0,0 1.647,-1.647 2.636,-0.658 0.989,0.989 C 0.715,0.607 0.382,0.273 0,0"/></g><g transform="translate(26.416 24.448)"><path d="m0 0-1.647 1.647-0.989-0.989 1.647-1.647c0.273 0.382 0.607 0.716 0.989 0.989"/></g><g transform="translate(32.349 23.459)"><path d="M 0,0 1.647,1.647 0.658,2.636 -0.989,0.989 C -0.607,0.716 -0.273,0.382 0,0"/></g><g transform="translate(25.427 18.515)"><path d="m 0,0 -1.647,-1.647 0.989,-0.989 1.647,1.647 C 0.607,-0.715 0.273,-0.382 0,0"/></g></g></g></g></svg>
