<?xml version="1.0" encoding="UTF-8"?>
<!-- Created with Inkscape (http://www.inkscape.org/) -->
<svg width="48pt" height="48pt" version="1.1" viewBox="0 0 64 64" xml:space="preserve" xmlns="http://www.w3.org/2000/svg" xmlns:cc="http://creativecommons.org/ns#" xmlns:dc="http://purl.org/dc/elements/1.1/" xmlns:rdf="http://www.w3.org/1999/02/22-rdf-syntax-ns#"><metadata><rdf:RDF><cc:Work rdf:about=""><dc:format>image/svg+xml</dc:format><dc:type rdf:resource="http://purl.org/dc/dcmitype/StillImage"/><dc:title/></cc:Work></rdf:RDF></metadata><defs><clipPath id="clipPath18"><path d="m0 48h48v-48h-48z"/></clipPath><clipPath id="clipPath18-9"><path d="m0 32h32v-32h-32z"/></clipPath></defs><g transform="matrix(1.3333 0 0 -1.3333 0 64)"><g transform="matrix(1.3688 0 0 1.3688 -8.8503 -6.8832)"><g clip-path="url(#clipPath18)"><g transform="translate(24 37.029)"><path d="m0 0v-4.115c1.641 0 3.204-0.332 4.626-0.933 1.423-0.602 2.703-1.473 3.778-2.548s1.947-2.356 2.548-3.778 0.934-2.985 0.934-4.626-0.333-3.205-0.934-4.626c-0.601-1.422-1.473-2.704-2.548-3.779s-2.355-1.945-3.778-2.547c-1.422-0.601-2.985-0.934-4.626-0.934s-3.205 0.333-4.626 0.934c-1.422 0.602-2.703 1.472-3.778 2.547-1.076 1.075-1.946 2.357-2.548 3.779-0.601 1.421-0.934 2.985-0.934 4.626h-4.114c0-2.209 0.448-4.314 1.257-6.228 0.81-1.914 1.982-3.639 3.43-5.086 1.447-1.447 3.171-2.619 5.085-3.429 1.915-0.809 4.019-1.257 6.228-1.257s4.313 0.448 6.228 1.257c1.915 0.81 3.638 1.982 5.085 3.429 1.449 1.447 2.62 3.172 3.429 5.086 0.811 1.914 1.258 4.019 1.258 6.228s-0.447 4.313-1.258 6.228c-0.809 1.914-1.98 3.638-3.429 5.085-1.447 1.448-3.17 2.62-5.085 3.429-1.915 0.81-4.019 1.258-6.228 1.258" fill="#ff8f00"/></g><g transform="translate(10.809 36.025)"><path d="m0 0c-1.545-0.58-1.545-1.527 0-2.107l10.382-3.893c1.545-0.58 2.809 0.296 2.809 1.946v6c0 1.651-1.264 2.527-2.809 1.947z" fill="#ff8f00"/></g><g transform="translate(8,21)"><path d="m0 0h4-2z" fill="#ff8f00"/></g><g transform="translate(8 21.03)"><path d="m0 0c0-1.135 0.92-2.056 2.055-2.056s2.055 0.921 2.055 2.056-0.92 2.055-2.055 2.055-2.055-0.92-2.055-2.055" fill="#ff8f00"/></g></g></g><rect transform="scale(1,-1)" x="19.627" y="-26.237" width="26.847" height="24.915" fill="#fff" stroke-width=".75"/><g transform="matrix(1.4458 0 0 1.4458 10.049 -7.5902)"><g clip-path="url(#clipPath18-9)"><g transform="translate(23.5,6)"><path d="m0 0h-15c-1.1 0-2 0.9-2 2v14c0 1.1 0.9 2 2 2h15c1.1 0 2-0.9 2-2v-14c0-1.1-0.9-2-2-2z" fill="none" stroke="#000" stroke-miterlimit="10" stroke-width="1.5"/></g><g transform="translate(10 21.589)"><path d="m0 0c-0.373 0-0.679 0.305-0.679 0.679v3.053c0 0.373 0.306 0.679 0.679 0.679s0.679-0.306 0.679-0.679v-3.053c0-0.374-0.306-0.679-0.679-0.679"/></g><g transform="translate(22 21.589)"><path d="m0 0c-0.373 0-0.679 0.305-0.679 0.679v3.053c0 0.373 0.306 0.679 0.679 0.679s0.679-0.306 0.679-0.679v-3.053c0-0.374-0.306-0.679-0.679-0.679"/></g><g><path d="m11.375 12.125h-1.75v1.75h1.75z"/><path d="m18.875 15.625h-1.75v1.75h1.75z"/><path d="m22.375 12.125h-1.75v1.75h1.75z"/><path d="m22.375 15.625h-1.75v1.75h1.75z"/><path d="m15.375 15.625h-1.75v1.75h1.75z"/><path d="m15.375 12.125h-1.75v1.75h1.75z"/><path d="m11.375 8.625h-1.75v1.75h1.75z"/><path d="m15.375 8.625h-1.75v1.75h1.75z"/><path d="m18.875 8.625h-1.75v1.75h1.75z"/><path d="m18.875 12.125h-1.75v1.75h1.75z"/></g><g transform="translate(6.5,19.5)"><path d="m0 0h19" fill="none" stroke="#000" stroke-miterlimit="10" stroke-width="1.5"/></g></g></g><rect transform="scale(1,-1)" x="5.8983" y="-63.763" width="53.492" height="31.525" ry="0" opacity="0" stroke-width=".75"/></g></svg>
