<?xml version="1.0" encoding="UTF-8"?>
<!-- Created with Inkscape (http://www.inkscape.org/) -->
<svg width="48pt" height="48pt" version="1.1" viewBox="0 0 64 64" xml:space="preserve" xmlns="http://www.w3.org/2000/svg" xmlns:cc="http://creativecommons.org/ns#" xmlns:dc="http://purl.org/dc/elements/1.1/" xmlns:rdf="http://www.w3.org/1999/02/22-rdf-syntax-ns#"><metadata><rdf:RDF><cc:Work rdf:about=""><dc:format>image/svg+xml</dc:format><dc:type rdf:resource="http://purl.org/dc/dcmitype/StillImage"/><dc:title/></cc:Work></rdf:RDF></metadata><defs><clipPath id="clipPath18"><path d="m0 48h48v-48h-48z"/></clipPath><clipPath id="clipPath18-0"><path d="m0 32h32v-32h-32z"/></clipPath></defs><g transform="matrix(1.3333 0 0 -1.3333 0 64)"><g transform="matrix(1.3688 0 0 1.3688 -8.8503 -6.8832)"><g clip-path="url(#clipPath18)"><g transform="translate(24 37.029)"><path d="m0 0v-4.115c1.641 0 3.204-0.332 4.626-0.933 1.423-0.602 2.703-1.473 3.778-2.548s1.947-2.356 2.548-3.778 0.934-2.985 0.934-4.626-0.333-3.205-0.934-4.626c-0.601-1.422-1.473-2.704-2.548-3.779s-2.355-1.945-3.778-2.547c-1.422-0.601-2.985-0.934-4.626-0.934s-3.205 0.333-4.626 0.934c-1.422 0.602-2.703 1.472-3.778 2.547-1.076 1.075-1.946 2.357-2.548 3.779-0.601 1.421-0.934 2.985-0.934 4.626h-4.114c0-2.209 0.448-4.314 1.257-6.228 0.81-1.914 1.982-3.639 3.43-5.086 1.447-1.447 3.171-2.619 5.085-3.429 1.915-0.809 4.019-1.257 6.228-1.257s4.313 0.448 6.228 1.257c1.915 0.81 3.638 1.982 5.085 3.429 1.449 1.447 2.62 3.172 3.429 5.086 0.811 1.914 1.258 4.019 1.258 6.228s-0.447 4.313-1.258 6.228c-0.809 1.914-1.98 3.638-3.429 5.085-1.447 1.448-3.17 2.62-5.085 3.429-1.915 0.81-4.019 1.258-6.228 1.258" fill="#ff8f00"/></g><g transform="translate(10.809 36.025)"><path d="m0 0c-1.545-0.58-1.545-1.527 0-2.107l10.382-3.893c1.545-0.58 2.809 0.296 2.809 1.946v6c0 1.651-1.264 2.527-2.809 1.947z" fill="#ff8f00"/></g><g transform="translate(8,21)"><path d="m0 0h4-2z" fill="#ff8f00"/></g><g transform="translate(8 21.03)"><path d="m0 0c0-1.135 0.92-2.056 2.055-2.056s2.055 0.921 2.055 2.056-0.92 2.055-2.055 2.055-2.055-0.92-2.055-2.055" fill="#ff8f00"/></g></g></g><g transform="matrix(1.4999 0 0 1.4999 9.001 -8.999)"><g clip-path="url(#clipPath18-0)"><g transform="translate(23.742 16)"><path d="m0 0c0-4.275-3.467-7.742-7.742-7.742-4.276 0-7.742 3.467-7.742 7.742 0 4.276 3.466 7.742 7.742 7.742 4.275 0 7.742-3.466 7.742-7.742z" fill="none" stroke="#000" stroke-miterlimit="10" stroke-width="3"/></g><g transform="translate(20.84 9.2246)"><path d="M 0,0 3.225,-3.225 5.16,-1.289 1.936,1.936 C 1.4,1.188 0.747,0.535 0,0"/></g><g transform="translate(11.16 22.775)"><path d="m0 0-3.225 3.225-1.935-1.936 3.224-3.225c0.535 0.748 1.189 1.401 1.936 1.936"/></g><g transform="translate(22.775 20.84)"><path d="M 0,0 3.225,3.225 1.289,5.16 -1.936,1.936 C -1.188,1.401 -0.535,0.747 0,0"/></g><g transform="translate(9.2246 11.16)"><path d="m 0,0 -3.225,-3.225 1.936,-1.935 3.225,3.224 C 1.188,-1.4 0.535,-0.747 0,0"/></g></g></g></g></svg>
