<?xml version="1.0" encoding="UTF-8"?>
<!-- Created with Inkscape (http://www.inkscape.org/) -->
<svg width="48pt" height="48pt" version="1.1" viewBox="0 0 64 64" xml:space="preserve" xmlns="http://www.w3.org/2000/svg" xmlns:cc="http://creativecommons.org/ns#" xmlns:dc="http://purl.org/dc/elements/1.1/" xmlns:rdf="http://www.w3.org/1999/02/22-rdf-syntax-ns#"><metadata><rdf:RDF><cc:Work rdf:about=""><dc:format>image/svg+xml</dc:format><dc:type rdf:resource="http://purl.org/dc/dcmitype/StillImage"/><dc:title/></cc:Work></rdf:RDF></metadata><defs><clipPath id="clipPath18"><path d="m0 48h48v-48h-48z"/></clipPath></defs><g transform="matrix(1.3333 0 0 -1.3333 0 64)"><g transform="matrix(1.2 0 0 1.2 -4.8 -4.8)"><g clip-path="url(#clipPath18)"><g transform="translate(44,24)"><path d="m0 0c0-11.046-8.954-20-20-20s-20 8.954-20 20 8.954 20 20 20 20-8.954 20-20" fill="#fff"/></g><g transform="translate(12.188 29.168)"><path d="m0 0h23.625c1.203 0 2.187 0.984 2.187 2.188 0 1.203-0.984 2.187-2.187 2.187h-23.625c-1.203 0-2.188-0.984-2.188-2.187 0-1.204 0.985-2.188 2.188-2.188" fill="#007f0e"/></g><g transform="translate(35.812 13.856)"><path d="m0 0h-23.625c-1.203 0-2.187 0.984-2.187 2.188 0 1.203 0.984 2.187 2.187 2.187h23.625c1.203 0 2.188-0.984 2.188-2.187 0-1.204-0.985-2.188-2.188-2.188" fill="#999"/></g><g transform="translate(10.516 29.934)"><path d="m0 0 6.541-6.541c0.583-0.584 1.538-0.584 2.121 0l0.972 0.973c0.583 0.583 0.583 1.537 0 2.121l-6.541 6.541c-0.583 0.583-1.537 0.583-2.121 0l-0.972-0.973c-0.583-0.583-0.583-1.538 0-2.121" fill="#007f0e"/></g><g transform="translate(17.056 39.318)"><path d="m0 0-6.541-6.541c-0.583-0.583-0.583-1.538 0-2.121l0.973-0.972c0.583-0.584 1.538-0.584 2.121 0l6.541 6.54c0.583 0.584 0.583 1.538 0 2.122l-0.973 0.972c-0.583 0.583-1.538 0.583-2.121 0" fill="#007f0e"/></g><g transform="translate(27.851 20.912)"><path d="m0 0 6.54-6.541c0.584-0.583 1.538-0.583 2.122 0l0.972 0.972c0.584 0.584 0.584 1.538 0 2.122l-6.541 6.54c-0.583 0.584-1.537 0.584-2.121 0l-0.972-0.972c-0.584-0.584-0.584-1.538 0-2.121" fill="#999"/></g></g></g></g></svg>
