<?xml version="1.0" encoding="UTF-8"?>
<!-- Created with Inkscape (http://www.inkscape.org/) -->
<svg width="48pt" height="48pt" version="1.1" viewBox="0 0 64 64" xml:space="preserve" xmlns="http://www.w3.org/2000/svg" xmlns:cc="http://creativecommons.org/ns#" xmlns:dc="http://purl.org/dc/elements/1.1/" xmlns:rdf="http://www.w3.org/1999/02/22-rdf-syntax-ns#"><metadata><rdf:RDF><cc:Work rdf:about=""><dc:format>image/svg+xml</dc:format><dc:type rdf:resource="http://purl.org/dc/dcmitype/StillImage"/><dc:title/></cc:Work></rdf:RDF></metadata><defs><clipPath id="clipPath18"><path d="m0 32h32v-32h-32z"/></clipPath></defs><g transform="matrix(1.3333 0 0 -1.3333 0 64)"><g transform="matrix(2.1689 0 0 2.1689 -9.8906 -10.873)"><g clip-path="url(#clipPath18)"><g transform="translate(18.369 7.4707)"><path d="m0 0c-0.98-0.358-2.034-0.564-3.137-0.564-1.618 0-3.137 0.424-4.459 1.163h-0.088v0.053c-2.758 1.583-4.625 4.553-4.625 7.955 0 5.058 4.114 9.172 9.172 9.172 5.057 0 9.171-4.114 9.171-9.172 0-1.32-0.286-2.572-0.79-3.708l1.333-0.684c0.61 1.342 0.957 2.826 0.957 4.392 0 5.885-4.787 10.672-10.671 10.672s-10.672-4.787-10.672-10.672c0-5.884 4.788-10.671 10.672-10.671 1.092 0 2.145 0.166 3.137 0.472v0.121z"/></g><g transform="translate(15.232 15.078)"><path d="m0 0h4.668c0.553 0 1 0.448 1 1s-0.447 1-1 1h-3.668v-1c0-0.552-0.448-1-1-1"/></g><g transform="translate(15.232 17.078)"><path d="m0 0h1v5.378c0 0.553-0.448 1-1 1s-1-0.447-1-1v-6.378c0 0.552 0.448 1 1 1"/></g><g transform="translate(15.232 15.078)"><path d="m0 0c0.552 0 1 0.448 1 1v1h-1c-0.552 0-1-0.448-1-1s0.448-1 1-1"/></g><g transform="translate(23.233 11.609)"><path d="m0 0-4.014 2.061v-2.919h-7.684v-1.831h7.684v-1.089c1.693 0.822 3.097 2.142 4.014 3.778"/></g><g transform="translate(19.22 6.1865)"><path d="M 0,0 V -0.187 L 7.471,3.648 5.351,4.737 C 4.169,2.605 2.278,0.922 0,0"/></g><g transform="translate(24.57 10.924)"><path d="m0 0-1.337 0.686c-0.917-1.636-2.321-2.957-4.014-3.779v-1.644c2.279 0.922 4.169 2.605 5.351 4.737"/></g><g transform="translate(10.685 8.0693)"><path d="m0 0h0.088c-0.029 0.017-0.058 0.037-0.088 0.054z" fill="#fff"/></g><g transform="translate(23.233 11.609)"><path d="m0 0-4.014 2.061z" fill="#fff"/></g><g transform="translate(26.69 9.835)"><path d="m0 0-2.12 1.089z" fill="#fff"/></g><g transform="translate(23.233 11.609)"><path d="m0 0 1.337-0.686z" fill="#fff"/></g></g></g></g></svg>
