<?xml version="1.0" encoding="UTF-8"?>
<!-- Created with Inkscape (http://www.inkscape.org/) -->
<svg width="48pt" height="48pt" version="1.1" viewBox="0 0 64 64" xml:space="preserve" xmlns="http://www.w3.org/2000/svg" xmlns:cc="http://creativecommons.org/ns#" xmlns:dc="http://purl.org/dc/elements/1.1/" xmlns:rdf="http://www.w3.org/1999/02/22-rdf-syntax-ns#"><metadata><rdf:RDF><cc:Work rdf:about=""><dc:format>image/svg+xml</dc:format><dc:type rdf:resource="http://purl.org/dc/dcmitype/StillImage"/><dc:title/></cc:Work></rdf:RDF></metadata><defs><clipPath id="clipPath18"><path d="m0 48h48v-48h-48z"/></clipPath></defs><g transform="matrix(1.3333 0 0 -1.3333 0 64)"><g transform="matrix(1.5484 0 0 1.5484 -13.162 -13.161)"><g clip-path="url(#clipPath18)"><g transform="translate(35.846 33.077)"><path d="m0 0h-23.691v-21.077c0-1.651 1.35-3 3-3h17.691c1.649 0 3 1.349 3 3z" fill="none" stroke="#000" stroke-miterlimit="10"/></g><g transform="translate(37.913 36.168)"><path d="m0 0h-27.826c-0.138 0-0.25-0.112-0.25-0.25v-2.59c0-0.139 0.112-0.25 0.25-0.25h27.826c0.138 0 0.25 0.111 0.25 0.25v2.59c0 0.138-0.112 0.25-0.25 0.25z" fill="none" stroke="#000" stroke-miterlimit="10"/></g><g transform="translate(26.652 39)"><path d="m0 0h-5.304c-0.489 0-0.889-0.4-0.889-0.889v-1.944h7.082v1.944c0 0.489-0.401 0.889-0.889 0.889z" fill="none" stroke="#000" stroke-miterlimit="10"/></g><g transform="translate(19.043 11.096)"><path d="m0 0v20.101" fill="none" stroke="#000" stroke-miterlimit="10"/></g><g transform="translate(28.957 11.096)"><path d="m0 0v20.101" fill="none" stroke="#000" stroke-miterlimit="10"/></g></g></g></g></svg>
