<?xml version="1.0" encoding="UTF-8"?>
<!-- Created with Inkscape (http://www.inkscape.org/) -->
<svg width="48pt" height="48pt" version="1.1" viewBox="0 0 64 64" xml:space="preserve" xmlns="http://www.w3.org/2000/svg" xmlns:cc="http://creativecommons.org/ns#" xmlns:dc="http://purl.org/dc/elements/1.1/" xmlns:rdf="http://www.w3.org/1999/02/22-rdf-syntax-ns#"><metadata><rdf:RDF><cc:Work rdf:about=""><dc:format>image/svg+xml</dc:format><dc:type rdf:resource="http://purl.org/dc/dcmitype/StillImage"/><dc:title/></cc:Work></rdf:RDF></metadata><defs><clipPath id="clipPath18"><path d="m0 24h24v-24h-24z"/></clipPath></defs><g transform="matrix(1.3333 0 0 -1.3333 0 64)"><g transform="matrix(2.3999 0 0 2.4001 -4.7987 -4.8013)"><g clip-path="url(#clipPath18)"><g transform="translate(12 10.146)"><path d="m0 0c0.232 0 0.465-0.089 0.643-0.267l5.92-5.92c0.123-0.123 0.268-0.141 0.344-0.141s0.222 0.018 0.343 0.141l0.79 0.79c0.123 0.122 0.142 0.267 0.142 0.343s-0.019 0.222-0.142 0.344l-5.92 5.921c-0.355 0.355-0.355 0.93 0 1.285l5.92 5.921c0.123 0.123 0.142 0.269 0.142 0.344 0 0.076-0.019 0.221-0.142 0.344l-0.789 0.79c-0.122 0.122-0.268 0.14-0.344 0.14s-0.221-0.018-0.344-0.141l-5.92-5.92c-0.355-0.355-0.931-0.355-1.286 0l-5.92 5.921c-0.187 0.186-0.502 0.187-0.689 0l-0.789-0.79c-0.187-0.186-0.187-0.502 0-0.688l5.92-5.921c0.356-0.355 0.356-0.93 0-1.285l-5.92-5.921c-0.123-0.122-0.141-0.268-0.141-0.344s0.018-0.221 0.141-0.343l0.789-0.79c0.123-0.123 0.269-0.141 0.344-0.141 0.076 0 0.222 0.018 0.344 0.141l5.921 5.92c0.178 0.178 0.411 0.267 0.643 0.267m6.907-8.146c-0.616 0-1.195 0.24-1.63 0.673l-5.277 5.279-5.278-5.279c-0.867-0.868-2.389-0.869-3.26 0l-0.789 0.789c-0.434 0.435-0.673 1.013-0.673 1.63s0.239 1.195 0.673 1.63l5.278 5.278-5.278 5.277c-0.898 0.899-0.898 2.361 0 3.26l0.79 0.789c0.899 0.898 2.361 0.898 3.259 0l5.278-5.278 5.277 5.278c0.87 0.869 2.392 0.868 3.26 0l0.789-0.789c0.434-0.434 0.674-1.013 0.674-1.63s-0.24-1.196-0.674-1.63l-5.278-5.277 5.278-5.278c0.434-0.434 0.674-1.013 0.674-1.63s-0.24-1.196-0.675-1.631l-0.788-0.788c-0.433-0.433-1.013-0.673-1.63-0.673" fill="#f00"/></g></g></g></g></svg>
