<?xml version="1.0" encoding="UTF-8" standalone="no"?>
<!-- Created with Inkscape (http://www.inkscape.org/) -->

<svg
   xmlns:dc="http://purl.org/dc/elements/1.1/"
   xmlns:cc="http://creativecommons.org/ns#"
   xmlns:rdf="http://www.w3.org/1999/02/22-rdf-syntax-ns#"
   xmlns:svg="http://www.w3.org/2000/svg"
   xmlns="http://www.w3.org/2000/svg"
   xmlns:sodipodi="http://sodipodi.sourceforge.net/DTD/sodipodi-0.dtd"
   xmlns:inkscape="http://www.inkscape.org/namespaces/inkscape"
   version="1.1"
   id="svg2"
   xml:space="preserve"
   width="48pt"
   height="48pt"
   viewBox="0 0 64 64"
   sodipodi:docname="Alert.svg"
   inkscape:version="0.92.2 5c3e80d, 2017-08-06"><metadata
     id="metadata8"><rdf:RDF><cc:Work
         rdf:about=""><dc:format>image/svg+xml</dc:format><dc:type
           rdf:resource="http://purl.org/dc/dcmitype/StillImage" /><dc:title></dc:title></cc:Work></rdf:RDF></metadata><defs
     id="defs6"><clipPath
       clipPathUnits="userSpaceOnUse"
       id="clipPath18"><path
         d="M 0,48 H 48 V 0 H 0 Z"
         id="path16"
         inkscape:connector-curvature="0" /></clipPath></defs><sodipodi:namedview
     pagecolor="#ffffff"
     bordercolor="#666666"
     borderopacity="1"
     objecttolerance="10"
     gridtolerance="10"
     guidetolerance="10"
     inkscape:pageopacity="0"
     inkscape:pageshadow="2"
     inkscape:window-width="1920"
     inkscape:window-height="1016"
     id="namedview4"
     showgrid="false"
     inkscape:document-units="pt"
     units="pt"
     inkscape:zoom="3.6875"
     inkscape:cx="32.542373"
     inkscape:cy="42.847458"
     inkscape:window-x="0"
     inkscape:window-y="27"
     inkscape:window-maximized="1"
     inkscape:current-layer="g10" /><g
     id="g10"
     inkscape:groupmode="layer"
     inkscape:label="Alert"
     transform="matrix(1.3333333,0,0,-1.3333333,0,64)"><g
       id="g12"
       transform="matrix(2.0123677,0,0,2.0123677,-24.297227,-24.18061)"><g
         id="g14"
         clip-path="url(#clipPath18)"><g
           id="g20"
           transform="translate(21.3052,34.187)"><path
             d="m 0,0 -8.733,-17.853 c -0.975,-1.993 0.476,-4.318 2.695,-4.318 h 17.466 c 2.219,0 3.67,2.325 2.695,4.318 L 5.39,0 C 4.292,2.242 1.097,2.242 0,0"
             style="fill:#fbd13b;fill-opacity:1;fill-rule:nonzero;stroke:none"
             id="path22"
             inkscape:connector-curvature="0" /></g><g
           id="g24"
           transform="translate(22.585,16.9219)"><path
             d="m 0,0 c 0,-0.798 0.646,-1.444 1.444,-1.444 0.797,0 1.444,0.646 1.444,1.444 0,0.797 -0.647,1.443 -1.444,1.443 C 0.646,1.443 0,0.797 0,0"
             style="fill:#000000;fill-opacity:1;fill-rule:nonzero;stroke:none"
             id="path26"
             inkscape:connector-curvature="0" /></g><g
           id="g28"
           transform="translate(23.9355,19.8096)"><path
             d="m 0,0 h 0.186 c 0.425,0 0.773,0.348 0.773,0.773 v 6.539 c 0,0.426 -0.348,0.773 -0.773,0.773 L 0,8.085 c -0.425,0 -0.773,-0.347 -0.773,-0.773 V 0.773 C -0.773,0.348 -0.425,0 0,0"
             style="fill:#000000;fill-opacity:1;fill-rule:nonzero;stroke:none"
             id="path30"
             inkscape:connector-curvature="0" /></g></g></g></g></svg>