<?xml version="1.0" encoding="UTF-8" standalone="no"?>
<!-- Created with Inkscape (http://www.inkscape.org/) -->

<svg
   xmlns:dc="http://purl.org/dc/elements/1.1/"
   xmlns:cc="http://creativecommons.org/ns#"
   xmlns:rdf="http://www.w3.org/1999/02/22-rdf-syntax-ns#"
   xmlns:svg="http://www.w3.org/2000/svg"
   xmlns="http://www.w3.org/2000/svg"
   xmlns:sodipodi="http://sodipodi.sourceforge.net/DTD/sodipodi-0.dtd"
   xmlns:inkscape="http://www.inkscape.org/namespaces/inkscape"
   version="1.1"
   id="svg2"
   xml:space="preserve"
   width="48pt"
   height="48pt"
   viewBox="0 0 64.000002 64.000002"
   sodipodi:docname="Category.svg"
   inkscape:version="0.92.2 5c3e80d, 2017-08-06"><metadata
     id="metadata8"><rdf:RDF><cc:Work
         rdf:about=""><dc:format>image/svg+xml</dc:format><dc:type
           rdf:resource="http://purl.org/dc/dcmitype/StillImage" /><dc:title></dc:title></cc:Work></rdf:RDF></metadata><defs
     id="defs6"><clipPath
       clipPathUnits="userSpaceOnUse"
       id="clipPath18"><path
         d="M 0,32 H 32 V 0 H 0 Z"
         id="path16"
         inkscape:connector-curvature="0" /></clipPath></defs><sodipodi:namedview
     pagecolor="#ffffff"
     bordercolor="#666666"
     borderopacity="1"
     objecttolerance="10"
     gridtolerance="10"
     guidetolerance="10"
     inkscape:pageopacity="0"
     inkscape:pageshadow="2"
     inkscape:window-width="1920"
     inkscape:window-height="1016"
     id="namedview4"
     showgrid="false"
     units="pt"
     inkscape:document-units="pt"
     inkscape:zoom="7.8223685"
     inkscape:cx="16.966043"
     inkscape:cy="24.41747"
     inkscape:window-x="0"
     inkscape:window-y="27"
     inkscape:window-maximized="1"
     inkscape:current-layer="g10" /><g
     id="g10"
     inkscape:groupmode="layer"
     inkscape:label="Category"
     transform="matrix(1.3333333,0,0,-1.3333333,0,64.000001)"><g
       id="g4579"><rect
         transform="matrix(-0.70710678,0.70710678,0.70710678,0.70710678,0,0)"
         y="24.424923"
         x="-19.123709"
         height="18.169495"
         width="27.796614"
         id="rect4575"
         style="opacity:0.98;fill:#ffffff;fill-opacity:1;stroke-width:0.75000006" /><ellipse
         ry="9.0126162"
         rx="8.4373426"
         transform="scale(1,-1)"
         cy="-36.81356"
         cx="9.2881365"
         id="path4573"
         style="opacity:0.98;fill:#ffffff;fill-opacity:1;stroke-width:0.75000006" /></g><g
       id="g12"
       transform="matrix(2.4000001,0,0,2.4000001,-14.39976,-14.399521)"><g
         id="g14"
         clip-path="url(#clipPath18)"><g
           id="g20"
           transform="translate(18.6709,8.4238)"><path
             d="m 0,0 -7.415,7.415 1.203,1.203 7.414,-7.415 z m -11.421,12.993 c 0,1.611 1.306,2.917 2.917,2.917 1.61,0 2.917,-1.306 2.917,-2.917 0,-1.611 -1.307,-2.917 -2.917,-2.917 -1.611,0 -2.917,1.306 -2.917,2.917 M -2.879,11.535 1.079,7.576 -0.124,6.373 -4.082,10.332 Z M -5.6,17.576 h -7.071 V 10.505 L 0.258,-2.424 h 0.166 l 6.905,6.905 v 0.166 z"
             style="fill:#000000;fill-opacity:1;fill-rule:nonzero;stroke:none"
             id="path22"
             inkscape:connector-curvature="0" /></g></g></g></g></svg>