<?xml version="1.0" encoding="UTF-8" standalone="no"?>
<!-- Created with Inkscape (http://www.inkscape.org/) -->

<svg
   xmlns:dc="http://purl.org/dc/elements/1.1/"
   xmlns:cc="http://creativecommons.org/ns#"
   xmlns:rdf="http://www.w3.org/1999/02/22-rdf-syntax-ns#"
   xmlns:svg="http://www.w3.org/2000/svg"
   xmlns="http://www.w3.org/2000/svg"
   xmlns:sodipodi="http://sodipodi.sourceforge.net/DTD/sodipodi-0.dtd"
   xmlns:inkscape="http://www.inkscape.org/namespaces/inkscape"
   version="1.1"
   id="svg2"
   xml:space="preserve"
   width="48pt"
   height="48pt"
   viewBox="0 0 64 64"
   sodipodi:docname="CheckMark.svg"
   inkscape:version="0.92.2 5c3e80d, 2017-08-06"><metadata
     id="metadata8"><rdf:RDF><cc:Work
         rdf:about=""><dc:format>image/svg+xml</dc:format><dc:type
           rdf:resource="http://purl.org/dc/dcmitype/StillImage" /><dc:title></dc:title></cc:Work></rdf:RDF></metadata><defs
     id="defs6"><clipPath
       clipPathUnits="userSpaceOnUse"
       id="clipPath18"><path
         d="M 0,24 H 24 V 0 H 0 Z"
         id="path16"
         inkscape:connector-curvature="0" /></clipPath></defs><sodipodi:namedview
     pagecolor="#ffffff"
     bordercolor="#666666"
     borderopacity="1"
     objecttolerance="10"
     gridtolerance="10"
     guidetolerance="10"
     inkscape:pageopacity="0"
     inkscape:pageshadow="2"
     inkscape:window-width="1920"
     inkscape:window-height="1016"
     id="namedview4"
     showgrid="false"
     inkscape:document-units="pt"
     units="pt"
     inkscape:zoom="7.375"
     inkscape:cx="16.271186"
     inkscape:cy="26.847458"
     inkscape:window-x="0"
     inkscape:window-y="27"
     inkscape:window-maximized="1"
     inkscape:current-layer="g10" /><g
     id="g10"
     inkscape:groupmode="layer"
     inkscape:label="CheckMark"
     transform="matrix(1.3333333,0,0,-1.3333333,0,64)"><g
       id="g12"
       transform="matrix(2.4000121,0,0,2.4000121,-4.8001446,-4.7995446)"><g
         id="g14"
         clip-path="url(#clipPath18)"><g
           id="g20"
           transform="translate(7.7173,4.2598)"><path
             d="M 0,0 C 0,-0.624 0.253,-1.188 0.662,-1.598 1.071,-2.007 1.636,-2.26 2.26,-2.26 c 0.624,0 1.189,0.253 1.598,0.662 C 4.267,-1.188 4.52,-0.624 4.52,0 4.52,0.625 4.267,1.189 3.858,1.599 3.449,2.008 2.884,2.261 2.26,2.261 1.636,2.261 1.071,2.008 0.662,1.599 0.253,1.189 0,0.625 0,0"
             style="fill:#88d11a;fill-opacity:1;fill-rule:nonzero;stroke:none"
             id="path22"
             inkscape:connector-curvature="0" /></g><g
           id="g24"
           transform="translate(16.8701,19.7397)"><path
             d="m 0,0 c 0,-1.248 1.013,-2.26 2.261,-2.26 1.248,0 2.26,1.012 2.26,2.26 0,1.249 -1.012,2.26 -2.26,2.26 C 1.013,2.26 0,1.249 0,0"
             style="fill:#88d11a;fill-opacity:1;fill-rule:nonzero;stroke:none"
             id="path26"
             inkscape:connector-curvature="0" /></g><g
           id="g28"
           transform="translate(2.6089,10.8262)"><path
             d="m 0,0 c 0,-1.248 1.012,-2.26 2.26,-2.26 1.249,0 2.261,1.012 2.261,2.26 0,1.249 -1.012,2.26 -2.261,2.26 C 1.012,2.26 0,1.249 0,0"
             style="fill:#88d11a;fill-opacity:1;fill-rule:nonzero;stroke:none"
             id="path30"
             inkscape:connector-curvature="0" /></g><g
           id="g32"
           transform="translate(4.8691,10.8262)"><path
             d="M 0,0 5.107,-6.566"
             style="fill:#88d11a;fill-opacity:1;fill-rule:nonzero;stroke:none"
             id="path34"
             inkscape:connector-curvature="0" /></g><g
           id="g36"
           transform="translate(8.1924,2.8721)"><path
             d="M 0,0 -5.107,6.566 -1.539,9.341 3.568,2.775 Z"
             style="fill:#88d11a;fill-opacity:1;fill-rule:nonzero;stroke:none"
             id="path38"
             inkscape:connector-curvature="0" /></g><g
           id="g40"
           transform="translate(9.9771,4.2598)"><path
             d="M 0,0 9.154,15.48"
             style="fill:#88d11a;fill-opacity:1;fill-rule:nonzero;stroke:none"
             id="path42"
             inkscape:connector-curvature="0" /></g><g
           id="g44"
           transform="translate(11.9229,3.1094)"><path
             d="M 0,0 -3.891,2.302 5.263,17.781 9.153,15.48 Z"
             style="fill:#88d11a;fill-opacity:1;fill-rule:nonzero;stroke:none"
             id="path46"
             inkscape:connector-curvature="0" /></g></g></g></g></svg>