<?xml version="1.0" encoding="UTF-8" standalone="no"?>
<!-- Created with Inkscape (http://www.inkscape.org/) -->

<svg
   xmlns:dc="http://purl.org/dc/elements/1.1/"
   xmlns:cc="http://creativecommons.org/ns#"
   xmlns:rdf="http://www.w3.org/1999/02/22-rdf-syntax-ns#"
   xmlns:svg="http://www.w3.org/2000/svg"
   xmlns="http://www.w3.org/2000/svg"
   xmlns:sodipodi="http://sodipodi.sourceforge.net/DTD/sodipodi-0.dtd"
   xmlns:inkscape="http://www.inkscape.org/namespaces/inkscape"
   width="48pt"
   height="48pt"
   version="1.1"
   viewBox="0 0 64 64"
   xml:space="preserve"
   id="svg264"
   sodipodi:docname="Consumption.svg"
   inkscape:version="0.92.2 5c3e80d, 2017-08-06"><sodipodi:namedview
     pagecolor="#ffffff"
     bordercolor="#666666"
     borderopacity="1"
     objecttolerance="10"
     gridtolerance="10"
     guidetolerance="10"
     inkscape:pageopacity="0"
     inkscape:pageshadow="2"
     inkscape:window-width="1920"
     inkscape:window-height="1016"
     id="namedview266"
     showgrid="false"
     inkscape:zoom="5.2149125"
     inkscape:cx="-0.72374907"
     inkscape:cy="28.117368"
     inkscape:window-x="0"
     inkscape:window-y="27"
     inkscape:window-maximized="1"
     inkscape:current-layer="g262" /><metadata
     id="metadata2"><rdf:RDF><cc:Work
         rdf:about=""><dc:format>image/svg+xml</dc:format><dc:type
           rdf:resource="http://purl.org/dc/dcmitype/StillImage" /><dc:title></dc:title></cc:Work></rdf:RDF></metadata><defs
     id="defs44"><clipPath
       id="clipPath18"><path
         d="m0 48h48v-48h-48z"
         id="path4" /></clipPath><clipPath
       id="clipPath144"><path
         d="m11.574 30.823h11.6v5.686h-11.6z"
         id="path7" /></clipPath><clipPath
       id="clipPath182"><path
         d="m13.999 9c0-1.07 6.94-1.938 15.501-1.938 8.559 0 15.5 0.868 15.5 1.938 0 1.069-6.941 1.938-15.5 1.938-8.561 0-15.501-0.869-15.501-1.938"
         id="path10" /></clipPath><clipPath
       id="clipPath190"><path
         d="m-32768 32767h65535v-65535h-65535z"
         id="path13" /></clipPath><radialGradient
       id="radialGradient198"
       cx="0"
       cy="0"
       r="1"
       gradientTransform="matrix(11.045 0 0 -1.3807 29.5 8.9998)"
       gradientUnits="userSpaceOnUse"><stop
         stop-color="#fff"
         offset="0"
         id="stop16" /><stop
         stop-color="#fff"
         offset=".29354"
         id="stop18" /><stop
         stop-color="#fff"
         stop-opacity="0"
         offset="1"
         id="stop20" /></radialGradient><mask
       id="mask200"
       x="0"
       y="0"
       width="1"
       height="1"
       maskUnits="userSpaceOnUse"><g
         clip-path="url(#clipPath190)"
         id="g25"><path
           d="m-32768 32767h65535v-65535h-65535z"
           fill="url(#radialGradient198)"
           id="path23" /></g></mask><clipPath
       id="clipPath232"><path
         d="m0 48h48v-48h-48z"
         id="path28" /></clipPath><clipPath
       id="clipPath248"><path
         d="m24.832 14.98h10.172v10.173h-10.172z"
         id="path31" /></clipPath><clipPath
       id="clipPath276"><path
         d="m0 48h48v-48h-48z"
         id="path34" /></clipPath><radialGradient
       id="radialGradient1079"
       cx="29.5"
       cy="9"
       r="15.5"
       gradientTransform="matrix(1 0 0 .12503 0 7.8747)"
       gradientUnits="userSpaceOnUse"><stop
         stop-color="#231f20"
         offset="0"
         id="stop37" /><stop
         stop-color="#231f20"
         offset=".29354"
         id="stop39" /><stop
         stop-color="#fff"
         offset="1"
         id="stop41" /></radialGradient></defs><g
     transform="matrix(1.3333 0 0 -1.3333 0 64)"
     id="g262"><g
       transform="matrix(1.2004 0 0 1.2004 -8.4204 -3.647)"
       id="g166"><g
         clip-path="url(#clipPath18)"
         id="g164"><g
           transform="translate(27.234 14.333)"
           id="g48"><path
             d="m0 0c0-2.669-4.415-4.833-9.86-4.833-5.446 0-9.86 2.164-9.86 4.833 0 2.67 4.414 4.834 9.86 4.834 5.445 0 9.86-2.164 9.86-4.834"
             fill="#fff"
             id="path46" /></g><path
           d="m27.234 34.054h-19.72v-19.721h19.72z"
           fill="#fff"
           id="path50" /><g
           transform="translate(7.5146,14.333)"
           id="g54"><path
             d="m0 0c0-2.672 4.41-4.833 9.86-4.833"
             fill="none"
             stroke="#000"
             stroke-miterlimit="10"
             id="path52" /></g><g
           transform="translate(27.234 14.333)"
           id="g58"><path
             d="m0 0c0-2.672-4.41-4.833-9.86-4.833"
             fill="none"
             stroke="#000"
             stroke-miterlimit="10"
             id="path56" /></g><g
           transform="translate(7.5146 17.556)"
           id="g62"><path
             d="m0 0c0-2.672 4.41-4.834 9.86-4.834"
             fill="none"
             stroke="#000"
             stroke-miterlimit="10"
             id="path60" /></g><g
           transform="translate(27.234 17.556)"
           id="g66"><path
             d="m0 0c0-2.672-4.41-4.834-9.86-4.834"
             fill="none"
             stroke="#000"
             stroke-miterlimit="10"
             id="path64" /></g><g
           transform="translate(7.5146,14.333)"
           id="g70"><path
             d="m0 0v3.223"
             fill="none"
             stroke="#000"
             stroke-miterlimit="10"
             id="path68" /></g><g
           transform="translate(27.234 14.333)"
           id="g74"><path
             d="m0 0v3.223"
             fill="none"
             stroke="#000"
             stroke-miterlimit="10"
             id="path72" /></g><g
           transform="translate(7.5146 20.777)"
           id="g78"><path
             d="m0 0c0-2.671 4.41-4.833 9.86-4.833"
             fill="none"
             stroke="#000"
             stroke-miterlimit="10"
             id="path76" /></g><g
           transform="translate(27.234 20.777)"
           id="g82"><path
             d="m0 0c0-2.671-4.41-4.833-9.86-4.833"
             fill="none"
             stroke="#000"
             stroke-miterlimit="10"
             id="path80" /></g><g
           transform="translate(7.5146 17.556)"
           id="g86"><path
             d="m0 0v3.222"
             fill="none"
             stroke="#000"
             stroke-miterlimit="10"
             id="path84" /></g><g
           transform="translate(27.234 17.556)"
           id="g90"><path
             d="m0 0v3.222"
             fill="none"
             stroke="#000"
             stroke-miterlimit="10"
             id="path88" /></g><g
           transform="translate(7.5146 24)"
           id="g94"><path
             d="m0 0c0-2.671 4.41-4.833 9.86-4.833"
             fill="none"
             stroke="#000"
             stroke-miterlimit="10"
             id="path92" /></g><g
           transform="translate(27.234 24)"
           id="g98"><path
             d="m0 0c0-2.671-4.41-4.833-9.86-4.833"
             fill="none"
             stroke="#000"
             stroke-miterlimit="10"
             id="path96" /></g><g
           transform="translate(7.5146 20.777)"
           id="g102"><path
             d="m0 0v3.222"
             fill="none"
             stroke="#000"
             stroke-miterlimit="10"
             id="path100" /></g><g
           transform="translate(27.234 20.777)"
           id="g106"><path
             d="m0 0v3.222"
             fill="none"
             stroke="#000"
             stroke-miterlimit="10"
             id="path104" /></g><g
           transform="translate(7.5146 27.222)"
           id="g110"><path
             d="m0 0c0-2.672 4.41-4.833 9.86-4.833"
             fill="none"
             stroke="#000"
             stroke-miterlimit="10"
             id="path108" /></g><g
           transform="translate(27.234 27.222)"
           id="g114"><path
             d="m0 0c0-2.672-4.41-4.833-9.86-4.833"
             fill="none"
             stroke="#000"
             stroke-miterlimit="10"
             id="path112" /></g><g
           transform="translate(7.5146 24)"
           id="g118"><path
             d="m0 0v3.223"
             fill="none"
             stroke="#000"
             stroke-miterlimit="10"
             id="path116" /></g><g
           transform="translate(27.234 24)"
           id="g122"><path
             d="m0 0v3.223"
             fill="none"
             stroke="#000"
             stroke-miterlimit="10"
             id="path120" /></g><g
           transform="translate(7.5146 30.444)"
           id="g126"><path
             d="m0 0c0-2.672 4.41-4.833 9.86-4.833"
             fill="none"
             stroke="#000"
             stroke-miterlimit="10"
             id="path124" /></g><g
           transform="translate(27.234 30.444)"
           id="g130"><path
             d="m0 0c0-2.672-4.41-4.833-9.86-4.833"
             fill="none"
             stroke="#000"
             stroke-miterlimit="10"
             id="path128" /></g><g
           transform="translate(7.5146 27.222)"
           id="g134"><path
             d="m0 0v3.222"
             fill="none"
             stroke="#000"
             stroke-miterlimit="10"
             id="path132" /></g><g
           transform="translate(27.234 27.222)"
           id="g138"><path
             d="m0 0v3.222"
             fill="none"
             stroke="#000"
             stroke-miterlimit="10"
             id="path136" /></g><g
           transform="translate(7.5146 33.666)"
           id="g142"><path
             d="m0 0c0-2.672 4.41-4.833 9.86-4.833"
             fill="none"
             stroke="#000"
             stroke-miterlimit="10"
             stroke-width=".25"
             id="path140" /></g><g
           transform="translate(27.234 33.666)"
           id="g146"><path
             d="m0 0c0-2.672-4.41-4.833-9.86-4.833"
             fill="none"
             stroke="#000"
             stroke-miterlimit="10"
             stroke-width=".25"
             id="path144" /></g><g
           transform="translate(7.5146 30.444)"
           id="g150"><path
             d="m0 0v3.222"
             fill="none"
             stroke="#000"
             stroke-miterlimit="10"
             id="path148" /></g><g
           transform="translate(27.234 30.444)"
           id="g154"><path
             d="m0 0v3.222"
             fill="none"
             stroke="#000"
             stroke-miterlimit="10"
             id="path152" /></g><g
           transform="translate(27.234 33.666)"
           id="g158"><path
             d="m0 0c0-2.669-4.415-4.833-9.86-4.833-5.446 0-9.86 2.164-9.86 4.833s4.414 4.833 9.86 4.833c5.445 0 9.86-2.164 9.86-4.833"
             fill="#fff"
             id="path156" /></g><g
           transform="translate(27.234 33.666)"
           id="g162"><path
             d="m0 0c0-2.669-4.415-4.833-9.86-4.833-5.446 0-9.86 2.164-9.86 4.833s4.414 4.833 9.86 4.833c5.445 0 9.86-2.164 9.86-4.833z"
             fill="none"
             stroke="#000"
             stroke-miterlimit="10"
             id="path160" /></g></g></g><g
       transform="matrix(1.2004 0 0 1.2004 -8.4204 -3.647)"
       id="g200"><g
         clip-path="url(#clipPath144)"
         id="g198"><g
           transform="scale(.58 -.2843)"
           id="g172"><g
             transform="translate(37.698 -118.42)"
             id="g170"><path
               d="m0 0c0 4.275-3.467 7.742-7.742 7.742-4.276 0-7.742-3.467-7.742-7.742 0-4.276 3.466-7.742 7.742-7.742 4.275 0 7.742 3.466 7.742 7.742z"
               fill="none"
               stroke="#000"
               stroke-miterlimit="10"
               stroke-width="3"
               id="path168" /></g></g><g
           transform="scale(.58 -.2843)"
           id="g178"><g
             transform="translate(34.795 -111.64)"
             id="g176"><path
               d="M 0,0 3.225,3.225 5.16,1.289 1.936,-1.936 C 1.4,-1.188 0.747,-0.535 0,0"
               id="path174" /></g></g><g
           transform="scale(.58 -.2843)"
           id="g184"><g
             transform="translate(25.116 -125.19)"
             id="g182"><path
               d="m0 0-3.225-3.225-1.935 1.936 3.224 3.225c0.535-0.748 1.189-1.401 1.936-1.936"
               id="path180" /></g></g><g
           transform="scale(.58 -.2843)"
           id="g190"><g
             transform="translate(36.731 -123.26)"
             id="g188"><path
               d="m0 0 3.225-3.225-1.936-1.935-3.225 3.224c0.748 0.535 1.401 1.189 1.936 1.936"
               id="path186" /></g></g><g
           transform="scale(.58 -.2843)"
           id="g196"><g
             transform="translate(23.18 -113.58)"
             id="g194"><path
               d="M 0,0 -3.225,3.225 -1.289,5.16 1.936,1.936 C 1.188,1.4 0.535,0.747 0,0"
               id="path192" /></g></g></g></g><g
       transform="matrix(1.2004 0 0 1.2004 -8.4204 -3.647)"
       id="g220"><g
         clip-path="url(#clipPath232)"
         id="g218"><g
           transform="translate(19.351 20.066)"
           id="g212"><path
             d="m0 0c0-5.836 4.731-10.566 10.567-10.566s10.566 4.73 10.566 10.566-4.73 10.567-10.566 10.567-10.567-4.731-10.567-10.567"
             fill="#fff"
             id="path210" /></g><g
           transform="translate(19.478 20.066)"
           id="g216"><path
             d="m0 0c0-5.766 4.674-10.439 10.44-10.439s10.439 4.673 10.439 10.439-4.673 10.44-10.439 10.44-10.44-4.674-10.44-10.44z"
             fill="none"
             stroke="#000"
             stroke-miterlimit="10"
             id="path214" /></g></g></g><g
       transform="matrix(1.2004 0 0 1.2004 -8.4204 -3.647)"
       id="g244"><g
         clip-path="url(#clipPath248)"
         id="g242"><g
           transform="translate(33.856 20.067)"
           id="g224"><path
             d="m0 0c0-2.174-1.763-3.938-3.938-3.938s-3.937 1.764-3.937 3.938c0 2.175 1.762 3.938 3.937 3.938s3.938-1.763 3.938-3.938z"
             fill="none"
             stroke="#000"
             stroke-miterlimit="10"
             stroke-width="1.526"
             id="path222" /></g><g
           transform="translate(32.379 16.62)"
           id="g228"><path
             d="M 0,0 1.64,-1.64 2.624,-0.656 0.985,0.985 C 0.712,0.604 0.38,0.272 0,0"
             id="path226" /></g><g
           transform="translate(27.456 23.513)"
           id="g232"><path
             d="m0 0-1.64 1.64-0.984-0.984 1.639-1.641c0.272 0.381 0.605 0.713 0.985 0.985"
             id="path230" /></g><g
           transform="translate(33.364 22.528)"
           id="g236"><path
             d="M 0,0 1.64,1.64 0.656,2.624 -0.985,0.985 C -0.604,0.713 -0.272,0.38 0,0"
             id="path234" /></g><g
           transform="translate(26.472 17.605)"
           id="g240"><path
             d="m 0,0 -1.64,-1.64 0.984,-0.984 1.641,1.639 C 0.604,-0.712 0.272,-0.38 0,0"
             id="path238" /></g></g></g><g
       transform="matrix(-1.2004 0 0 -1.2004 84.254 51.574)"
       id="g260"
       style="fill:#ff6600;fill-opacity:1"><g
         clip-path="url(#clipPath276)"
         fill="#fc0"
         id="g258"
         style="fill:#ff6600;fill-opacity:1"><g
           transform="translate(40.788 34.812)"
           id="g248"
           style="fill:#ff6600;fill-opacity:1"><path
             d="m0 0v-23.625c0-1.203-0.984-2.187-2.188-2.187-1.203 0-2.187 0.984-2.187 2.187v23.625c0 1.203 0.984 2.188 2.187 2.188 1.204 0 2.188-0.985 2.188-2.188"
             fill="#fc0"
             id="path246"
             style="fill:#ff6600;fill-opacity:1" /></g><g
           transform="translate(40.022 36.484)"
           id="g252"
           style="fill:#ff6600;fill-opacity:1"><path
             d="m0 0 6.541-6.541c0.583-0.583 0.583-1.538 0-2.121l-0.973-0.972c-0.583-0.583-1.537-0.583-2.121 0l-6.541 6.541c-0.583 0.583-0.583 1.537 0 2.121l0.973 0.972c0.583 0.583 1.538 0.583 2.121 0"
             fill="#fc0"
             id="path250"
             style="fill:#ff6600;fill-opacity:1" /></g><g
           transform="translate(30.638 29.944)"
           id="g256"
           style="fill:#ff6600;fill-opacity:1"><path
             d="m0 0 6.541 6.541c0.583 0.583 1.538 0.583 2.121 0l0.973-0.973c0.583-0.583 0.583-1.538 0-2.121l-6.541-6.541c-0.583-0.583-1.538-0.583-2.121 0l-0.973 0.973c-0.583 0.583-0.583 1.538 0 2.121"
             fill="#fc0"
             id="path254"
             style="fill:#ff6600;fill-opacity:1" /></g></g></g></g></svg>