<?xml version="1.0" encoding="UTF-8" standalone="no"?>
<!-- Created with Inkscape (http://www.inkscape.org/) -->

<svg
   xmlns:dc="http://purl.org/dc/elements/1.1/"
   xmlns:cc="http://creativecommons.org/ns#"
   xmlns:rdf="http://www.w3.org/1999/02/22-rdf-syntax-ns#"
   xmlns:svg="http://www.w3.org/2000/svg"
   xmlns="http://www.w3.org/2000/svg"
   xmlns:sodipodi="http://sodipodi.sourceforge.net/DTD/sodipodi-0.dtd"
   xmlns:inkscape="http://www.inkscape.org/namespaces/inkscape"
   version="1.1"
   id="svg2"
   xml:space="preserve"
   width="48pt"
   height="48pt"
   viewBox="0 0 64 64"
   sodipodi:docname="CurrencyGear.svg"
   inkscape:version="0.92.2 5c3e80d, 2017-08-06"><metadata
     id="metadata8"><rdf:RDF><cc:Work
         rdf:about=""><dc:format>image/svg+xml</dc:format><dc:type
           rdf:resource="http://purl.org/dc/dcmitype/StillImage" /><dc:title></dc:title></cc:Work></rdf:RDF></metadata><defs
     id="defs6"><clipPath
       clipPathUnits="userSpaceOnUse"
       id="clipPath18"><path
         d="m 14,14.238 h 19 v 19 H 14 Z"
         id="path16"
         inkscape:connector-curvature="0" /></clipPath><clipPath
       clipPathUnits="userSpaceOnUse"
       id="clipPath46"><path
         d="M 0,48 H 48 V 0 H 0 Z"
         id="path44"
         inkscape:connector-curvature="0" /></clipPath></defs><sodipodi:namedview
     pagecolor="#ffffff"
     bordercolor="#666666"
     borderopacity="1"
     objecttolerance="10"
     gridtolerance="10"
     guidetolerance="10"
     inkscape:pageopacity="0"
     inkscape:pageshadow="2"
     inkscape:window-width="1920"
     inkscape:window-height="1016"
     id="namedview4"
     showgrid="false"
     units="pt"
     inkscape:document-units="pt"
     inkscape:zoom="3.6875"
     inkscape:cx="32.271186"
     inkscape:cy="53.694915"
     inkscape:window-x="0"
     inkscape:window-y="27"
     inkscape:window-maximized="1"
     inkscape:current-layer="g10" /><g
     id="g10"
     inkscape:groupmode="layer"
     inkscape:label="CategoryGear"
     transform="matrix(1.3333333,0,0,-1.3333333,0,64)"><g
       id="g12"
       transform="matrix(2.5263159,0,0,2.5263159,-35.368423,-35.969686)"><g
         id="g14"
         clip-path="url(#clipPath18)"><g
           id="g20"
           transform="translate(30.8551,23.7383)"><path
             d="m 0,0 c 0,-4.061 -3.294,-7.355 -7.355,-7.355 -4.062,0 -7.355,3.294 -7.355,7.355 0,4.062 3.293,7.355 7.355,7.355 C -3.294,7.355 0,4.062 0,0 Z"
             style="fill:none;stroke:#000000;stroke-width:2.8499999;stroke-linecap:butt;stroke-linejoin:miter;stroke-miterlimit:10;stroke-dasharray:none;stroke-opacity:1"
             id="path22"
             inkscape:connector-curvature="0" /></g><g
           id="g24"
           transform="translate(28.0978,17.3017)"><path
             d="M 0,0 3.064,-3.064 4.902,-1.225 1.839,1.839 C 1.33,1.129 0.71,0.508 0,0"
             style="fill:#000000;fill-opacity:1;fill-rule:nonzero;stroke:none"
             id="path26"
             inkscape:connector-curvature="0" /></g><g
           id="g28"
           transform="translate(18.9022,30.1749)"><path
             d="M 0,0 -3.064,3.064 -4.902,1.225 -1.839,-1.839 C -1.331,-1.129 -0.71,-0.508 0,0"
             style="fill:#000000;fill-opacity:1;fill-rule:nonzero;stroke:none"
             id="path30"
             inkscape:connector-curvature="0" /></g><g
           id="g32"
           transform="translate(29.9366,28.3361)"><path
             d="M 0,0 3.064,3.064 1.225,4.902 -1.839,1.839 C -1.129,1.331 -0.508,0.71 0,0"
             style="fill:#000000;fill-opacity:1;fill-rule:nonzero;stroke:none"
             id="path34"
             inkscape:connector-curvature="0" /></g><g
           id="g36"
           transform="translate(17.0634,19.1405)"><path
             d="m 0,0 -3.064,-3.064 1.839,-1.838 3.064,3.063 C 1.129,-1.33 0.508,-0.71 0,0"
             style="fill:#000000;fill-opacity:1;fill-rule:nonzero;stroke:none"
             id="path38"
             inkscape:connector-curvature="0" /></g></g></g><g
       id="g40"
       transform="matrix(2.2339713,0,0,2.2339713,-39.189218,-38.657086)"><g
         id="g42"
         clip-path="url(#clipPath46)"><g
           id="g48"
           transform="translate(28.2861,29.5479)"><path
             d="M 0,0 C -0.827,0 -1.5,-0.673 -1.5,-1.5 -1.5,-2.327 -0.827,-3 0,-3 0.827,-3 1.5,-2.327 1.5,-1.5 1.5,-0.673 0.827,0 0,0 m -0.596,-7.715 c -0.212,0 -0.4,0.133 -0.47,0.332 l -0.364,1.02 c -0.345,0.102 -0.679,0.24 -0.998,0.414 l -0.977,-0.465 c -0.069,-0.032 -0.142,-0.048 -0.215,-0.048 -0.13,0 -0.258,0.05 -0.354,0.147 l -0.841,0.841 c -0.15,0.15 -0.189,0.377 -0.099,0.569 l 0.465,0.978 c -0.174,0.318 -0.312,0.652 -0.414,0.998 l -1.019,0.362 c -0.2,0.071 -0.333,0.26 -0.333,0.471 v 1.191 c 0,0.212 0.133,0.401 0.333,0.471 l 1.019,0.363 c 0.102,0.346 0.24,0.68 0.414,0.998 l -0.465,0.978 c -0.09,0.191 -0.051,0.419 0.099,0.568 l 0.841,0.842 c 0.096,0.096 0.224,0.146 0.354,0.146 0.073,0 0.146,-0.015 0.215,-0.048 l 0.977,-0.465 c 0.319,0.174 0.653,0.313 0.998,0.414 l 0.364,1.019 c 0.07,0.2 0.258,0.333 0.47,0.333 h 1.191 c 0.212,0 0.4,-0.133 0.47,-0.333 L 1.429,3.362 C 1.774,3.261 2.108,3.122 2.427,2.948 l 0.977,0.465 c 0.069,0.033 0.142,0.048 0.215,0.048 0.13,0 0.258,-0.05 0.354,-0.146 L 4.814,2.473 C 4.964,2.324 5.003,2.096 4.912,1.905 L 4.447,0.927 C 4.622,0.609 4.761,0.275 4.862,-0.071 l 1.02,-0.363 c 0.199,-0.07 0.332,-0.259 0.332,-0.471 v -1.191 c 0,-0.211 -0.133,-0.4 -0.332,-0.471 L 4.862,-2.929 C 4.761,-3.276 4.622,-3.61 4.447,-3.928 L 4.912,-4.905 C 5.003,-5.097 4.964,-5.324 4.814,-5.474 L 3.973,-6.315 C 3.877,-6.411 3.749,-6.462 3.619,-6.462 c -0.073,0 -0.146,0.016 -0.215,0.048 L 2.427,-5.949 C 2.108,-6.123 1.774,-6.261 1.429,-6.363 L 1.065,-7.383 C 0.995,-7.582 0.807,-7.715 0.595,-7.715 Z"
             style="fill:#000000;fill-opacity:1;fill-rule:nonzero;stroke:none"
             id="path50"
             inkscape:connector-curvature="0" /></g><g
           id="g52"
           transform="translate(28.2861,27.0479)"><path
             d="M 0,0 C -0.552,0 -1,0.448 -1,1 -1,1.551 -0.552,2 0,2 0.551,2 1,1.551 1,1 1,0.448 0.551,0 0,0 m 0.595,7.714 h -1.191 c -0.423,0 -0.8,-0.266 -0.942,-0.665 L -1.817,6.263 C -2.028,6.19 -2.235,6.104 -2.437,6.006 L -3.19,6.364 C -3.328,6.43 -3.475,6.461 -3.62,6.461 -3.879,6.461 -4.135,6.36 -4.327,6.168 L -5.169,5.327 C -5.468,5.027 -5.547,4.572 -5.365,4.19 L -5.007,3.436 C -5.105,3.235 -5.19,3.028 -5.264,2.817 L -6.05,2.537 C -6.448,2.396 -6.715,2.018 -6.715,1.595 V 0.404 c 0,-0.423 0.267,-0.8 0.665,-0.942 l 0.786,-0.279 c 0.074,-0.211 0.159,-0.418 0.257,-0.62 L -5.365,-2.19 c -0.182,-0.383 -0.103,-0.838 0.196,-1.137 l 0.842,-0.842 c 0.192,-0.191 0.448,-0.293 0.707,-0.293 0.145,0 0.292,0.032 0.43,0.097 l 0.753,0.359 c 0.202,-0.098 0.409,-0.184 0.62,-0.258 l 0.279,-0.786 c 0.142,-0.398 0.519,-0.665 0.942,-0.665 h 1.191 c 0.423,0 0.801,0.267 0.942,0.665 l 0.279,0.786 c 0.212,0.074 0.418,0.16 0.62,0.258 L 3.19,-4.365 c 0.137,-0.065 0.284,-0.097 0.429,-0.097 0.26,0 0.516,0.102 0.707,0.293 l 0.842,0.842 c 0.3,0.299 0.378,0.754 0.196,1.137 l -0.358,0.753 c 0.098,0.202 0.183,0.408 0.257,0.62 l 0.786,0.279 c 0.398,0.142 0.665,0.519 0.665,0.942 v 1.191 c 0,0.423 -0.267,0.801 -0.665,0.942 L 5.263,2.817 C 5.189,3.028 5.104,3.235 5.006,3.436 L 5.364,4.19 C 5.546,4.572 5.468,5.027 5.168,5.327 L 4.326,6.168 C 4.135,6.36 3.879,6.461 3.619,6.461 3.474,6.461 3.327,6.43 3.19,6.364 L 2.436,6.006 C 2.234,6.104 2.028,6.19 1.816,6.263 L 1.537,7.049 C 1.396,7.448 1.018,7.714 0.595,7.714 M 0,-1 C 1.104,-1 2,-0.105 2,1 2,2.104 1.104,3 0,3 -1.104,3 -2,2.104 -2,1 -2,-0.105 -1.104,-1 0,-1 M 0.595,6.714 1.046,5.446 C 1.533,5.332 1.989,5.14 2.403,4.883 L 3.619,5.461 4.461,4.62 3.883,3.403 C 4.14,2.99 4.332,2.533 4.446,2.046 L 5.714,1.595 V 0.404 L 4.446,-0.046 C 4.332,-0.534 4.14,-0.99 3.883,-1.404 L 4.461,-2.62 3.619,-3.462 2.403,-2.884 C 1.989,-3.14 1.533,-3.333 1.046,-3.447 L 0.595,-4.715 h -1.191 l -0.451,1.268 c -0.487,0.114 -0.943,0.307 -1.357,0.563 l -1.216,-0.578 -0.842,0.842 0.578,1.216 c -0.256,0.414 -0.449,0.87 -0.563,1.358 l -1.268,0.45 v 1.191 l 1.268,0.451 c 0.114,0.487 0.307,0.944 0.563,1.357 L -4.462,4.62 -3.62,5.461 -2.404,4.883 c 0.414,0.257 0.87,0.449 1.357,0.563 l 0.451,1.268 h 1.191"
             style="fill:#ffffff;fill-opacity:1;fill-rule:nonzero;stroke:none"
             id="path54"
             inkscape:connector-curvature="0" /></g><g
           id="g56"
           transform="translate(28,28.2383)"><path
             d="M 0,0 V -1 0 1 Z"
             style="fill:#ffffff;fill-opacity:1;fill-rule:nonzero;stroke:none"
             id="path58"
             inkscape:connector-curvature="0" /></g><g
           id="g60"
           transform="translate(29.5,28.2383)"><path
             d="M 0,0 C 0,-0.829 -0.672,-1.5 -1.5,-1.5 -2.328,-1.5 -3,-0.829 -3,0 -3,0.828 -2.328,1.5 -1.5,1.5 -0.672,1.5 0,0.828 0,0"
             style="fill:#ffffff;fill-opacity:1;fill-rule:nonzero;stroke:none"
             id="path62"
             inkscape:connector-curvature="0" /></g></g></g></g></svg>