<?xml version="1.0" encoding="UTF-8" standalone="no"?>
<!-- Created with Inkscape (http://www.inkscape.org/) -->

<svg
   xmlns:dc="http://purl.org/dc/elements/1.1/"
   xmlns:cc="http://creativecommons.org/ns#"
   xmlns:rdf="http://www.w3.org/1999/02/22-rdf-syntax-ns#"
   xmlns:svg="http://www.w3.org/2000/svg"
   xmlns="http://www.w3.org/2000/svg"
   xmlns:sodipodi="http://sodipodi.sourceforge.net/DTD/sodipodi-0.dtd"
   xmlns:inkscape="http://www.inkscape.org/namespaces/inkscape"
   version="1.1"
   id="svg2"
   xml:space="preserve"
   width="48pt"
   height="48pt"
   viewBox="0 0 64.000002 64.000002"
   sodipodi:docname="Currency.svg"
   inkscape:version="0.92.2 5c3e80d, 2017-08-06"><metadata
     id="metadata8"><rdf:RDF><cc:Work
         rdf:about=""><dc:format>image/svg+xml</dc:format><dc:type
           rdf:resource="http://purl.org/dc/dcmitype/StillImage" /><dc:title></dc:title></cc:Work></rdf:RDF></metadata><defs
     id="defs6"><clipPath
       clipPathUnits="userSpaceOnUse"
       id="clipPath18"><path
         d="M 0,32 H 32 V 0 H 0 Z"
         id="path16"
         inkscape:connector-curvature="0" /></clipPath></defs><sodipodi:namedview
     pagecolor="#ffffff"
     bordercolor="#666666"
     borderopacity="1"
     objecttolerance="10"
     gridtolerance="10"
     guidetolerance="10"
     inkscape:pageopacity="0"
     inkscape:pageshadow="2"
     inkscape:window-width="1920"
     inkscape:window-height="1016"
     id="namedview4"
     showgrid="false"
     inkscape:document-units="pt"
     units="pt"
     inkscape:zoom="5.5312498"
     inkscape:cx="21.694916"
     inkscape:cy="21.333334"
     inkscape:window-x="0"
     inkscape:window-y="27"
     inkscape:window-maximized="1"
     inkscape:current-layer="g10" /><g
     id="g10"
     inkscape:groupmode="layer"
     inkscape:label="Currency_"
     transform="matrix(1.3333333,0,0,-1.3333333,0,64.000002)"><g
       id="g12"
       transform="matrix(2.3999041,0,0,2.3999041,-14.398464,-14.398464)"><g
         id="g14"
         clip-path="url(#clipPath18)"><g
           id="g20"
           transform="translate(23.7422,16)"><path
             d="m 0,0 c 0,-4.275 -3.467,-7.742 -7.742,-7.742 -4.276,0 -7.742,3.467 -7.742,7.742 0,4.276 3.466,7.742 7.742,7.742 C -3.467,7.742 0,4.276 0,0 Z"
             style="fill:none;stroke:#000000;stroke-width:3;stroke-linecap:butt;stroke-linejoin:miter;stroke-miterlimit:10;stroke-dasharray:none;stroke-opacity:1"
             id="path22"
             inkscape:connector-curvature="0" /></g><g
           id="g24"
           transform="translate(20.8398,9.2246)"><path
             d="M 0,0 3.225,-3.225 5.16,-1.289 1.936,1.936 C 1.4,1.188 0.747,0.535 0,0"
             style="fill:#000000;fill-opacity:1;fill-rule:nonzero;stroke:none"
             id="path26"
             inkscape:connector-curvature="0" /></g><g
           id="g28"
           transform="translate(11.1602,22.7754)"><path
             d="M 0,0 -3.225,3.225 -5.16,1.289 -1.936,-1.936 C -1.401,-1.188 -0.747,-0.535 0,0"
             style="fill:#000000;fill-opacity:1;fill-rule:nonzero;stroke:none"
             id="path30"
             inkscape:connector-curvature="0" /></g><g
           id="g32"
           transform="translate(22.7754,20.8398)"><path
             d="M 0,0 3.225,3.225 1.289,5.16 -1.936,1.936 C -1.188,1.401 -0.535,0.747 0,0"
             style="fill:#000000;fill-opacity:1;fill-rule:nonzero;stroke:none"
             id="path34"
             inkscape:connector-curvature="0" /></g><g
           id="g36"
           transform="translate(9.2246,11.1602)"><path
             d="m 0,0 -3.225,-3.225 1.936,-1.935 3.225,3.224 C 1.188,-1.4 0.535,-0.747 0,0"
             style="fill:#000000;fill-opacity:1;fill-rule:nonzero;stroke:none"
             id="path38"
             inkscape:connector-curvature="0" /></g></g></g></g></svg>