<?xml version="1.0" encoding="UTF-8" standalone="no"?>
<!-- Created with Inkscape (http://www.inkscape.org/) -->

<svg
   xmlns:dc="http://purl.org/dc/elements/1.1/"
   xmlns:cc="http://creativecommons.org/ns#"
   xmlns:rdf="http://www.w3.org/1999/02/22-rdf-syntax-ns#"
   xmlns:svg="http://www.w3.org/2000/svg"
   xmlns="http://www.w3.org/2000/svg"
   xmlns:sodipodi="http://sodipodi.sourceforge.net/DTD/sodipodi-0.dtd"
   xmlns:inkscape="http://www.inkscape.org/namespaces/inkscape"
   version="1.1"
   id="svg2"
   xml:space="preserve"
   width="48pt"
   height="48pt"
   viewBox="0 0 64.000002 64.000002"
   sodipodi:docname="DateTimePeriod.svg"
   inkscape:version="0.92.2 5c3e80d, 2017-08-06"><metadata
     id="metadata8"><rdf:RDF><cc:Work
         rdf:about=""><dc:format>image/svg+xml</dc:format><dc:type
           rdf:resource="http://purl.org/dc/dcmitype/StillImage" /><dc:title></dc:title></cc:Work></rdf:RDF></metadata><defs
     id="defs6"><clipPath
       clipPathUnits="userSpaceOnUse"
       id="clipPath18"><path
         d="M 0,32 H 32 V 0 H 0 Z"
         id="path16"
         inkscape:connector-curvature="0" /></clipPath></defs><sodipodi:namedview
     pagecolor="#ffffff"
     bordercolor="#666666"
     borderopacity="1"
     objecttolerance="10"
     gridtolerance="10"
     guidetolerance="10"
     inkscape:pageopacity="0"
     inkscape:pageshadow="2"
     inkscape:window-width="1920"
     inkscape:window-height="1016"
     id="namedview4"
     showgrid="false"
     inkscape:document-units="pt"
     units="pt"
     inkscape:zoom="5.5312498"
     inkscape:cx="21.694916"
     inkscape:cy="21.333334"
     inkscape:window-x="0"
     inkscape:window-y="27"
     inkscape:window-maximized="1"
     inkscape:current-layer="g10" /><g
     id="g10"
     inkscape:groupmode="layer"
     inkscape:label="DateTimePeriod"
     transform="matrix(1.3333333,0,0,-1.3333333,0,64.000002)"><g
       id="g12"
       transform="matrix(2.167454,0,0,2.167454,-9.8651669,-11.065072)"><g
         id="g14"
         clip-path="url(#clipPath18)"><g
           id="g20"
           transform="translate(20.8887,23.5605)"><path
             d="m 0,0 c 0.702,0 1.272,-0.571 1.272,-1.273 v -1.37 H 2.036 V -4.17 H 1.272 V -5.419 C 1.816,-5.577 2.327,-5.807 2.8,-6.097 v 4.824 c 0,1.544 -1.256,2.8 -2.8,2.8 H -0.579 V 0 Z"
             style="fill:#000000;fill-opacity:1;fill-rule:nonzero;stroke:none"
             id="path22"
             inkscape:connector-curvature="0" /></g><path
           d="M 19.052,25.087 H 9.188 V 23.56 h 9.864 z"
           style="fill:#000000;fill-opacity:1;fill-rule:nonzero;stroke:none"
           id="path24"
           inkscape:connector-curvature="0" /><g
           id="g26"
           transform="translate(15.3315,8.4053)"><path
             d="m 0,0 h -7.98 c -0.702,0 -1.272,0.57 -1.272,1.272 v 9.713 h -0.764 v 1.527 h 0.764 v 1.37 c 0,0.702 0.57,1.273 1.272,1.273 h 0.579 v 1.527 H -7.98 c -1.543,0 -2.8,-1.255 -2.8,-2.8 V 1.272 c 0,-1.543 1.257,-2.799 2.8,-2.799 H 1.582 C 0.968,-1.116 0.435,-0.597 0,0"
             style="fill:#000000;fill-opacity:1;fill-rule:nonzero;stroke:none"
             id="path28"
             inkscape:connector-curvature="0" /></g><g
           id="g30"
           transform="translate(9.188,25.5791)"><path
             d="m 0,0 c 0,0.329 -0.27,0.599 -0.599,0.599 h -0.06 C -0.988,0.599 -1.258,0.329 -1.258,0 V -0.492 H 0 Z"
             style="fill:#000000;fill-opacity:1;fill-rule:nonzero;stroke:none"
             id="path32"
             inkscape:connector-curvature="0" /></g><g
           id="g34"
           transform="translate(8.5293,22.0898)"><path
             d="M 0,0 H 0.06 C 0.389,0 0.659,0.27 0.659,0.599 V 1.471 H -0.599 V 0.599 C -0.599,0.27 -0.33,0 0,0"
             style="fill:#000000;fill-opacity:1;fill-rule:nonzero;stroke:none"
             id="path36"
             inkscape:connector-curvature="0" /></g><path
           d="M 9.188,25.087 H 7.93 V 23.56 h 1.258 z"
           style="fill:#000000;fill-opacity:1;fill-rule:nonzero;stroke:none"
           id="path38"
           inkscape:connector-curvature="0" /><g
           id="g40"
           transform="translate(20.3096,25.5791)"><path
             d="m 0,0 c 0,0.329 -0.27,0.599 -0.599,0.599 h -0.059 c -0.33,0 -0.6,-0.27 -0.6,-0.599 V -0.492 H 0 Z"
             style="fill:#000000;fill-opacity:1;fill-rule:nonzero;stroke:none"
             id="path42"
             inkscape:connector-curvature="0" /></g><g
           id="g44"
           transform="translate(19.6514,22.0898)"><path
             d="M 0,0 H 0.06 C 0.389,0 0.658,0.27 0.658,0.599 V 1.471 H -0.6 V 0.599 C -0.6,0.27 -0.33,0 0,0"
             style="fill:#000000;fill-opacity:1;fill-rule:nonzero;stroke:none"
             id="path46"
             inkscape:connector-curvature="0" /></g><path
           d="M 20.31,25.087 H 19.052 V 23.56 h 1.258 z"
           style="fill:#000000;fill-opacity:1;fill-rule:nonzero;stroke:none"
           id="path48"
           inkscape:connector-curvature="0" /><path
           d="M 8.212,13.318 H 9.834 V 14.94 H 8.212 Z"
           style="fill:#000000;fill-opacity:1;fill-rule:nonzero;stroke:none"
           id="path50"
           inkscape:connector-curvature="0" /><g
           id="g52"
           transform="translate(16.7847,18.1841)"><path
             d="m 0,0 h -1.622 v -1.622 h 0.81 c 0.25,0.248 0.523,0.473 0.812,0.677 z"
             style="fill:#000000;fill-opacity:1;fill-rule:nonzero;stroke:none"
             id="path54"
             inkscape:connector-curvature="0" /></g><path
           d="m 11.919,16.562 h 1.622 v 1.622 h -1.622 z"
           style="fill:#000000;fill-opacity:1;fill-rule:nonzero;stroke:none"
           id="path56"
           inkscape:connector-curvature="0" /><path
           d="m 11.919,13.318 h 1.622 v 1.622 h -1.622 z"
           style="fill:#000000;fill-opacity:1;fill-rule:nonzero;stroke:none"
           id="path58"
           inkscape:connector-curvature="0" /><path
           d="m 8.212,10.074 h 1.622 v 1.622 H 8.212 Z"
           style="fill:#000000;fill-opacity:1;fill-rule:nonzero;stroke:none"
           id="path60"
           inkscape:connector-curvature="0" /><path
           d="m 11.919,10.074 h 1.622 v 1.622 h -1.622 z"
           style="fill:#000000;fill-opacity:1;fill-rule:nonzero;stroke:none"
           id="path62"
           inkscape:connector-curvature="0" /><path
           d="M 22.161,20.917 H 6.079 V 19.39 h 16.082 z"
           style="fill:#000000;fill-opacity:1;fill-rule:nonzero;stroke:none"
           id="path64"
           inkscape:connector-curvature="0" /><path
           d="M 22.925,20.917 H 22.161 V 19.39 h 0.764 z"
           style="fill:#000000;fill-opacity:1;fill-rule:nonzero;stroke:none"
           id="path66"
           inkscape:connector-curvature="0" /><path
           d="m 5.315,19.39 h 0.764 v 1.527 H 5.315 Z"
           style="fill:#000000;fill-opacity:1;fill-rule:nonzero;stroke:none"
           id="path68"
           inkscape:connector-curvature="0" /><g
           id="g70"
           transform="translate(20.7422,15.1216)"><path
             d="m 0,0 c 0,0.142 -0.057,0.271 -0.15,0.364 -0.093,0.093 -0.222,0.15 -0.364,0.15 -0.141,0 -0.27,-0.057 -0.363,-0.15 C -0.971,0.271 -1.027,0.142 -1.027,0 v -0.181 h 0.313 v -1.622 h -0.313 v -1.375 c 0,-0.284 0.229,-0.514 0.513,-0.514 h 1.933 v 1.028 H 0 Z"
             style="fill:#000000;fill-opacity:1;fill-rule:nonzero;stroke:none"
             id="path72"
             inkscape:connector-curvature="0" /></g><g
           id="g74"
           transform="translate(22.6914,11.4297)"><path
             d="M 0,0 C 0.284,0 0.515,0.229 0.515,0.514 0.515,0.798 0.284,1.028 0,1.028 H -0.53 V 0 Z"
             style="fill:#000000;fill-opacity:1;fill-rule:nonzero;stroke:none"
             id="path76"
             inkscape:connector-curvature="0" /></g><path
           d="m 20.028,14.94 h -0.313 v -1.622 h 0.313 z"
           style="fill:#000000;fill-opacity:1;fill-rule:nonzero;stroke:none"
           id="path78"
           inkscape:connector-curvature="0" /><g
           id="g80"
           transform="translate(20.5918,15.4854)"><path
             d="M 0,0 C -0.093,0.093 -0.222,0.15 -0.363,0.15 -0.505,0.15 -0.634,0.093 -0.727,0 -0.634,0.093 -0.505,0.15 -0.363,0.15 -0.222,0.15 -0.093,0.093 0,0"
             style="fill:#ffffff;fill-opacity:1;fill-rule:nonzero;stroke:none"
             id="path82"
             inkscape:connector-curvature="0" /></g><g
           id="g84"
           transform="translate(26.6973,14.9883)"><path
             d="m 0,0 -0.574,-0.268 c 0.189,-0.414 0.34,-0.848 0.436,-1.304 z"
             style="fill:#000000;fill-opacity:1;fill-rule:nonzero;stroke:none"
             id="path86"
             inkscape:connector-curvature="0" /></g><g
           id="g88"
           transform="translate(17.4785,6.8779)"><path
             d="M 0,0 C 1.558,-0.838 3.475,-0.963 5.197,-0.16 L 4.914,0.446 C 4.479,0.167 3.965,0 3.41,0 Z"
             style="fill:#000000;fill-opacity:1;fill-rule:nonzero;stroke:none"
             id="path90"
             inkscape:connector-curvature="0" /></g><g
           id="g92"
           transform="translate(17.8291,15.9546)"><path
             d="M 0,0 C 0.125,0.357 0.318,0.681 0.577,0.946 V 1.514 C 0.365,1.444 0.155,1.364 -0.052,1.268 -0.408,1.102 -0.739,0.903 -1.044,0.678 V 0.607 H -1.133 C -1.721,0.155 -2.208,-0.396 -2.576,-1.014 h 1.385 C -0.862,-0.616 -0.461,-0.277 0,0"
             style="fill:#000000;fill-opacity:1;fill-rule:nonzero;stroke:none"
             id="path94"
             inkscape:connector-curvature="0" /></g><g
           id="g96"
           transform="translate(15.9907,9.9951)"><path
             d="m 0,0 c -0.012,0.025 -0.016,0.054 -0.028,0.079 h -0.8 v 1.622 h 0.407 c -0.032,0.554 0.044,1.1 0.202,1.622 H -0.828 V 4.776 C -1.692,3.21 -1.829,1.269 -1.017,-0.475 c 0.19,-0.406 0.425,-0.776 0.69,-1.115 H 1.235 C 0.728,-1.166 0.297,-0.638 0,0"
             style="fill:#000000;fill-opacity:1;fill-rule:nonzero;stroke:none"
             id="path98"
             inkscape:connector-curvature="0" /></g><g
           id="g100"
           transform="translate(20.0283,17.6519)"><path
             d="m 0,0 c 0.067,0.005 0.132,0.02 0.2,0.02 0.777,0 1.465,-0.356 1.933,-0.905 v 0.661 C 1.454,0.017 0.73,0.133 0,0.109 Z"
             style="fill:#000000;fill-opacity:1;fill-rule:nonzero;stroke:none"
             id="path102"
             inkscape:connector-curvature="0" /></g><g
           id="g104"
           transform="translate(25.4795,14.4248)"><path
             d="M 0,0 -0.003,-0.001 C -0.423,0.897 -1.046,1.637 -1.791,2.19 V 0.652 c 0.301,-0.336 0.573,-0.703 0.773,-1.131 L -1.151,-0.541 C -0.608,-1 -0.256,-1.674 -0.242,-2.436 l 1.128,-0.79 0.194,2.217 C 0.983,-0.553 0.833,-0.118 0.644,0.296 l -0.642,-0.3 z"
             style="fill:#000000;fill-opacity:1;fill-rule:nonzero;stroke:none"
             id="path106"
             inkscape:connector-curvature="0" /></g><g
           id="g108"
           transform="translate(22.6191,15.981)"><path
             d="M 0,0 C 0.399,-0.237 0.752,-0.551 1.069,-0.904 V 0.634 C 0.602,0.981 0.086,1.254 -0.458,1.447 V 0.786 C -0.261,0.555 -0.104,0.291 0,0"
             style="fill:#000000;fill-opacity:1;fill-rule:nonzero;stroke:none"
             id="path110"
             inkscape:connector-curvature="0" /></g><g
           id="g112"
           transform="translate(17.2256,8.4053)"><path
             d="m 0,0 h -1.562 c 0.5,-0.641 1.121,-1.154 1.815,-1.527 h 3.41 c 0.555,0 1.068,0.167 1.504,0.446 l -0.191,0.41 C 3.277,-1.463 1.349,-1.132 0,0"
             style="fill:#000000;fill-opacity:1;fill-rule:nonzero;stroke:none"
             id="path114"
             inkscape:connector-curvature="0" /></g><g
           id="g116"
           transform="translate(16.7847,16.6323)"><path
             d="M 0,0 C -0.03,-0.022 -0.058,-0.047 -0.088,-0.07 H 0 Z"
             style="fill:#000000;fill-opacity:1;fill-rule:nonzero;stroke:none"
             id="path118"
             inkscape:connector-curvature="0" /></g><g
           id="g120"
           transform="translate(18.4063,17.4688)"><path
             d="m 0,0 v -0.568 c 0.419,0.429 0.989,0.701 1.622,0.751 V 0.292 C 1.08,0.274 0.534,0.177 0,0"
             style="fill:#000000;fill-opacity:1;fill-rule:nonzero;stroke:none"
             id="path122"
             inkscape:connector-curvature="0" /></g><g
           id="g124"
           transform="translate(15.1626,11.6963)"><path
             d="M 0,0 V -1.622 H 0.8 C 0.566,-1.094 0.438,-0.546 0.407,0 Z"
             style="fill:#000000;fill-opacity:1;fill-rule:nonzero;stroke:none"
             id="path126"
             inkscape:connector-curvature="0" /></g><g
           id="g128"
           transform="translate(15.2529,14.9404)"><path
             d="M 0,0 C -0.033,-0.055 -0.06,-0.113 -0.09,-0.169 V -1.622 H 0.519 C 0.698,-1.031 0.988,-0.481 1.385,0 Z"
             style="fill:#000000;fill-opacity:1;fill-rule:nonzero;stroke:none"
             id="path130"
             inkscape:connector-curvature="0" /></g><g
           id="g132"
           transform="translate(20.2285,17.6719)"><path
             d="m 0,0 c -0.068,0 -0.133,-0.015 -0.2,-0.02 v -1.015 c 0.741,0.031 1.467,-0.134 2.133,-0.438 v 0.568 C 1.465,-0.356 0.776,0 0,0"
             style="fill:#000000;fill-opacity:1;fill-rule:nonzero;stroke:none"
             id="path134"
             inkscape:connector-curvature="0" /></g><g
           id="g136"
           transform="translate(18.4063,16.9009)"><path
             d="m 0,0 c -0.259,-0.265 -0.452,-0.589 -0.577,-0.946 0.14,0.084 0.27,0.18 0.422,0.251 0.398,0.186 0.81,0.289 1.224,0.356 H 0 Z"
             style="fill:#000000;fill-opacity:1;fill-rule:nonzero;stroke:none"
             id="path138"
             inkscape:connector-curvature="0" /></g><g
           id="g140"
           transform="translate(24.3281,13.8838)"><path
             d="M 0,0 -0.64,-0.299 V -0.811 L 0.909,-1.895 C 0.896,-1.133 0.543,-0.459 0,0"
             style="fill:#000000;fill-opacity:1;fill-rule:nonzero;stroke:none"
             id="path142"
             inkscape:connector-curvature="0" /></g><g
           id="g144"
           transform="translate(23.6885,13.0732)"><path
             d="M 0,0 V 0.512 L -0.438,0.308 Z"
             style="fill:#000000;fill-opacity:1;fill-rule:nonzero;stroke:none"
             id="path146"
             inkscape:connector-curvature="0" /></g><g
           id="g148"
           transform="translate(22.1611,16.1992)"><path
             d="M 0,0 C 0.154,-0.07 0.312,-0.131 0.458,-0.218 0.354,0.073 0.197,0.336 0,0.567 Z"
             style="fill:#000000;fill-opacity:1;fill-rule:nonzero;stroke:none"
             id="path150"
             inkscape:connector-curvature="0" /></g><g
           id="g152"
           transform="translate(18.4063,16.9009)"><path
             d="m 0,0 v -0.339 h 1.069 c 0.185,0.03 0.368,0.068 0.553,0.075 V 0.751 C 0.989,0.701 0.419,0.429 0,0"
             style="fill:#000000;fill-opacity:1;fill-rule:nonzero;stroke:none"
             id="path154"
             inkscape:connector-curvature="0" /></g></g></g></g></svg>