<?xml version="1.0" encoding="UTF-8" standalone="no"?>
<!-- Created with Inkscape (http://www.inkscape.org/) -->

<svg
   xmlns:dc="http://purl.org/dc/elements/1.1/"
   xmlns:cc="http://creativecommons.org/ns#"
   xmlns:rdf="http://www.w3.org/1999/02/22-rdf-syntax-ns#"
   xmlns:svg="http://www.w3.org/2000/svg"
   xmlns="http://www.w3.org/2000/svg"
   xmlns:sodipodi="http://sodipodi.sourceforge.net/DTD/sodipodi-0.dtd"
   xmlns:inkscape="http://www.inkscape.org/namespaces/inkscape"
   version="1.1"
   id="svg2"
   xml:space="preserve"
   width="48pt"
   height="48pt"
   viewBox="0 0 64.000002 64.000002"
   sodipodi:docname="DateFrom.svg"
   inkscape:version="0.92.2 5c3e80d, 2017-08-06"><metadata
     id="metadata8"><rdf:RDF><cc:Work
         rdf:about=""><dc:format>image/svg+xml</dc:format><dc:type
           rdf:resource="http://purl.org/dc/dcmitype/StillImage" /><dc:title></dc:title></cc:Work></rdf:RDF></metadata><defs
     id="defs6"><clipPath
       clipPathUnits="userSpaceOnUse"
       id="clipPath18"><path
         d="M 0,32 H 32 V 0 H 0 Z"
         id="path16"
         inkscape:connector-curvature="0" /></clipPath></defs><sodipodi:namedview
     pagecolor="#ffffff"
     bordercolor="#666666"
     borderopacity="1"
     objecttolerance="10"
     gridtolerance="10"
     guidetolerance="10"
     inkscape:pageopacity="0"
     inkscape:pageshadow="2"
     inkscape:window-width="1920"
     inkscape:window-height="1016"
     id="namedview4"
     showgrid="false"
     inkscape:document-units="pt"
     units="pt"
     inkscape:zoom="5.5312498"
     inkscape:cx="21.694916"
     inkscape:cy="21.333334"
     inkscape:window-x="0"
     inkscape:window-y="27"
     inkscape:window-maximized="1"
     inkscape:current-layer="g10" /><g
     id="g10"
     inkscape:groupmode="layer"
     inkscape:label="DateFrom"
     transform="matrix(1.3333333,0,0,-1.3333333,0,64.000002)"><g
       id="g12"
       transform="matrix(2.2794081,0,0,2.2794081,-12.471098,-12.470528)"><g
         id="g14"
         clip-path="url(#clipPath18)"><g
           id="g20"
           transform="translate(22.5791,23.3496)"><path
             d="M 0,0 C 0.665,0 1.205,-0.541 1.205,-1.205 V -2.892 H 1.928 V -4.337 H 1.205 v -3.549 l 1.446,-0.742 v 7.423 C 2.651,0.257 1.462,1.446 0,1.446 H -0.791 V 0 Z"
             style="fill:#000000;fill-opacity:1;fill-rule:nonzero;stroke:none"
             id="path22"
             inkscape:connector-curvature="0" /></g><path
           d="M 20.479,24.795 H 10.221 v -1.446 h 10.258 z"
           style="fill:#000000;fill-opacity:1;fill-rule:nonzero;stroke:none"
           id="path24"
           inkscape:connector-curvature="0" /><g
           id="g26"
           transform="translate(23.7842,8.6504)"><path
             d="m 0,0 c 0,-0.664 -0.54,-1.205 -1.205,-1.205 h -14.458 c -0.664,0 -1.204,0.541 -1.204,1.205 v 10.362 h -0.723 v 1.446 h 0.723 v 1.686 c 0,0.665 0.54,1.205 1.204,1.205 h 0.792 v 1.446 h -0.792 c -1.461,0 -2.65,-1.189 -2.65,-2.651 V 0 c 0,-1.462 1.189,-2.65 2.65,-2.65 h 14.458 c 1.462,0 2.651,1.188 2.651,2.65 V 3.005 L 0,2.262 Z"
             style="fill:#000000;fill-opacity:1;fill-rule:nonzero;stroke:none"
             id="path28"
             inkscape:connector-curvature="0" /></g><g
           id="g30"
           transform="translate(10.2217,25.4336)"><path
             d="M 0,0 C 0,0.312 -0.255,0.566 -0.566,0.566 H -0.742 C -1.053,0.566 -1.308,0.312 -1.308,0 V -0.638 H 0 Z"
             style="fill:#000000;fill-opacity:1;fill-rule:nonzero;stroke:none"
             id="path32"
             inkscape:connector-curvature="0" /></g><g
           id="g34"
           transform="translate(9.48,21.7485)"><path
             d="M 0,0 H 0.175 C 0.487,0 0.742,0.255 0.742,0.566 V 1.601 H -0.566 V 0.566 C -0.566,0.255 -0.312,0 0,0"
             style="fill:#000000;fill-opacity:1;fill-rule:nonzero;stroke:none"
             id="path36"
             inkscape:connector-curvature="0" /></g><path
           d="M 10.222,24.795 H 8.914 v -1.446 h 1.308 z"
           style="fill:#000000;fill-opacity:1;fill-rule:nonzero;stroke:none"
           id="path38"
           inkscape:connector-curvature="0" /><g
           id="g40"
           transform="translate(21.7881,25.4336)"><path
             d="M 0,0 C 0,0.312 -0.255,0.566 -0.566,0.566 H -0.742 C -1.054,0.566 -1.309,0.312 -1.309,0 V -0.638 H 0 Z"
             style="fill:#000000;fill-opacity:1;fill-rule:nonzero;stroke:none"
             id="path42"
             inkscape:connector-curvature="0" /></g><g
           id="g44"
           transform="translate(21.0459,21.7485)"><path
             d="M 0,0 H 0.176 C 0.487,0 0.742,0.255 0.742,0.566 V 1.601 H -0.566 V 0.566 C -0.566,0.255 -0.312,0 0,0"
             style="fill:#000000;fill-opacity:1;fill-rule:nonzero;stroke:none"
             id="path46"
             inkscape:connector-curvature="0" /></g><path
           d="m 21.788,24.795 h -1.309 v -1.446 h 1.309 z"
           style="fill:#000000;fill-opacity:1;fill-rule:nonzero;stroke:none"
           id="path48"
           inkscape:connector-curvature="0" /><path
           d="M 18.122,17.687 H 16.435 V 16 h 1.687 z"
           style="fill:#000000;fill-opacity:1;fill-rule:nonzero;stroke:none"
           id="path50"
           inkscape:connector-curvature="0" /><g
           id="g52"
           transform="translate(21.4951,17.6865)"><path
             d="M 0,0 H -1.687 V -0.182 L 0,-1.047 Z"
             style="fill:#000000;fill-opacity:1;fill-rule:nonzero;stroke:none"
             id="path54"
             inkscape:connector-curvature="0" /></g><path
           d="M 14.749,17.687 H 13.062 V 16 h 1.687 z"
           style="fill:#000000;fill-opacity:1;fill-rule:nonzero;stroke:none"
           id="path56"
           inkscape:connector-curvature="0" /><path
           d="m 9.206,9.253 h 1.687 V 10.94 H 9.206 Z"
           style="fill:#000000;fill-opacity:1;fill-rule:nonzero;stroke:none"
           id="path58"
           inkscape:connector-curvature="0" /><path
           d="m 13.062,9.253 h 1.687 v 1.687 h -1.687 z"
           style="fill:#000000;fill-opacity:1;fill-rule:nonzero;stroke:none"
           id="path60"
           inkscape:connector-curvature="0" /><path
           d="m 16.435,9.253 h 1.687 v 1.687 h -1.687 z"
           style="fill:#000000;fill-opacity:1;fill-rule:nonzero;stroke:none"
           id="path62"
           inkscape:connector-curvature="0" /><path
           d="M 23.784,20.458 H 6.917 v -1.446 h 16.867 z"
           style="fill:#000000;fill-opacity:1;fill-rule:nonzero;stroke:none"
           id="path64"
           inkscape:connector-curvature="0" /><path
           d="m 24.507,20.458 h -0.723 v -1.446 h 0.723 z"
           style="fill:#000000;fill-opacity:1;fill-rule:nonzero;stroke:none"
           id="path66"
           inkscape:connector-curvature="0" /><path
           d="m 6.194,19.012 h 0.723 v 1.446 H 6.194 Z"
           style="fill:#000000;fill-opacity:1;fill-rule:nonzero;stroke:none"
           id="path68"
           inkscape:connector-curvature="0" /><path
           d="m 19.809,14.313 h 1.687 V 12.626 H 19.809 Z M 21.052,16 h -1.243 v 0.638 l -0.538,0.276 v -2.836 h -1.149 v -1.451 h -1.687 v 1.451 h -1.686 v -1.451 h -1.687 v 1.451 H 10.893 V 12.627 H 9.615 v -0.328 h 9.656 V 9.463 l 4.513,2.316 v 2.819 z"
           style="fill:#000000;fill-opacity:1;fill-rule:nonzero;stroke:none"
           id="path70"
           inkscape:connector-curvature="0" /><g
           id="g72"
           transform="translate(26.5293,13.1885)"><path
             d="M 0,0 -1.299,0.667 V -0.667 Z"
             style="fill:#000000;fill-opacity:1;fill-rule:nonzero;stroke:none"
             id="path74"
             inkscape:connector-curvature="0" /></g><g
           id="g76"
           transform="translate(23.7842,11.7793)"><path
             d="M 0,0 1.446,0.742 V 2.076 L 0,2.818 Z"
             style="fill:#000000;fill-opacity:1;fill-rule:nonzero;stroke:none"
             id="path78"
             inkscape:connector-curvature="0" /></g><path
           d="m 9.615,12.627 h 1.278 v 1.451 H 9.615 Z"
           style="fill:#000000;fill-opacity:1;fill-rule:nonzero;stroke:none"
           id="path80"
           inkscape:connector-curvature="0" /><path
           d="m 19.809,12.627 h 1.687 v 1.687 h -1.687 z"
           style="fill:#000000;fill-opacity:1;fill-rule:nonzero;stroke:none"
           id="path82"
           inkscape:connector-curvature="0" /><g
           id="g84"
           transform="translate(19.8086,16)"><path
             d="M 0,0 H 1.243 L 0,0.638 Z"
             style="fill:#000000;fill-opacity:1;fill-rule:nonzero;stroke:none"
             id="path86"
             inkscape:connector-curvature="0" /></g><path
           d="m 13.062,12.627 h 1.687 v 1.451 h -1.687 z"
           style="fill:#000000;fill-opacity:1;fill-rule:nonzero;stroke:none"
           id="path88"
           inkscape:connector-curvature="0" /><path
           d="m 16.435,12.627 h 1.687 v 1.451 h -1.687 z"
           style="fill:#000000;fill-opacity:1;fill-rule:nonzero;stroke:none"
           id="path90"
           inkscape:connector-curvature="0" /></g></g></g></svg>