<?xml version="1.0" encoding="UTF-8" standalone="no"?>
<!-- Created with Inkscape (http://www.inkscape.org/) -->

<svg
   xmlns:dc="http://purl.org/dc/elements/1.1/"
   xmlns:cc="http://creativecommons.org/ns#"
   xmlns:rdf="http://www.w3.org/1999/02/22-rdf-syntax-ns#"
   xmlns:svg="http://www.w3.org/2000/svg"
   xmlns="http://www.w3.org/2000/svg"
   xmlns:sodipodi="http://sodipodi.sourceforge.net/DTD/sodipodi-0.dtd"
   xmlns:inkscape="http://www.inkscape.org/namespaces/inkscape"
   version="1.1"
   id="svg2"
   xml:space="preserve"
   width="48pt"
   height="48pt"
   viewBox="0 0 64 64"
   sodipodi:docname="Gear.svg"
   inkscape:version="0.92.2 5c3e80d, 2017-08-06"><metadata
     id="metadata8"><rdf:RDF><cc:Work
         rdf:about=""><dc:format>image/svg+xml</dc:format><dc:type
           rdf:resource="http://purl.org/dc/dcmitype/StillImage" /><dc:title></dc:title></cc:Work></rdf:RDF></metadata><defs
     id="defs6"><clipPath
       clipPathUnits="userSpaceOnUse"
       id="clipPath18"><path
         d="M 0,48 H 48 V 0 H 0 Z"
         id="path16"
         inkscape:connector-curvature="0" /></clipPath></defs><sodipodi:namedview
     pagecolor="#ffffff"
     bordercolor="#666666"
     borderopacity="1"
     objecttolerance="10"
     gridtolerance="10"
     guidetolerance="10"
     inkscape:pageopacity="0"
     inkscape:pageshadow="2"
     inkscape:window-width="1920"
     inkscape:window-height="1016"
     id="namedview4"
     showgrid="false"
     inkscape:document-units="pt"
     units="pt"
     inkscape:zoom="3.6875"
     inkscape:cx="33.084746"
     inkscape:cy="30.644068"
     inkscape:window-x="0"
     inkscape:window-y="27"
     inkscape:window-maximized="1"
     inkscape:current-layer="g10" /><g
     id="g10"
     inkscape:groupmode="layer"
     inkscape:label="Gear_"
     transform="matrix(1.3333333,0,0,-1.3333333,0,64)"><g
       id="g12"
       transform="matrix(2.5263159,0,0,2.5263159,-36.631581,-36.631076)"><g
         id="g14"
         clip-path="url(#clipPath18)"><g
           id="g20"
           transform="translate(24,20.6748)"><path
             d="M 0,0 C -1.836,0 -3.325,1.489 -3.325,3.325 -3.325,5.162 -1.836,6.65 0,6.65 1.836,6.65 3.325,5.162 3.325,3.325 3.325,1.489 1.836,0 0,0 m 9.5,2.335 v 1.98 L 7.393,5.064 C 7.202,5.875 6.883,6.633 6.456,7.321 L 7.417,9.343 6.018,10.743 3.996,9.781 C 3.309,10.208 2.55,10.527 1.739,10.717 L 0.99,12.825 H -0.99 L -1.739,10.717 C -2.55,10.527 -3.308,10.208 -3.996,9.781 l -2.022,0.962 -1.399,-1.4 0.961,-2.022 C -6.882,6.633 -7.202,5.875 -7.392,5.064 L -9.5,4.315 v -1.98 l 2.108,-0.749 c 0.19,-0.811 0.51,-1.569 0.936,-2.257 l -0.961,-2.021 1.399,-1.4 2.022,0.961 c 0.688,-0.427 1.446,-0.746 2.257,-0.936 l 0.749,-2.108 h 1.98 l 0.749,2.108 c 0.811,0.19 1.57,0.509 2.257,0.936 l 2.022,-0.961 1.399,1.4 -0.961,2.021 c 0.427,0.688 0.746,1.446 0.937,2.257 z"
             style="fill:#ffffff;fill-opacity:1;fill-rule:nonzero;stroke:none"
             id="path22"
             inkscape:connector-curvature="0" /></g></g></g></g></svg>