<?xml version="1.0" encoding="UTF-8" standalone="no"?>
<!-- Created with Inkscape (http://www.inkscape.org/) -->

<svg
   xmlns:dc="http://purl.org/dc/elements/1.1/"
   xmlns:cc="http://creativecommons.org/ns#"
   xmlns:rdf="http://www.w3.org/1999/02/22-rdf-syntax-ns#"
   xmlns:svg="http://www.w3.org/2000/svg"
   xmlns="http://www.w3.org/2000/svg"
   xmlns:sodipodi="http://sodipodi.sourceforge.net/DTD/sodipodi-0.dtd"
   xmlns:inkscape="http://www.inkscape.org/namespaces/inkscape"
   version="1.1"
   id="svg2"
   xml:space="preserve"
   width="48pt"
   height="48pt"
   viewBox="0 0 64 64"
   sodipodi:docname="Money.ai.svg"
   inkscape:version="0.92.2 5c3e80d, 2017-08-06"><metadata
     id="metadata8"><rdf:RDF><cc:Work
         rdf:about=""><dc:format>image/svg+xml</dc:format><dc:type
           rdf:resource="http://purl.org/dc/dcmitype/StillImage" /><dc:title></dc:title></cc:Work></rdf:RDF></metadata><defs
     id="defs6"><clipPath
       clipPathUnits="userSpaceOnUse"
       id="clipPath18"><path
         d="M 0,48 H 48 V 0 H 0 Z"
         id="path16"
         inkscape:connector-curvature="0" /></clipPath><clipPath
       clipPathUnits="userSpaceOnUse"
       id="clipPath144"><path
         d="m 12.577,31.79 h 11.65 v 5.71 h -11.65 z"
         id="path142"
         inkscape:connector-curvature="0" /></clipPath><clipPath
       clipPathUnits="userSpaceOnUse"
       id="clipPath182"><path
         d="M 0,48 H 48 V 0 H 0 Z"
         id="path180"
         inkscape:connector-curvature="0" /></clipPath><clipPath
       clipPathUnits="userSpaceOnUse"
       id="clipPath198"><path
         d="M 23.78,15.879 H 33.996 V 26.096 H 23.78 Z"
         id="path196"
         inkscape:connector-curvature="0" /></clipPath></defs><sodipodi:namedview
     pagecolor="#ffffff"
     bordercolor="#666666"
     borderopacity="1"
     objecttolerance="10"
     gridtolerance="10"
     guidetolerance="10"
     inkscape:pageopacity="0"
     inkscape:pageshadow="2"
     inkscape:window-width="1920"
     inkscape:window-height="1016"
     id="namedview4"
     showgrid="false"
     inkscape:document-units="pt"
     units="pt"
     inkscape:zoom="3.6875"
     inkscape:cx="32.542373"
     inkscape:cy="32"
     inkscape:window-x="0"
     inkscape:window-y="27"
     inkscape:window-maximized="1"
     inkscape:current-layer="g10" /><g
     id="g10"
     inkscape:groupmode="layer"
     inkscape:label="Money"
     transform="matrix(1.3333333,0,0,-1.3333333,0,64)"><g
       id="g12"
       transform="matrix(1.5059485,0,0,1.5059485,-12.047136,-13.554967)"><g
         id="g14"
         clip-path="url(#clipPath18)"><g
           id="g20"
           transform="translate(28.3047,15.2295)"><path
             d="m 0,0 c 0,-2.681 -4.434,-4.854 -9.902,-4.854 -5.469,0 -9.903,2.173 -9.903,4.854 0,2.681 4.434,4.854 9.903,4.854 C -4.434,4.854 0,2.681 0,0"
             style="fill:#ffffff;fill-opacity:1;fill-rule:nonzero;stroke:none"
             id="path22"
             inkscape:connector-curvature="0" /></g><path
           d="M 28.305,35.035 H 8.5 V 15.23 h 19.805 z"
           style="fill:#ffffff;fill-opacity:1;fill-rule:nonzero;stroke:none"
           id="path24"
           inkscape:connector-curvature="0" /><g
           id="g26"
           transform="translate(8.5,15.2295)"><path
             d="M 0,0 C 0,-2.684 4.429,-4.854 9.902,-4.854"
             style="fill:none;stroke:#000000;stroke-width:1;stroke-linecap:butt;stroke-linejoin:miter;stroke-miterlimit:10;stroke-dasharray:none;stroke-opacity:1"
             id="path28"
             inkscape:connector-curvature="0" /></g><g
           id="g30"
           transform="translate(28.3047,15.2295)"><path
             d="M 0,0 C 0,-2.684 -4.429,-4.854 -9.902,-4.854"
             style="fill:none;stroke:#000000;stroke-width:1;stroke-linecap:butt;stroke-linejoin:miter;stroke-miterlimit:10;stroke-dasharray:none;stroke-opacity:1"
             id="path32"
             inkscape:connector-curvature="0" /></g><g
           id="g34"
           transform="translate(8.5,18.4648)"><path
             d="M 0,0 C 0,-2.683 4.429,-4.854 9.902,-4.854"
             style="fill:none;stroke:#000000;stroke-width:1;stroke-linecap:butt;stroke-linejoin:miter;stroke-miterlimit:10;stroke-dasharray:none;stroke-opacity:1"
             id="path36"
             inkscape:connector-curvature="0" /></g><g
           id="g38"
           transform="translate(28.3047,18.4648)"><path
             d="M 0,0 C 0,-2.683 -4.429,-4.854 -9.902,-4.854"
             style="fill:none;stroke:#000000;stroke-width:1;stroke-linecap:butt;stroke-linejoin:miter;stroke-miterlimit:10;stroke-dasharray:none;stroke-opacity:1"
             id="path40"
             inkscape:connector-curvature="0" /></g><g
           id="g42"
           transform="translate(8.5,15.2295)"><path
             d="M 0,0 V 3.235"
             style="fill:none;stroke:#000000;stroke-width:1;stroke-linecap:butt;stroke-linejoin:miter;stroke-miterlimit:10;stroke-dasharray:none;stroke-opacity:1"
             id="path44"
             inkscape:connector-curvature="0" /></g><g
           id="g46"
           transform="translate(28.3047,15.2295)"><path
             d="M 0,0 V 3.235"
             style="fill:none;stroke:#000000;stroke-width:1;stroke-linecap:butt;stroke-linejoin:miter;stroke-miterlimit:10;stroke-dasharray:none;stroke-opacity:1"
             id="path48"
             inkscape:connector-curvature="0" /></g><g
           id="g50"
           transform="translate(8.5,21.7012)"><path
             d="M 0,0 C 0,-2.683 4.429,-4.854 9.902,-4.854"
             style="fill:none;stroke:#000000;stroke-width:1;stroke-linecap:butt;stroke-linejoin:miter;stroke-miterlimit:10;stroke-dasharray:none;stroke-opacity:1"
             id="path52"
             inkscape:connector-curvature="0" /></g><g
           id="g54"
           transform="translate(28.3047,21.7012)"><path
             d="M 0,0 C 0,-2.683 -4.429,-4.854 -9.902,-4.854"
             style="fill:none;stroke:#000000;stroke-width:1;stroke-linecap:butt;stroke-linejoin:miter;stroke-miterlimit:10;stroke-dasharray:none;stroke-opacity:1"
             id="path56"
             inkscape:connector-curvature="0" /></g><g
           id="g58"
           transform="translate(8.5,18.4648)"><path
             d="M 0,0 V 3.236"
             style="fill:none;stroke:#000000;stroke-width:1;stroke-linecap:butt;stroke-linejoin:miter;stroke-miterlimit:10;stroke-dasharray:none;stroke-opacity:1"
             id="path60"
             inkscape:connector-curvature="0" /></g><g
           id="g62"
           transform="translate(28.3047,18.4648)"><path
             d="M 0,0 V 3.236"
             style="fill:none;stroke:#000000;stroke-width:1;stroke-linecap:butt;stroke-linejoin:miter;stroke-miterlimit:10;stroke-dasharray:none;stroke-opacity:1"
             id="path64"
             inkscape:connector-curvature="0" /></g><g
           id="g66"
           transform="translate(8.5,24.9375)"><path
             d="M 0,0 C 0,-2.684 4.429,-4.854 9.902,-4.854"
             style="fill:none;stroke:#000000;stroke-width:1;stroke-linecap:butt;stroke-linejoin:miter;stroke-miterlimit:10;stroke-dasharray:none;stroke-opacity:1"
             id="path68"
             inkscape:connector-curvature="0" /></g><g
           id="g70"
           transform="translate(28.3047,24.9375)"><path
             d="M 0,0 C 0,-2.684 -4.429,-4.854 -9.902,-4.854"
             style="fill:none;stroke:#000000;stroke-width:1;stroke-linecap:butt;stroke-linejoin:miter;stroke-miterlimit:10;stroke-dasharray:none;stroke-opacity:1"
             id="path72"
             inkscape:connector-curvature="0" /></g><g
           id="g74"
           transform="translate(8.5,21.7012)"><path
             d="M 0,0 V 3.236"
             style="fill:none;stroke:#000000;stroke-width:1;stroke-linecap:butt;stroke-linejoin:miter;stroke-miterlimit:10;stroke-dasharray:none;stroke-opacity:1"
             id="path76"
             inkscape:connector-curvature="0" /></g><g
           id="g78"
           transform="translate(28.3047,21.7012)"><path
             d="M 0,0 V 3.236"
             style="fill:none;stroke:#000000;stroke-width:1;stroke-linecap:butt;stroke-linejoin:miter;stroke-miterlimit:10;stroke-dasharray:none;stroke-opacity:1"
             id="path80"
             inkscape:connector-curvature="0" /></g><g
           id="g82"
           transform="translate(8.5,28.1733)"><path
             d="M 0,0 C 0,-2.683 4.429,-4.854 9.902,-4.854"
             style="fill:none;stroke:#000000;stroke-width:1;stroke-linecap:butt;stroke-linejoin:miter;stroke-miterlimit:10;stroke-dasharray:none;stroke-opacity:1"
             id="path84"
             inkscape:connector-curvature="0" /></g><g
           id="g86"
           transform="translate(28.3047,28.1733)"><path
             d="M 0,0 C 0,-2.683 -4.429,-4.854 -9.902,-4.854"
             style="fill:none;stroke:#000000;stroke-width:1;stroke-linecap:butt;stroke-linejoin:miter;stroke-miterlimit:10;stroke-dasharray:none;stroke-opacity:1"
             id="path88"
             inkscape:connector-curvature="0" /></g><g
           id="g90"
           transform="translate(8.5,24.9375)"><path
             d="M 0,0 V 3.236"
             style="fill:none;stroke:#000000;stroke-width:1;stroke-linecap:butt;stroke-linejoin:miter;stroke-miterlimit:10;stroke-dasharray:none;stroke-opacity:1"
             id="path92"
             inkscape:connector-curvature="0" /></g><g
           id="g94"
           transform="translate(28.3047,24.9375)"><path
             d="M 0,0 V 3.236"
             style="fill:none;stroke:#000000;stroke-width:1;stroke-linecap:butt;stroke-linejoin:miter;stroke-miterlimit:10;stroke-dasharray:none;stroke-opacity:1"
             id="path96"
             inkscape:connector-curvature="0" /></g><g
           id="g98"
           transform="translate(8.5,31.4097)"><path
             d="M 0,0 C 0,-2.683 4.429,-4.854 9.902,-4.854"
             style="fill:none;stroke:#000000;stroke-width:1;stroke-linecap:butt;stroke-linejoin:miter;stroke-miterlimit:10;stroke-dasharray:none;stroke-opacity:1"
             id="path100"
             inkscape:connector-curvature="0" /></g><g
           id="g102"
           transform="translate(28.3047,31.4097)"><path
             d="M 0,0 C 0,-2.683 -4.429,-4.854 -9.902,-4.854"
             style="fill:none;stroke:#000000;stroke-width:1;stroke-linecap:butt;stroke-linejoin:miter;stroke-miterlimit:10;stroke-dasharray:none;stroke-opacity:1"
             id="path104"
             inkscape:connector-curvature="0" /></g><g
           id="g106"
           transform="translate(8.5,28.1733)"><path
             d="M 0,0 V 3.236"
             style="fill:none;stroke:#000000;stroke-width:1;stroke-linecap:butt;stroke-linejoin:miter;stroke-miterlimit:10;stroke-dasharray:none;stroke-opacity:1"
             id="path108"
             inkscape:connector-curvature="0" /></g><g
           id="g110"
           transform="translate(28.3047,28.1733)"><path
             d="M 0,0 V 3.236"
             style="fill:none;stroke:#000000;stroke-width:1;stroke-linecap:butt;stroke-linejoin:miter;stroke-miterlimit:10;stroke-dasharray:none;stroke-opacity:1"
             id="path112"
             inkscape:connector-curvature="0" /></g><g
           id="g114"
           transform="translate(8.5,34.646)"><path
             d="M 0,0 C 0,-2.683 4.429,-4.854 9.902,-4.854"
             style="fill:none;stroke:#000000;stroke-width:0.25;stroke-linecap:butt;stroke-linejoin:miter;stroke-miterlimit:10;stroke-dasharray:none;stroke-opacity:1"
             id="path116"
             inkscape:connector-curvature="0" /></g><g
           id="g118"
           transform="translate(28.3047,34.646)"><path
             d="M 0,0 C 0,-2.683 -4.429,-4.854 -9.902,-4.854"
             style="fill:none;stroke:#000000;stroke-width:0.25;stroke-linecap:butt;stroke-linejoin:miter;stroke-miterlimit:10;stroke-dasharray:none;stroke-opacity:1"
             id="path120"
             inkscape:connector-curvature="0" /></g><g
           id="g122"
           transform="translate(8.5,31.4097)"><path
             d="M 0,0 V 3.236"
             style="fill:none;stroke:#000000;stroke-width:1;stroke-linecap:butt;stroke-linejoin:miter;stroke-miterlimit:10;stroke-dasharray:none;stroke-opacity:1"
             id="path124"
             inkscape:connector-curvature="0" /></g><g
           id="g126"
           transform="translate(28.3047,31.4097)"><path
             d="M 0,0 V 3.236"
             style="fill:none;stroke:#000000;stroke-width:1;stroke-linecap:butt;stroke-linejoin:miter;stroke-miterlimit:10;stroke-dasharray:none;stroke-opacity:1"
             id="path128"
             inkscape:connector-curvature="0" /></g><g
           id="g130"
           transform="translate(28.3047,34.646)"><path
             d="m 0,0 c 0,-2.681 -4.433,-4.854 -9.902,-4.854 -5.469,0 -9.903,2.173 -9.903,4.854 0,2.681 4.434,4.854 9.903,4.854 C -4.433,4.854 0,2.681 0,0"
             style="fill:#ffffff;fill-opacity:1;fill-rule:nonzero;stroke:none"
             id="path132"
             inkscape:connector-curvature="0" /></g><g
           id="g134"
           transform="translate(28.3047,34.646)"><path
             d="m 0,0 c 0,-2.681 -4.433,-4.854 -9.902,-4.854 -5.469,0 -9.903,2.173 -9.903,4.854 0,2.681 4.434,4.854 9.903,4.854 C -4.433,4.854 0,2.681 0,0 Z"
             style="fill:none;stroke:#000000;stroke-width:1;stroke-linecap:butt;stroke-linejoin:miter;stroke-miterlimit:10;stroke-dasharray:none;stroke-opacity:1"
             id="path136"
             inkscape:connector-curvature="0" /></g></g></g><g
       id="g138"
       transform="matrix(1.5059485,0,0,1.5059485,-12.047136,-13.554967)"><g
         id="g140"
         clip-path="url(#clipPath144)"><g
           id="g146"
           transform="scale(0.5825015,-0.2855285)"><g
             id="g148"
             transform="translate(39.3345,-121.3379)"><path
               d="m 0,0 c 0,4.275 -3.467,7.742 -7.742,7.742 -4.276,0 -7.742,-3.467 -7.742,-7.742 0,-4.276 3.466,-7.742 7.742,-7.742 C -3.467,-7.742 0,-4.276 0,0 Z"
               style="fill:none;stroke:#000000;stroke-width:3;stroke-linecap:butt;stroke-linejoin:miter;stroke-miterlimit:10;stroke-dasharray:none;stroke-opacity:1"
               id="path150"
               inkscape:connector-curvature="0" /></g></g><g
           id="g152"
           transform="scale(0.5825015,-0.2855285)"><g
             id="g154"
             transform="translate(36.4321,-114.5625)"><path
               d="M 0,0 3.225,3.225 5.16,1.289 1.936,-1.936 C 1.4,-1.188 0.747,-0.535 0,0"
               style="fill:#000000;fill-opacity:1;fill-rule:nonzero;stroke:none"
               id="path156"
               inkscape:connector-curvature="0" /></g></g><g
           id="g158"
           transform="scale(0.5825015,-0.2855285)"><g
             id="g160"
             transform="translate(26.7525,-128.1133)"><path
               d="m 0,0 -3.225,-3.225 -1.935,1.936 3.224,3.225 C -1.401,1.188 -0.747,0.535 0,0"
               style="fill:#000000;fill-opacity:1;fill-rule:nonzero;stroke:none"
               id="path162"
               inkscape:connector-curvature="0" /></g></g><g
           id="g164"
           transform="scale(0.5825015,-0.2855285)"><g
             id="g166"
             transform="translate(38.3677,-126.1777)"><path
               d="M 0,0 3.225,-3.225 1.289,-5.16 -1.936,-1.936 C -1.188,-1.401 -0.535,-0.747 0,0"
               style="fill:#000000;fill-opacity:1;fill-rule:nonzero;stroke:none"
               id="path168"
               inkscape:connector-curvature="0" /></g></g><g
           id="g170"
           transform="scale(0.5825015,-0.2855285)"><g
             id="g172"
             transform="translate(24.8169,-116.4981)"><path
               d="M 0,0 -3.225,3.225 -1.289,5.16 1.936,1.936 C 1.188,1.4 0.535,0.747 0,0"
               style="fill:#000000;fill-opacity:1;fill-rule:nonzero;stroke:none"
               id="path174"
               inkscape:connector-curvature="0" /></g></g></g></g><g
       id="g176"
       transform="matrix(1.5059485,0,0,1.5059485,-12.047136,-13.554967)"><g
         id="g178"
         clip-path="url(#clipPath182)"><g
           id="g184"
           transform="translate(18.2749,20.9873)"><path
             d="m 0,0 c 0,-5.861 4.751,-10.612 10.613,-10.612 5.861,0 10.612,4.751 10.612,10.612 0,5.861 -4.751,10.613 -10.612,10.613 C 4.751,10.613 0,5.861 0,0"
             style="fill:#ffffff;fill-opacity:1;fill-rule:nonzero;stroke:none"
             id="path186"
             inkscape:connector-curvature="0" /></g><g
           id="g188"
           transform="translate(18.4023,20.9873)"><path
             d="m 0,0 c 0,-5.791 4.694,-10.485 10.485,-10.485 5.791,0 10.486,4.694 10.486,10.485 0,5.791 -4.695,10.485 -10.486,10.485 C 4.694,10.485 0,5.791 0,0 Z"
             style="fill:none;stroke:#000000;stroke-width:1;stroke-linecap:butt;stroke-linejoin:miter;stroke-miterlimit:10;stroke-dasharray:none;stroke-opacity:1"
             id="path190"
             inkscape:connector-curvature="0" /></g></g></g><g
       id="g192"
       transform="matrix(1.5059485,0,0,1.5059485,-12.047136,-13.554967)"><g
         id="g194"
         clip-path="url(#clipPath198)"><g
           id="g200"
           transform="translate(32.8427,20.987)"><path
             d="m 0,0 c 0,-2.184 -1.771,-3.955 -3.955,-3.955 -2.184,0 -3.954,1.771 -3.954,3.955 0,2.184 1.77,3.955 3.954,3.955 C -1.771,3.955 0,2.184 0,0 Z"
             style="fill:none;stroke:#000000;stroke-width:1.53199995;stroke-linecap:butt;stroke-linejoin:miter;stroke-miterlimit:10;stroke-dasharray:none;stroke-opacity:1"
             id="path202"
             inkscape:connector-curvature="0" /></g><g
           id="g204"
           transform="translate(31.3601,17.5261)"><path
             d="M 0,0 1.647,-1.647 2.636,-0.658 0.989,0.989 C 0.715,0.607 0.382,0.273 0,0"
             style="fill:#000000;fill-opacity:1;fill-rule:nonzero;stroke:none"
             id="path206"
             inkscape:connector-curvature="0" /></g><g
           id="g208"
           transform="translate(26.4157,24.4479)"><path
             d="M 0,0 -1.647,1.647 -2.636,0.658 -0.989,-0.989 C -0.716,-0.607 -0.382,-0.273 0,0"
             style="fill:#000000;fill-opacity:1;fill-rule:nonzero;stroke:none"
             id="path210"
             inkscape:connector-curvature="0" /></g><g
           id="g212"
           transform="translate(32.3488,23.4592)"><path
             d="M 0,0 1.647,1.647 0.658,2.636 -0.989,0.989 C -0.607,0.716 -0.273,0.382 0,0"
             style="fill:#000000;fill-opacity:1;fill-rule:nonzero;stroke:none"
             id="path214"
             inkscape:connector-curvature="0" /></g><g
           id="g216"
           transform="translate(25.4269,18.5148)"><path
             d="m 0,0 -1.647,-1.647 0.989,-0.989 1.647,1.647 C 0.607,-0.715 0.273,-0.382 0,0"
             style="fill:#000000;fill-opacity:1;fill-rule:nonzero;stroke:none"
             id="path218"
             inkscape:connector-curvature="0" /></g></g></g></g></svg>