<?xml version="1.0" encoding="UTF-8" standalone="no"?>
<!-- Created with Inkscape (http://www.inkscape.org/) -->

<svg
   xmlns:dc="http://purl.org/dc/elements/1.1/"
   xmlns:cc="http://creativecommons.org/ns#"
   xmlns:rdf="http://www.w3.org/1999/02/22-rdf-syntax-ns#"
   xmlns:svg="http://www.w3.org/2000/svg"
   xmlns="http://www.w3.org/2000/svg"
   xmlns:sodipodi="http://sodipodi.sourceforge.net/DTD/sodipodi-0.dtd"
   xmlns:inkscape="http://www.inkscape.org/namespaces/inkscape"
   version="1.1"
   id="svg2"
   xml:space="preserve"
   width="48pt"
   height="48pt"
   viewBox="0 0 64 64"
   sodipodi:docname="QuestionMark.svg"
   inkscape:version="0.92.2 5c3e80d, 2017-08-06"><metadata
     id="metadata8"><rdf:RDF><cc:Work
         rdf:about=""><dc:format>image/svg+xml</dc:format><dc:type
           rdf:resource="http://purl.org/dc/dcmitype/StillImage" /><dc:title></dc:title></cc:Work></rdf:RDF></metadata><defs
     id="defs6"><clipPath
       clipPathUnits="userSpaceOnUse"
       id="clipPath18"><path
         d="M 0,48 H 48 V 0 H 0 Z"
         id="path16"
         inkscape:connector-curvature="0" /></clipPath></defs><sodipodi:namedview
     pagecolor="#ffffff"
     bordercolor="#666666"
     borderopacity="1"
     objecttolerance="10"
     gridtolerance="10"
     guidetolerance="10"
     inkscape:pageopacity="0"
     inkscape:pageshadow="2"
     inkscape:window-width="1920"
     inkscape:window-height="1016"
     id="namedview4"
     showgrid="false"
     inkscape:document-units="pt"
     units="pt"
     inkscape:zoom="3.6875"
     inkscape:cx="33.084746"
     inkscape:cy="30.644068"
     inkscape:window-x="0"
     inkscape:window-y="27"
     inkscape:window-maximized="1"
     inkscape:current-layer="g10" /><g
     id="g10"
     inkscape:groupmode="layer"
     inkscape:label="QuestionMark"
     transform="matrix(1.3333333,0,0,-1.3333333,0,64)"><g
       id="g12"
       transform="matrix(2.3999161,0,0,2.3999161,-33.597986,-33.344675)"><g
         id="g14"
         clip-path="url(#clipPath18)"><g
           id="g20"
           transform="translate(22.3589,15.2451)"><path
             d="m 0,0 c 0,-0.746 0.605,-1.351 1.351,-1.351 0.746,0 1.351,0.605 1.351,1.351 0,0.746 -0.605,1.351 -1.351,1.351 C 0.605,1.351 0,0.746 0,0"
             style="fill:#000000;fill-opacity:1;fill-rule:nonzero;stroke:none"
             id="path22"
             inkscape:connector-curvature="0" /></g><g
           id="g24"
           transform="translate(23.71,18.1475)"><path
             d="m 0,0 c -0.498,0 -0.901,0.402 -0.901,0.9 v 5.805 c 0,0.497 0.403,0.9 0.901,0.9 0.497,0 0.9,-0.403 0.9,-0.9 V 0.9 C 0.9,0.402 0.497,0 0,0"
             style="fill:#000000;fill-opacity:1;fill-rule:nonzero;stroke:none"
             id="path26"
             inkscape:connector-curvature="0" /></g><g
           id="g28"
           transform="translate(24,23.9673)"><path
             d="m 0,0 c -0.497,0 -0.9,0.403 -0.9,0.901 0,0.497 0.403,0.9 0.9,0.9 1.744,0 3.162,1.419 3.162,3.163 0,0.497 0.402,0.9 0.9,0.9 0.499,0 0.901,-0.403 0.901,-0.9 C 4.963,2.227 2.736,0 0,0"
             style="fill:#000000;fill-opacity:1;fill-rule:nonzero;stroke:none"
             id="path30"
             inkscape:connector-curvature="0" /></g><g
           id="g32"
           transform="translate(28.9629,28.9312)"><path
             d="m 0,0 h -1.801 c 0,1.744 -1.418,3.163 -3.162,3.163 v 1.8 C -2.227,4.963 0,2.737 0,0"
             style="fill:#000000;fill-opacity:1;fill-rule:nonzero;stroke:none"
             id="path34"
             inkscape:connector-curvature="0" /></g><g
           id="g36"
           transform="translate(19.937,28.0308)"><path
             d="m 0,0 c -0.498,0 -0.9,0.403 -0.9,0.9 0,2.737 2.226,4.964 4.963,4.964 0.497,0 0.9,-0.404 0.9,-0.901 0,-0.497 -0.403,-0.9 -0.9,-0.9 C 2.319,4.063 0.9,2.644 0.9,0.9 0.9,0.403 0.497,0 0,0"
             style="fill:#000000;fill-opacity:1;fill-rule:nonzero;stroke:none"
             id="path38"
             inkscape:connector-curvature="0" /></g></g></g></g></svg>