<?xml version="1.0" encoding="UTF-8" standalone="no"?>
<!-- Created with Inkscape (http://www.inkscape.org/) -->

<svg
   xmlns:dc="http://purl.org/dc/elements/1.1/"
   xmlns:cc="http://creativecommons.org/ns#"
   xmlns:rdf="http://www.w3.org/1999/02/22-rdf-syntax-ns#"
   xmlns:svg="http://www.w3.org/2000/svg"
   xmlns="http://www.w3.org/2000/svg"
   xmlns:sodipodi="http://sodipodi.sourceforge.net/DTD/sodipodi-0.dtd"
   xmlns:inkscape="http://www.inkscape.org/namespaces/inkscape"
   version="1.1"
   id="svg1005"
   xml:space="preserve"
   width="64"
   height="64"
   viewBox="0 0 64 64"
   sodipodi:docname="RingedArrow.ai.svg"
   inkscape:export-filename="/home/damir/Projects/BudgetManager/Tools/Icons/RingedArrow_xxxhdpi.png"
   inkscape:export-xdpi="288"
   inkscape:export-ydpi="288"
   inkscape:version="0.92.2 5c3e80d, 2017-08-06"><metadata
     id="metadata1011"><rdf:RDF><cc:Work
         rdf:about=""><dc:format>image/svg+xml</dc:format><dc:type
           rdf:resource="http://purl.org/dc/dcmitype/StillImage" /><dc:title></dc:title></cc:Work></rdf:RDF></metadata><defs
     id="defs1009"><clipPath
       clipPathUnits="userSpaceOnUse"
       id="clipPath1021"><path
         d="M 0,48 H 48 V 0 H 0 Z"
         id="path1019"
         inkscape:connector-curvature="0" /></clipPath></defs><sodipodi:namedview
     pagecolor="#ffffff"
     bordercolor="#666666"
     borderopacity="1"
     objecttolerance="10"
     gridtolerance="10"
     guidetolerance="10"
     inkscape:pageopacity="0"
     inkscape:pageshadow="2"
     inkscape:window-width="1522"
     inkscape:window-height="897"
     id="namedview1007"
     showgrid="false"
     inkscape:zoom="5.12"
     inkscape:cx="28.403245"
     inkscape:cy="34.234346"
     inkscape:window-x="0"
     inkscape:window-y="27"
     inkscape:window-maximized="0"
     inkscape:current-layer="g1013" /><g
     id="g1013"
     inkscape:groupmode="layer"
     inkscape:label="RingedArrow"
     transform="matrix(1.3333333,0,0,-1.3333333,0,64)"><g
       id="g1015"><g
         id="g1017"
         clip-path="url(#clipPath1021)"><g
           id="g1023"
           transform="translate(24,37.0288)"><path
             d="m 0,0 v -1.029 -1.029 -1.028 -1.029 c 1.641,0 3.204,-0.332 4.626,-0.933 1.423,-0.602 2.703,-1.473 3.778,-2.548 1.075,-1.075 1.947,-2.356 2.548,-3.778 0.601,-1.422 0.934,-2.985 0.934,-4.626 0,-1.641 -0.333,-3.205 -0.934,-4.626 C 10.351,-22.048 9.479,-23.33 8.404,-24.405 7.329,-25.48 6.049,-26.35 4.626,-26.952 3.204,-27.553 1.641,-27.886 0,-27.886 c -1.641,0 -3.205,0.333 -4.626,0.934 -1.422,0.602 -2.703,1.472 -3.778,2.547 -1.076,1.075 -1.946,2.357 -2.548,3.779 -0.601,1.421 -0.934,2.985 -0.934,4.626 h -1.028 -1.029 -1.028 H -16 c 0,-2.209 0.448,-4.314 1.257,-6.228 0.81,-1.914 1.982,-3.639 3.43,-5.086 1.447,-1.447 3.171,-2.619 5.085,-3.429 C -4.313,-31.552 -2.209,-32 0,-32 c 2.209,0 4.313,0.448 6.228,1.257 1.915,0.81 3.638,1.982 5.085,3.429 1.449,1.447 2.62,3.172 3.429,5.086 0.811,1.914 1.258,4.019 1.258,6.228 0,2.209 -0.447,4.313 -1.258,6.228 -0.809,1.914 -1.98,3.638 -3.429,5.085 -1.447,1.448 -3.17,2.62 -5.085,3.429 C 4.313,-0.448 2.209,0 0,0"
             style="fill:#ff8f00;fill-opacity:1;fill-rule:nonzero;stroke:none"
             id="path1025"
             inkscape:connector-curvature="0" /></g><g
           id="g1027"
           transform="translate(10.8091,36.0249)"><path
             d="M 0,0 C -1.545,-0.58 -1.545,-1.527 0,-2.107 L 10.382,-6 c 1.545,-0.58 2.809,0.296 2.809,1.946 v 6 c 0,1.651 -1.264,2.527 -2.809,1.947 z"
             style="fill:#ff8f00;fill-opacity:1;fill-rule:nonzero;stroke:none"
             id="path1029"
             inkscape:connector-curvature="0" /></g><g
           id="g1031"
           transform="translate(8,21)"><path
             d="M 0,0 H 2 4 2 Z"
             style="fill:#ff8f00;fill-opacity:1;fill-rule:nonzero;stroke:none"
             id="path1033"
             inkscape:connector-curvature="0" /></g><g
           id="g1035"
           transform="translate(8,21.0303)"><path
             d="M 0,0 C 0,-1.135 0.92,-2.056 2.055,-2.056 3.19,-2.056 4.11,-1.135 4.11,0 4.11,1.135 3.19,2.055 2.055,2.055 0.92,2.055 0,1.135 0,0"
             style="fill:#ff8f00;fill-opacity:1;fill-rule:nonzero;stroke:none"
             id="path1037"
             inkscape:connector-curvature="0" /></g></g></g></g></svg>