<?xml version="1.0" encoding="UTF-8" standalone="no"?>
<!-- Created with Inkscape (http://www.inkscape.org/) -->

<svg
   xmlns:dc="http://purl.org/dc/elements/1.1/"
   xmlns:cc="http://creativecommons.org/ns#"
   xmlns:rdf="http://www.w3.org/1999/02/22-rdf-syntax-ns#"
   xmlns:svg="http://www.w3.org/2000/svg"
   xmlns="http://www.w3.org/2000/svg"
   xmlns:sodipodi="http://sodipodi.sourceforge.net/DTD/sodipodi-0.dtd"
   xmlns:inkscape="http://www.inkscape.org/namespaces/inkscape"
   version="1.1"
   id="svg2"
   xml:space="preserve"
   width="48pt"
   height="48pt"
   viewBox="0 0 64 64"
   sodipodi:docname="Swap.svg"
   inkscape:version="0.92.2 5c3e80d, 2017-08-06"><metadata
     id="metadata8"><rdf:RDF><cc:Work
         rdf:about=""><dc:format>image/svg+xml</dc:format><dc:type
           rdf:resource="http://purl.org/dc/dcmitype/StillImage" /><dc:title></dc:title></cc:Work></rdf:RDF></metadata><defs
     id="defs6"><clipPath
       clipPathUnits="userSpaceOnUse"
       id="clipPath18"><path
         d="M 0,48 H 48 V 0 H 0 Z"
         id="path16"
         inkscape:connector-curvature="0" /></clipPath></defs><sodipodi:namedview
     pagecolor="#ffffff"
     bordercolor="#666666"
     borderopacity="1"
     objecttolerance="10"
     gridtolerance="10"
     guidetolerance="10"
     inkscape:pageopacity="0"
     inkscape:pageshadow="2"
     inkscape:window-width="960"
     inkscape:window-height="1016"
     id="namedview4"
     showgrid="false"
     inkscape:document-units="pt"
     units="pt"
     inkscape:zoom="3.6875"
     inkscape:cx="32.542373"
     inkscape:cy="32"
     inkscape:window-x="0"
     inkscape:window-y="27"
     inkscape:window-maximized="0"
     inkscape:current-layer="g10" /><g
     id="g10"
     inkscape:groupmode="layer"
     inkscape:label="Swap"
     transform="matrix(1.3333333,0,0,-1.3333333,0,64)"><g
       id="g12"
       transform="matrix(1.2,0,0,1.2,-4.7999994,-4.7999994)"><g
         id="g14"
         clip-path="url(#clipPath18)"><g
           id="g20"
           transform="translate(44,24)"><path
             d="m 0,0 c 0,-11.046 -8.954,-20 -20,-20 -11.046,0 -20,8.954 -20,20 0,11.046 8.954,20 20,20 C -8.954,20 0,11.046 0,0"
             style="fill:#ffffff;fill-opacity:1;fill-rule:nonzero;stroke:none"
             id="path22"
             inkscape:connector-curvature="0" /></g><g
           id="g24"
           transform="translate(12.1875,29.168)"><path
             d="m 0,0 h 23.625 c 1.203,0 2.187,0.984 2.187,2.188 0,1.203 -0.984,2.187 -2.187,2.187 H 0 C -1.203,4.375 -2.188,3.391 -2.188,2.188 -2.188,0.984 -1.203,0 0,0"
             style="fill:#007f0e;fill-opacity:1;fill-rule:nonzero;stroke:none"
             id="path26"
             inkscape:connector-curvature="0" /></g><g
           id="g28"
           transform="translate(35.8125,13.8555)"><path
             d="m 0,0 h -23.625 c -1.203,0 -2.187,0.984 -2.187,2.188 0,1.203 0.984,2.187 2.187,2.187 H 0 C 1.203,4.375 2.188,3.391 2.188,2.188 2.188,0.984 1.203,0 0,0"
             style="fill:#999999;fill-opacity:1;fill-rule:nonzero;stroke:none"
             id="path30"
             inkscape:connector-curvature="0" /></g><g
           id="g32"
           transform="translate(10.5156,29.9341)"><path
             d="m 0,0 6.541,-6.541 c 0.583,-0.584 1.538,-0.584 2.121,0 l 0.972,0.973 c 0.583,0.583 0.583,1.537 0,2.121 L 3.093,3.094 C 2.51,3.677 1.556,3.677 0.972,3.094 L 0,2.121 C -0.583,1.538 -0.583,0.583 0,0"
             style="fill:#007f0e;fill-opacity:1;fill-rule:nonzero;stroke:none"
             id="path34"
             inkscape:connector-curvature="0" /></g><g
           id="g36"
           transform="translate(17.0562,39.3179)"><path
             d="m 0,0 -6.541,-6.541 c -0.583,-0.583 -0.583,-1.538 0,-2.121 l 0.973,-0.972 c 0.583,-0.584 1.538,-0.584 2.121,0 l 6.541,6.54 c 0.583,0.584 0.583,1.538 0,2.122 L 2.121,0 C 1.538,0.583 0.583,0.583 0,0"
             style="fill:#007f0e;fill-opacity:1;fill-rule:nonzero;stroke:none"
             id="path38"
             inkscape:connector-curvature="0" /></g><g
           id="g40"
           transform="translate(27.8506,20.9121)"><path
             d="m 0,0 6.54,-6.541 c 0.584,-0.583 1.538,-0.583 2.122,0 l 0.972,0.972 c 0.584,0.584 0.584,1.538 0,2.122 L 3.093,3.093 C 2.51,3.677 1.556,3.677 0.972,3.093 L 0,2.121 C -0.584,1.537 -0.584,0.583 0,0"
             style="fill:#999999;fill-opacity:1;fill-rule:nonzero;stroke:none"
             id="path42"
             inkscape:connector-curvature="0" /></g></g></g></g></svg>