<?xml version="1.0" encoding="UTF-8" standalone="no"?>
<!-- Created with Inkscape (http://www.inkscape.org/) -->

<svg
   xmlns:dc="http://purl.org/dc/elements/1.1/"
   xmlns:cc="http://creativecommons.org/ns#"
   xmlns:rdf="http://www.w3.org/1999/02/22-rdf-syntax-ns#"
   xmlns:svg="http://www.w3.org/2000/svg"
   xmlns="http://www.w3.org/2000/svg"
   xmlns:sodipodi="http://sodipodi.sourceforge.net/DTD/sodipodi-0.dtd"
   xmlns:inkscape="http://www.inkscape.org/namespaces/inkscape"
   version="1.1"
   id="svg2"
   xml:space="preserve"
   width="48pt"
   height="48pt"
   viewBox="0 0 64.000002 64.000002"
   sodipodi:docname="TimeFrom.svg"
   inkscape:version="0.92.2 5c3e80d, 2017-08-06"><metadata
     id="metadata8"><rdf:RDF><cc:Work
         rdf:about=""><dc:format>image/svg+xml</dc:format><dc:type
           rdf:resource="http://purl.org/dc/dcmitype/StillImage" /><dc:title></dc:title></cc:Work></rdf:RDF></metadata><defs
     id="defs6"><clipPath
       clipPathUnits="userSpaceOnUse"
       id="clipPath18"><path
         d="M 0,32 H 32 V 0 H 0 Z"
         id="path16"
         inkscape:connector-curvature="0" /></clipPath></defs><sodipodi:namedview
     pagecolor="#ffffff"
     bordercolor="#666666"
     borderopacity="1"
     objecttolerance="10"
     gridtolerance="10"
     guidetolerance="10"
     inkscape:pageopacity="0"
     inkscape:pageshadow="2"
     inkscape:window-width="960"
     inkscape:window-height="1016"
     id="namedview4"
     showgrid="false"
     inkscape:document-units="pt"
     units="pt"
     inkscape:zoom="5.5312498"
     inkscape:cx="26.299904"
     inkscape:cy="21.333334"
     inkscape:window-x="0"
     inkscape:window-y="27"
     inkscape:window-maximized="0"
     inkscape:current-layer="g10" /><g
     id="g10"
     inkscape:groupmode="layer"
     inkscape:label="TimeFrom"
     transform="matrix(1.3333333,0,0,-1.3333333,0,64.000002)"><g
       id="g12"
       transform="matrix(2.1689427,0,0,2.1689427,-9.8905959,-10.872693)"><g
         id="g14"
         clip-path="url(#clipPath18)"><g
           id="g20"
           transform="translate(18.3691,7.4707)"><path
             d="m 0,0 c -0.98,-0.358 -2.034,-0.564 -3.137,-0.564 -1.618,0 -3.137,0.424 -4.459,1.163 h -0.088 v 0.053 c -2.758,1.583 -4.625,4.553 -4.625,7.955 0,5.058 4.114,9.172 9.172,9.172 5.057,0 9.171,-4.114 9.171,-9.172 0,-1.32 -0.286,-2.572 -0.79,-3.708 L 6.577,4.215 c 0.61,1.342 0.957,2.826 0.957,4.392 0,5.885 -4.787,10.672 -10.671,10.672 -5.884,0 -10.672,-4.787 -10.672,-10.672 0,-5.884 4.788,-10.671 10.672,-10.671 1.092,0 2.145,0.166 3.137,0.472 v 0.121 z"
             style="fill:#000000;fill-opacity:1;fill-rule:nonzero;stroke:none"
             id="path22"
             inkscape:connector-curvature="0" /></g><g
           id="g24"
           transform="translate(15.2319,15.0781)"><path
             d="m 0,0 h 4.668 c 0.553,0 1,0.448 1,1 0,0.552 -0.447,1 -1,1 H 1 V 1 C 1,0.448 0.552,0 0,0"
             style="fill:#000000;fill-opacity:1;fill-rule:nonzero;stroke:none"
             id="path26"
             inkscape:connector-curvature="0" /></g><g
           id="g28"
           transform="translate(15.2319,17.0781)"><path
             d="m 0,0 h 1 v 5.378 c 0,0.553 -0.448,1 -1,1 -0.552,0 -1,-0.447 -1,-1 V -1 c 0,0.552 0.448,1 1,1"
             style="fill:#000000;fill-opacity:1;fill-rule:nonzero;stroke:none"
             id="path30"
             inkscape:connector-curvature="0" /></g><g
           id="g32"
           transform="translate(15.2319,15.0781)"><path
             d="M 0,0 C 0.552,0 1,0.448 1,1 V 2 H 0 C -0.552,2 -1,1.552 -1,1 -1,0.448 -0.552,0 0,0"
             style="fill:#000000;fill-opacity:1;fill-rule:nonzero;stroke:none"
             id="path34"
             inkscape:connector-curvature="0" /></g><g
           id="g36"
           transform="translate(23.2334,11.6094)"><path
             d="m 0,0 -4.014,2.061 v -2.919 h -7.684 v -1.831 h 7.684 V -3.778 C -2.321,-2.956 -0.917,-1.636 0,0"
             style="fill:#000000;fill-opacity:1;fill-rule:nonzero;stroke:none"
             id="path38"
             inkscape:connector-curvature="0" /></g><g
           id="g40"
           transform="translate(19.2197,6.1865)"><path
             d="M 0,0 V -0.187 L 7.471,3.648 5.351,4.737 C 4.169,2.605 2.278,0.922 0,0"
             style="fill:#000000;fill-opacity:1;fill-rule:nonzero;stroke:none"
             id="path42"
             inkscape:connector-curvature="0" /></g><g
           id="g44"
           transform="translate(24.5703,10.9238)"><path
             d="M 0,0 -1.337,0.686 C -2.254,-0.95 -3.658,-2.271 -5.351,-3.093 V -4.737 C -3.072,-3.815 -1.182,-2.132 0,0"
             style="fill:#000000;fill-opacity:1;fill-rule:nonzero;stroke:none"
             id="path46"
             inkscape:connector-curvature="0" /></g><g
           id="g48"
           transform="translate(10.6851,8.0693)"><path
             d="M 0,0 H 0.088 C 0.059,0.017 0.03,0.037 0,0.054 Z"
             style="fill:#ffffff;fill-opacity:1;fill-rule:nonzero;stroke:none"
             id="path50"
             inkscape:connector-curvature="0" /></g><g
           id="g52"
           transform="translate(23.2334,11.6094)"><path
             d="M 0,0 V 0 L -4.014,2.061 Z"
             style="fill:#ffffff;fill-opacity:1;fill-rule:nonzero;stroke:none"
             id="path54"
             inkscape:connector-curvature="0" /></g><g
           id="g56"
           transform="translate(26.6904,9.835)"><path
             d="M 0,0 V 0 L -2.12,1.089 Z"
             style="fill:#ffffff;fill-opacity:1;fill-rule:nonzero;stroke:none"
             id="path58"
             inkscape:connector-curvature="0" /></g><g
           id="g60"
           transform="translate(23.2334,11.6094)"><path
             d="M 0,0 1.337,-0.686 Z"
             style="fill:#ffffff;fill-opacity:1;fill-rule:nonzero;stroke:none"
             id="path62"
             inkscape:connector-curvature="0" /></g></g></g></g></svg>